<svg width="11" height="13" viewBox="0 0 11 13" fill="none" xmlns="http://www.w3.org/2000/svg">
<g id="Group">
<path id="Vector" d="M9.66667 5.33333C9.66667 7.72642 5.33333 11.8333 5.33333 11.8333C5.33333 11.8333 1 7.72642 1 5.33333C1 4.18406 1.45655 3.08186 2.2692 2.2692C3.08186 1.45655 4.18406 1 5.33333 1C6.48261 1 7.58481 1.45655 8.39746 2.2692C9.21012 3.08186 9.66667 4.18406 9.66667 5.33333V5.33333Z" stroke="#05526F"/>
<path id="Vector_2" d="M5.33335 5.76661C5.50574 5.76661 5.67107 5.69813 5.79297 5.57623C5.91487 5.45433 5.98335 5.289 5.98335 5.11661C5.98335 4.94422 5.91487 4.77889 5.79297 4.65699C5.67107 4.5351 5.50574 4.46661 5.33335 4.46661C5.16096 4.46661 4.99563 4.5351 4.87373 4.65699C4.75183 4.77889 4.68335 4.94422 4.68335 5.11661C4.68335 5.289 4.75183 5.45433 4.87373 5.57623C4.99563 5.69813 5.16096 5.76661 5.33335 5.76661Z" fill="#05526F" stroke="#05526F" stroke-linecap="round" stroke-linejoin="round"/>
</g>
</svg>
