<svg width="30" height="30" viewBox="0 0 30 30" fill="none" xmlns="http://www.w3.org/2000/svg">
<g id="Group 1171276137">
<g id="Group 1000003210">
<g id="Group 1000003205">
<rect id="Rectangle 2791" width="30" height="30" rx="5" fill="#05526F" fill-opacity="0.08"/>
</g>
</g>
<path id="Vector" d="M8.87892 7.57216L8.87892 7.57216C8.96796 7.37162 9.1134 7.20131 9.29752 7.08197C9.4816 6.96266 9.69639 6.89943 9.91576 6.9M8.87892 7.57216L20.0193 7M8.87892 7.57216L6.4303 13.0875H5.34375C5.22606 13.0875 5.11319 13.1343 5.02997 13.2175C4.94675 13.3007 4.9 13.4136 4.9 13.5313C4.9 13.6489 4.94675 13.7618 5.02997 13.845C5.11319 13.9283 5.22606 13.975 5.34375 13.975H6.275V21.0938C6.275 21.3938 6.39418 21.6815 6.60634 21.8937C6.81849 22.1058 7.10622 22.225 7.40625 22.225H9.46875C9.76878 22.225 10.0565 22.1058 10.2687 21.8937C10.4808 21.6815 10.6 21.3938 10.6 21.0938V19.475H19.3375V21.0938C19.3375 21.3938 19.4567 21.6815 19.6688 21.8937C19.881 22.1058 20.1687 22.225 20.4688 22.225H22.5312C22.8313 22.225 23.119 22.1058 23.3312 21.8937C23.5433 21.6815 23.6625 21.3938 23.6625 21.0938V13.975H24.5938C24.7114 13.975 24.8243 13.9283 24.9075 13.845L24.8368 13.7743L24.9075 13.845C24.9907 13.7618 25.0375 13.6489 25.0375 13.5313C25.0375 13.4136 24.9907 13.3007 24.9075 13.2175L24.8368 13.2882L24.9075 13.2175C24.8243 13.1343 24.7114 13.0875 24.5938 13.0875H23.5072L21.056 7.57216C20.967 7.37162 20.8215 7.20131 20.6374 7.08197C20.4533 6.96266 20.2385 6.89943 20.0192 6.9M8.87892 7.57216L20.0193 7M9.91576 6.9C9.9158 6.9 9.91585 6.9 9.9159 6.9L9.91562 7V6.9H9.91576ZM9.91576 6.9H20.0192M20.0192 6.9C20.0191 6.9 20.0191 6.9 20.019 6.9L20.0193 7M20.0192 6.9H20.0193V7M9.69248 7.93264L9.69253 7.93254C9.71165 7.88935 9.74292 7.85266 9.78251 7.82691C9.8221 7.80116 9.86833 7.78747 9.91556 7.7875H9.91562H20.0219L20.0219 7.7875C20.0692 7.78747 20.1154 7.80116 20.155 7.82691L20.2095 7.74307L20.155 7.82691C20.1946 7.85266 20.2258 7.88935 20.245 7.93254L20.245 7.93264L22.5355 13.0875H7.40199L9.69248 7.93264ZM9.7125 21.0938C9.7125 21.1584 9.68682 21.2204 9.64111 21.2661C9.5954 21.3118 9.5334 21.3375 9.46875 21.3375H7.40625C7.3416 21.3375 7.2796 21.3118 7.23389 21.2661C7.18818 21.2204 7.1625 21.1584 7.1625 21.0938V19.475H9.7125V21.0938ZM22.5312 21.3375H20.4688C20.4041 21.3375 20.3421 21.3118 20.2964 21.2661C20.2507 21.2204 20.225 21.1584 20.225 21.0938V19.475H22.775V21.0938C22.775 21.1584 22.7493 21.2204 22.7036 21.2661C22.6579 21.3118 22.5959 21.3375 22.5312 21.3375ZM22.775 18.5875H7.1625V13.975H22.775V18.5875ZM9.15497 15.9675C9.07175 16.0507 9.025 16.1636 9.025 16.2813C9.025 16.3989 9.07175 16.5118 9.15497 16.595C9.23819 16.6783 9.35106 16.725 9.46875 16.725H10.8438C10.9614 16.725 11.0743 16.6783 11.1575 16.595C11.2407 16.5118 11.2875 16.3989 11.2875 16.2813C11.2875 16.1636 11.2407 16.0507 11.1575 15.9675C11.0743 15.8843 10.9614 15.8375 10.8438 15.8375H9.46875C9.35106 15.8375 9.23819 15.8843 9.15497 15.9675ZM18.78 15.9675C18.6968 16.0507 18.65 16.1636 18.65 16.2813C18.65 16.3989 18.6968 16.5118 18.78 16.595C18.8632 16.6783 18.9761 16.725 19.0938 16.725H20.4688C20.5864 16.725 20.6993 16.6783 20.7825 16.595C20.8657 16.5118 20.9125 16.3989 20.9125 16.2813C20.9125 16.1636 20.8657 16.0507 20.7825 15.9675C20.6993 15.8843 20.5864 15.8375 20.4688 15.8375H19.0938C18.9761 15.8375 18.8632 15.8843 18.78 15.9675Z" fill="#05526F" stroke="#05526F" stroke-width="0.2"/>
</g>
</svg>
