<svg width="17" height="23" viewBox="0 0 17 23" fill="none" xmlns="http://www.w3.org/2000/svg">
<path id="Vector" d="M7.93423 0C9.03386 0 9.6557 0.169353 10.3862 0.929154L10.4707 1.01932L16.05 7.03731C16.7193 7.76507 16.9314 8.30243 16.9845 9.25035L16.9948 9.49614L16.9991 9.76115L17 19.6422C17 21.8292 16 22.9547 13.9909 22.9986L13.8667 23H3.13333C1.09274 23 0.042692 21.9285 0.00129381 19.7754L0 19.6422V3.3683C0 1.18181 1.00951 0.045771 3.00956 0.00137303L3.13333 0H7.93423ZM7.71171 1.72695H3.22432C2.20661 1.72695 1.66326 2.3 1.62876 3.29918L1.62704 3.4008V19.6102C1.62704 20.6483 2.13848 21.2341 3.11478 21.2708L3.21397 21.2731H13.786C14.8033 21.2731 15.3376 20.7201 15.3712 19.7123L15.373 19.6102V9.97674H9.61171C8.39435 9.97674 7.7488 9.34921 7.713 8.07403L7.71171 7.9596V1.72695ZM4.24202 13.7565C4.61417 13.7565 4.91561 14.0769 4.91561 14.4719V19.4793C4.91561 19.8738 4.61374 20.1942 4.24202 20.1942H3.56801C3.19586 20.1942 2.89399 19.8738 2.89399 19.4788V14.4715C2.89399 14.0769 3.19586 13.7565 3.56801 13.7565H4.24202ZM10.3073 15.9023C10.6794 15.9023 10.9809 16.2227 10.9809 16.6177V19.4788C10.9809 19.8738 10.679 20.1942 10.3073 20.1942H9.63328C9.26112 20.1942 8.95926 19.8738 8.95926 19.4788V16.6181C8.95926 16.2227 9.26112 15.9023 9.63328 15.9023H10.3073ZM7.27444 11.6108C7.64659 11.6108 7.94846 11.9312 7.94846 12.3257V19.4788C7.94846 19.8738 7.64659 20.1942 7.27444 20.1942H6.60043C6.22827 20.1942 5.92684 19.8738 5.92684 19.4788V12.3262C5.92684 11.9312 6.2287 11.6112 6.60043 11.6112L7.27444 11.6108ZM9.23784 2.0597V7.75592C9.23784 8.16008 9.38101 8.33584 9.72642 8.35507L9.79369 8.3569H15.059L9.23784 2.0597Z" fill="#05526F"/>
</svg>
