<svg width="22" height="22" viewBox="0 0 22 22" fill="none" xmlns="http://www.w3.org/2000/svg">
<g id="Icon">
<path id="Shape" fill-rule="evenodd" clip-rule="evenodd" d="M4.23081 21.9999H17.7693C20.1059 21.9999 22.0001 20.1759 22.0001 17.9259C22.0009 17.8286 21.9837 17.7321 21.9493 17.6407C20.2847 13.4121 16.0853 10.6094 11.3893 10.5925H10.6108C5.91474 10.6094 1.71543 13.4121 0.0508015 17.6407C0.0163459 17.7321 -0.000848275 17.8286 3.21784e-05 17.9259C3.21784e-05 20.1759 1.89421 21.9999 4.23081 21.9999ZM4.23081 20.3703C2.88316 20.3724 1.76871 19.36 1.69234 18.0644C3.14917 14.5474 6.67871 12.2353 10.6108 12.2222H11.3893C15.3214 12.2353 18.8509 14.5474 20.3077 18.0644C20.2314 19.36 19.1169 20.3724 17.7693 20.3703H4.23081Z" fill="#05526F"/>
<path id="Shape_2" fill-rule="evenodd" clip-rule="evenodd" d="M5 6C5 9.31371 7.68693 12 11.0014 12C12.5931 12 14.1196 11.3679 15.2451 10.2426C16.3706 9.11742 17.0029 7.5913 17.0029 6C17.0029 2.68629 14.3159 0 11.0014 0C7.68693 0 5 2.68629 5 6ZM7.00048 6C7.00048 3.79086 8.79177 2 11.0014 2C12.0626 2 13.0802 2.42143 13.8305 3.17157C14.5809 3.92172 15.0024 4.93913 15.0024 6C15.0024 8.20914 13.2111 10 11.0014 10C8.79177 10 7.00048 8.20914 7.00048 6Z" fill="#05526F"/>
<path id="Shape_3" fill-rule="evenodd" clip-rule="evenodd" d="M4.23081 22H17.7693C20.1059 22 22.0001 20.2411 22.0001 18.0714C22.0009 17.9777 21.9837 17.8845 21.9493 17.7964C20.2847 13.7189 16.0853 11.0162 11.3893 11H10.6108C5.91474 11.0162 1.71543 13.7189 0.0508015 17.7964C0.0163459 17.8845 -0.000848275 17.9777 3.21784e-05 18.0714C3.21784e-05 20.2411 1.89421 22 4.23081 22ZM4.23081 20.4286C2.88316 20.4306 1.76871 19.4544 1.69234 18.205C3.14917 14.8136 6.67871 12.5841 10.6108 12.5714H11.3893C15.3214 12.5841 18.8509 14.8136 20.3077 18.205C20.2314 19.4544 19.1169 20.4306 17.7693 20.4286H4.23081Z" fill="#05526F"/>
</g>
</svg>
