<svg width="164" height="164" viewBox="0 0 164 164" fill="none" xmlns="http://www.w3.org/2000/svg">
<rect width="164" height="164" fill="#2A2A2A"/>
<g id="New phone number">
<g clip-path="url(#clip0_0_1)">
<rect x="-133" y="-200" width="430" height="932" rx="30" fill="#F1F1F1"/>
<g id="Group 1000002227">
<g id="Background">
<path id="Vector" d="M16.6326 118.186C9.80588 111.093 1.0224 101.965 0.0822787 89.7605C-0.962297 76.1966 8.18391 65.3632 13.6301 60.1687C15.4263 58.452 17.458 56.998 19.6644 55.8504C23.8904 53.6573 28.9541 50.1245 32.5295 44.4101C36.9106 37.4073 35.558 32.7202 37.9736 25.9661C44.2205 8.4995 66.7834 2.05892 68.2417 1.66348C85.0482 -2.89414 99.3211 3.16574 106.858 7.61231C109.864 9.38544 112.456 11.7655 114.561 14.543C116.367 16.9267 118.862 19.5833 122.247 21.8433C129.149 26.4542 134.045 25.6072 140.321 27.9187C151.322 31.9711 159.371 43.0775 162.315 53.5237C166.05 66.7732 161.405 78.3644 158.116 84.3636C156.215 87.8257 155.106 91.6636 154.867 95.6028C154.767 97.2665 154.7 99.0896 154.693 101.044C154.654 110.967 156.179 113.244 155.782 117.968C154.614 131.851 139.033 140.875 137.707 141.619C126.102 148.14 114.517 146.472 109.464 145.269C106.952 144.671 104.368 144.418 101.79 144.577C100.027 144.685 98.2747 144.93 96.5497 145.308C88.2983 147.124 85.1416 151.088 79.7818 153.771C69.6773 158.828 55.6669 157.367 45.8125 151.167C38.6818 146.682 34.6836 140.318 32.488 135.42C30.7155 131.464 27.9753 128.023 24.5578 125.344C21.752 123.145 19.1038 120.753 16.6326 118.186Z" fill="#05526F" fill-opacity="0.1"/>
</g>
<g id="Design">
<path id="Vector_2" d="M26.9094 12.1749C26.1716 9.1048 24.166 7.09358 20.6629 6.32769C20.6017 6.31502 20.5463 6.28265 20.5053 6.23557C20.4644 6.18848 20.44 6.12929 20.4361 6.06708C20.4322 6.00488 20.4489 5.94311 20.4836 5.89128C20.5184 5.83945 20.5692 5.80043 20.6284 5.78022C23.8518 4.6738 25.9021 2.81188 26.7795 0.194453C26.8736 -0.0866583 27.273 -0.0542854 27.3322 0.235432C27.9079 3.15965 30.0218 4.89836 33.2497 5.77612C33.3113 5.79387 33.3652 5.83162 33.4028 5.88338C33.4405 5.93514 33.4597 5.99795 33.4574 6.06183C33.4552 6.12571 33.4315 6.18701 33.3903 6.23599C33.3491 6.28497 33.2927 6.31883 33.2299 6.3322C30.1089 6.97679 28.2501 8.99088 27.4663 12.1704C27.3963 12.4617 26.9797 12.4679 26.9094 12.1749Z" fill="#96D7FF"/>
<path id="Vector_3" d="M6.44228 42.8978C5.78757 40.3678 4.10597 38.6947 1.21735 38.028C0.939345 37.9636 0.924541 37.5772 1.19309 37.4813C3.84236 36.5404 5.55097 34.9946 6.31891 32.8438C6.3402 32.7855 6.37989 32.7356 6.43203 32.7017C6.48416 32.6678 6.54593 32.6516 6.60806 32.6556C6.6702 32.6596 6.72935 32.6836 6.77665 32.724C6.82395 32.7643 6.85684 32.8189 6.8704 32.8794C7.39556 35.2763 9.14708 36.7265 11.7984 37.4821C12.0838 37.5641 12.0756 37.9681 11.7861 38.0333C9.22809 38.6098 7.67974 40.2809 6.99583 42.8892C6.92139 43.1732 6.51549 43.1822 6.44228 42.8978Z" fill="#0088F7"/>
<path id="Vector_4" d="M143.551 11.2001C142.896 8.67008 141.214 6.99693 138.328 6.33021C138.05 6.26587 138.035 5.87945 138.304 5.78356C140.953 4.84215 142.661 3.29617 143.429 1.14562C143.451 1.08732 143.49 1.03749 143.542 1.0036C143.595 0.969708 143.656 0.953584 143.719 0.957647C143.781 0.96171 143.84 0.985741 143.887 1.02614C143.934 1.06653 143.967 1.12111 143.981 1.18168C144.506 3.57851 146.257 5.02874 148.909 5.78438C149.195 5.86633 149.186 6.27038 148.896 6.33554C146.339 6.9121 144.79 8.5832 144.106 11.1915C144.03 11.4755 143.624 11.4845 143.551 11.2001Z" fill="#FF99B1"/>
<path id="Vector_5" d="M156.866 50.515C156.211 47.985 154.53 46.3119 151.641 45.6447C151.363 45.5808 151.348 45.194 151.617 45.0981C154.266 44.1572 155.974 42.6114 156.743 40.4606C156.764 40.4023 156.804 40.3524 156.856 40.3185C156.908 40.2846 156.97 40.2685 157.032 40.2726C157.094 40.2767 157.153 40.3007 157.201 40.3411C157.248 40.3815 157.281 40.436 157.294 40.4966C157.819 42.8935 159.571 44.3437 162.222 45.0989C162.508 45.1809 162.5 45.5849 162.21 45.6505C159.652 46.227 158.104 47.8981 157.42 50.5064C157.345 50.7904 156.94 50.799 156.866 50.515Z" fill="#96D7FF"/>
<path id="Vector_6" d="M152.181 163.79C151.527 161.261 149.845 159.587 146.957 158.921C146.679 158.857 146.664 158.47 146.933 158.374C149.582 157.433 151.29 155.887 152.058 153.736C152.079 153.678 152.119 153.628 152.171 153.594C152.224 153.561 152.285 153.544 152.347 153.548C152.41 153.553 152.469 153.577 152.516 153.617C152.563 153.657 152.596 153.712 152.61 153.773C153.135 156.169 154.886 157.62 157.538 158.375C157.823 158.457 157.815 158.861 157.525 158.926C154.968 159.503 153.419 161.174 152.735 163.782C152.661 164.066 152.255 164.075 152.181 163.79Z" fill="#0088F7"/>
<path id="Vector_7" d="M8.41592 150.522C7.76121 147.992 6.07961 146.319 3.19098 145.652C2.91298 145.588 2.89817 145.201 3.16672 145.105C5.81599 144.164 7.5246 142.618 8.29254 140.468C8.31387 140.409 8.3536 140.36 8.40576 140.326C8.45793 140.292 8.51971 140.276 8.58185 140.28C8.64399 140.284 8.70313 140.308 8.7504 140.348C8.79768 140.389 8.83053 140.443 8.84403 140.504C9.36919 142.901 11.1207 144.351 13.772 145.106C14.0574 145.188 14.0492 145.592 13.7597 145.658C11.2017 146.234 9.65337 147.905 8.96946 150.513C8.89502 150.797 8.48912 150.804 8.41592 150.522Z" fill="#FF99B1"/>
<path id="Vector_8" d="M111.986 132.83C111.331 130.3 109.65 128.627 106.763 127.96C106.485 127.896 106.47 127.51 106.739 127.414C109.388 126.473 111.097 124.927 111.865 122.776C111.886 122.718 111.926 122.668 111.978 122.634C112.03 122.6 112.092 122.584 112.154 122.588C112.216 122.592 112.275 122.616 112.323 122.656C112.37 122.697 112.403 122.751 112.416 122.812C112.941 125.209 114.693 126.659 117.344 127.414C117.63 127.496 117.621 127.9 117.332 127.966C114.774 128.542 113.226 130.213 112.542 132.822C112.465 133.106 112.059 133.115 111.986 132.83Z" fill="#96D7FF"/>
</g>
<g id="Group 1000002226">
<rect id="Rectangle 4686" x="33" y="36" width="97.1793" height="97.1793" rx="48.5897" fill="#05526F"/>
<g id="Group 1000002225">
<g id="Group 1000002224">
<path id="Vector_9" d="M96.6462 68.6626H96.3085V59.3753C96.3085 58.6694 96.17 57.9704 95.9009 57.3182C95.6319 56.6661 95.2375 56.0735 94.7403 55.5744C94.2431 55.0752 93.6528 54.6793 93.0032 54.4092C92.3536 54.139 91.6573 54 90.9542 54H71.3543C70.6512 54 69.9549 54.139 69.3053 54.4092C68.6557 54.6793 68.0654 55.0752 67.5683 55.5744C67.0711 56.0735 66.6767 56.6661 66.4076 57.3182C66.1385 57.9704 66 58.6694 66 59.3753V110.326C66 111.752 66.5641 113.119 67.5682 114.127C68.5724 115.135 69.9343 115.702 71.3543 115.702H90.9542C92.3742 115.702 93.7361 115.135 94.7402 114.127C95.7444 113.119 96.3085 111.752 96.3085 110.326V75.2735H96.6462V68.6626Z" fill="#3F3D56"/>
<path id="Vector_10" d="M91.1703 55.3987H88.6119C88.7295 55.6883 88.7745 56.0025 88.7427 56.3136C88.7109 56.6247 88.6034 56.9232 88.4296 57.1827C88.2558 57.4423 88.0212 57.655 87.7462 57.8021C87.4713 57.9491 87.1646 58.0261 86.853 58.0261H75.6245C75.313 58.0261 75.0063 57.9491 74.7313 57.8021C74.4564 57.655 74.2217 57.4423 74.048 57.1827C73.8742 56.9232 73.7667 56.6247 73.7349 56.3136C73.7031 56.0025 73.748 55.6883 73.8657 55.3987H71.4761C70.4156 55.3987 69.3986 55.8216 68.6487 56.5744C67.8988 57.3272 67.4775 58.3482 67.4775 59.4129V110.289C67.4775 110.816 67.581 111.338 67.7819 111.825C67.9829 112.313 68.2774 112.755 68.6487 113.128C69.02 113.501 69.4608 113.796 69.9459 113.998C70.431 114.2 70.951 114.304 71.4761 114.304H91.1703C91.6954 114.304 92.2154 114.2 92.7005 113.998C93.1856 113.796 93.6264 113.501 93.9977 113.128C94.369 112.755 94.6636 112.313 94.8645 111.825C95.0654 111.338 95.1689 110.816 95.1689 110.289V59.4129C95.1689 58.8857 95.0654 58.3637 94.8645 57.8767C94.6636 57.3897 94.369 56.9472 93.9977 56.5744C93.6264 56.2017 93.1856 55.906 92.7005 55.7042C92.2154 55.5025 91.6954 55.3987 91.1703 55.3987Z" fill="white"/>
<path id="Vector_11" d="M88.9697 96.8538H73.9691C73.8195 96.8538 73.6714 96.8242 73.5332 96.7668C73.395 96.7093 73.2694 96.6251 73.1637 96.5189C73.0579 96.4127 72.974 96.2867 72.9168 96.1479C72.8595 96.0092 72.8301 95.8605 72.8301 95.7104C72.8301 95.5602 72.8595 95.4115 72.9168 95.2728C72.974 95.134 73.0579 95.008 73.1637 94.9018C73.2694 94.7956 73.395 94.7114 73.5332 94.6539C73.6714 94.5965 73.8195 94.5669 73.9691 94.5669H88.9697C89.1193 94.5669 89.2674 94.5965 89.4056 94.6539C89.5438 94.7114 89.6693 94.7956 89.7751 94.9018C89.8809 95.008 89.9648 95.134 90.022 95.2728C90.0792 95.4115 90.1087 95.5602 90.1087 95.7104C90.1087 95.8605 90.0792 96.0092 90.022 96.1479C89.9648 96.2867 89.8809 96.4127 89.7751 96.5189C89.6693 96.6251 89.5438 96.7093 89.4056 96.7668C89.2674 96.8242 89.1193 96.8538 88.9697 96.8538Z" fill="#DBDBDB"/>
<path id="Vector_12" d="M88.9697 100.476H73.9691C73.667 100.476 73.3773 100.356 73.1637 100.141C72.9501 99.9268 72.8301 99.6359 72.8301 99.3327C72.8301 99.0294 72.9501 98.7386 73.1637 98.5241C73.3773 98.3097 73.667 98.1892 73.9691 98.1892H88.9697C89.2718 98.1892 89.5615 98.3097 89.7751 98.5241C89.9887 98.7386 90.1087 99.0294 90.1087 99.3327C90.1087 99.6359 89.9887 99.9268 89.7751 100.141C89.5615 100.356 89.2718 100.476 88.9697 100.476Z" fill="#DBDBDB"/>
<path id="Vector_13" d="M85.3184 93.1878H77.6214C77.3193 93.1878 77.0296 93.0673 76.816 92.8529C76.6024 92.6384 76.4824 92.3476 76.4824 92.0443C76.4824 91.7411 76.6024 91.4502 76.816 91.2358C77.0296 91.0213 77.3193 90.9009 77.6214 90.9009H85.3184C85.6205 90.9009 85.9102 91.0213 86.1238 91.2358C86.3374 91.4502 86.4574 91.7411 86.4574 92.0443C86.4574 92.3476 86.3374 92.6384 86.1238 92.8529C85.9102 93.0673 85.6205 93.1878 85.3184 93.1878Z" fill="#DBDBDB"/>
</g>
</g>
</g>
</g>
<g id="key (1) 1" clip-path="url(#clip1_0_1)">
<g id="Group">
<g id="Group_2">
<path id="Vector_14" d="M85.9633 71.0367C84.5811 69.6544 82.3322 69.6545 80.95 71.0367C80.0058 71.9808 79.6779 73.3722 80.0867 74.6345L76.0944 78.6268C76.034 78.6872 76 78.769 76 78.8546V80.6777C76 80.8559 76.1441 81 76.3223 81H78.1454C78.231 81 78.3128 80.966 78.3732 80.9056L78.8289 80.4496C78.8985 80.38 78.9325 80.2825 78.9211 80.1846L78.8645 79.6949L79.543 79.631C79.6972 79.6165 79.819 79.4947 79.8335 79.3405L79.8974 78.662L80.3871 78.7189C80.478 78.7312 80.5696 78.7007 80.6385 78.6396C80.7071 78.5783 80.7465 78.4908 80.7465 78.3989V77.7988H81.3356C81.4212 77.7988 81.5031 77.7649 81.5635 77.7044L82.3899 76.8889C83.6519 77.298 85.0192 76.9948 85.9633 76.05C87.3455 74.6678 87.3455 72.4189 85.9633 71.0367ZM85.0516 73.3155C84.6746 73.6925 84.0615 73.6925 83.6845 73.3155C83.3075 72.9385 83.3075 72.3254 83.6845 71.9484C84.0615 71.5714 84.6746 71.5714 85.0516 71.9484C85.4287 72.3254 85.4286 72.9385 85.0516 73.3155Z" fill="#0088F7"/>
</g>
</g>
</g>
</g>
</g>
<defs>
<clipPath id="clip0_0_1">
<rect x="-133" y="-200" width="430" height="932" rx="30" fill="white"/>
</clipPath>
<clipPath id="clip1_0_1">
<rect width="11" height="11" fill="white" transform="translate(76 70)"/>
</clipPath>
</defs>
</svg>
