<svg width="11" height="13" viewBox="0 0 11 13" fill="none" xmlns="http://www.w3.org/2000/svg">
<path d="M9.66667 5.33333C9.66667 7.72642 5.33333 11.8333 5.33333 11.8333C5.33333 11.8333 1 7.72642 1 5.33333C1 4.18406 1.45655 3.08186 2.2692 2.2692C3.08186 1.45655 4.18406 1 5.33333 1C6.48261 1 7.58481 1.45655 8.39746 2.2692C9.21012 3.08186 9.66667 4.18406 9.66667 5.33333V5.33333Z" stroke="#767879"/>
<path d="M5.33359 5.76661C5.50598 5.76661 5.67131 5.69813 5.79321 5.57623C5.91511 5.45433 5.98359 5.289 5.98359 5.11661C5.98359 4.94422 5.91511 4.77889 5.79321 4.65699C5.67131 4.5351 5.50598 4.46661 5.33359 4.46661C5.1612 4.46661 4.99587 4.5351 4.87397 4.65699C4.75208 4.77889 4.68359 4.94422 4.68359 5.11661C4.68359 5.289 4.75208 5.45433 4.87397 5.57623C4.99587 5.69813 5.1612 5.76661 5.33359 5.76661V5.76661Z" fill="#05526F" stroke="#767879" stroke-linecap="round" stroke-linejoin="round"/>
</svg>
