<?xml version="1.0" standalone="no"?>
<!DOCTYPE svg PUBLIC "-//W3C//DTD SVG 20010904//EN"
 "http://www.w3.org/TR/2001/REC-SVG-20010904/DTD/svg10.dtd">
<svg version="1.0" xmlns="http://www.w3.org/2000/svg"
 width="480.000000pt" height="480.000000pt" viewBox="0 0 480.000000 480.000000"
 preserveAspectRatio="xMidYMid meet">
<metadata>
Created by potrace 1.14, written by Peter Selinger 2001-2017
</metadata>
<g transform="translate(0.000000,480.000000) scale(0.100000,-0.100000)"
fill="#000000" stroke="none">
<path d="M2386 4098 c-7 -46 -26 -156 -81 -451 -19 -104 -35 -202 -35 -218 0
-36 -14 -44 -126 -64 -93 -18 -261 -67 -304 -91 -61 -32 -226 -108 -231 -107
-4 1 -25 -13 -47 -32 -22 -19 -44 -35 -49 -35 -5 0 -16 -9 -26 -20 -16 -19
-15 -21 21 -55 56 -52 88 -63 124 -42 16 9 36 17 43 17 7 0 15 7 18 14 15 38
399 185 450 172 9 -2 17 0 17 5 0 5 10 9 23 9 18 0 229 27 233 29 5 4 4 848
-2 876 -9 47 -20 44 -28 -7z"/>
<path d="M790 3472 c0 -11 28 -52 58 -84 14 -16 23 -28 20 -28 -3 0 21 -28 53
-61 32 -34 56 -66 52 -72 -3 -6 -1 -7 5 -3 7 4 12 3 12 -1 0 -5 17 -27 38 -49
22 -21 73 -82 114 -134 42 -52 87 -106 102 -119 14 -14 26 -31 26 -38 0 -8
-17 -37 -38 -66 -96 -132 -212 -332 -212 -366 0 -7 -9 -37 -21 -69 -28 -78
-59 -204 -66 -274 -7 -66 5 -59 -138 -83 -49 -8 -166 -28 -260 -45 -93 -17
-216 -38 -273 -47 -205 -34 -117 -44 370 -43 213 0 401 3 417 6 27 6 31 11 36
53 34 264 65 378 153 561 54 112 122 210 215 310 32 34 56 67 54 73 -2 7 -50
49 -108 95 -133 106 -221 178 -254 208 -14 13 -27 22 -29 21 -5 -3 -166 137
-166 145 0 5 -5 8 -11 8 -6 0 -39 25 -74 55 -61 54 -75 63 -75 47z"/>
<path d="M2220 3455 c-9 -11 -10 -19 -3 -26 7 -7 14 -5 23 6 9 11 10 19 3 26
-7 7 -14 5 -23 -6z"/>
<path d="M2915 3301 c-3 -6 5 -19 17 -31 29 -27 194 -124 232 -137 41 -13 43
-28 7 -49 -43 -25 -40 -51 5 -60 90 -17 223 18 330 86 26 16 67 32 93 35 115
15 125 24 64 52 -29 13 -66 17 -150 18 -61 0 -109 -3 -106 -7 6 -11 -112 -10
-186 3 -62 10 -184 48 -263 83 -21 9 -39 12 -43 7z"/>
<path d="M2525 2779 c-27 -5 -151 -28 -275 -50 -124 -22 -265 -51 -315 -65
-83 -24 -141 -56 -130 -74 3 -5 -18 -56 -45 -115 -51 -110 -60 -145 -37 -145
8 0 42 9 77 21 35 11 95 27 134 34 174 34 364 74 396 84 19 5 85 17 145 26 61
9 117 18 125 20 8 2 94 13 191 24 244 28 238 25 148 94 -41 31 -94 73 -118 92
-74 59 -170 77 -296 54z"/>
<path d="M3535 2559 c-33 -4 -157 -18 -275 -29 -345 -35 -370 -37 -475 -54
-55 -9 -156 -27 -225 -41 -69 -13 -210 -41 -315 -61 -104 -20 -236 -47 -292
-60 -56 -14 -105 -24 -110 -23 -4 1 -15 0 -23 -3 -8 -3 -75 -20 -149 -38 -76
-18 -150 -42 -171 -55 -37 -24 -102 -110 -106 -143 -2 -9 -9 -21 -16 -27 -8
-5 -20 -24 -27 -42 -7 -17 -21 -39 -32 -49 -38 -34 -14 -55 55 -45 17 2 30 11
33 22 3 11 9 19 14 19 5 0 47 38 93 84 81 80 88 85 153 99 94 21 746 126 903
146 41 5 165 21 275 35 488 62 683 81 992 99 l72 4 -32 -44 c-18 -25 -41 -62
-52 -83 -11 -20 -26 -35 -32 -33 -8 3 -13 -4 -13 -16 0 -11 -7 -39 -16 -61
-28 -69 1 -116 43 -71 10 10 35 26 55 34 51 21 144 101 373 321 22 21 57 45
78 53 21 9 36 21 34 27 -2 6 -26 17 -53 25 -38 11 -124 15 -374 16 -179 1
-352 -2 -385 -6z"/>
<path d="M2335 2441 c-3 -6 4 -8 16 -6 30 6 37 15 11 15 -11 0 -23 -4 -27 -9z"/>
<path d="M4302 2065 c-96 -60 -286 -128 -492 -175 -124 -29 -414 -37 -740 -20
-129 6 -388 14 -575 17 -290 5 -382 2 -625 -16 -157 -12 -301 -26 -320 -31
-19 -5 -93 -21 -165 -35 -345 -70 -594 -147 -764 -237 -64 -33 -123 -67 -131
-73 -8 -7 -37 -24 -65 -37 -50 -23 -61 -41 -28 -46 10 -1 76 19 148 44 261 92
531 147 850 174 72 6 144 13 160 16 103 18 1124 27 1176 10 8 -3 43 -7 78 -11
36 -3 67 -8 71 -10 7 -4 66 -13 165 -25 39 -5 84 -11 100 -15 66 -14 492 -18
591 -6 107 14 213 40 261 65 17 8 33 12 37 9 3 -4 6 -1 6 5 0 6 11 17 24 24
36 19 182 164 228 226 22 30 52 79 66 110 15 31 28 60 30 65 9 17 -37 2 -86
-28z"/>
<path d="M1510 1590 c-13 -8 -12 -10 3 -10 9 0 17 5 17 10 0 12 -1 12 -20 0z"/>
<path d="M1548 1583 c7 -3 16 -2 19 1 4 3 -2 6 -13 5 -11 0 -14 -3 -6 -6z"/>
<path d="M1789 1560 c-199 -15 -367 -45 -535 -96 -126 -38 -214 -79 -214 -99
0 -16 25 -13 67 8 67 35 375 65 628 61 213 -2 333 -13 531 -44 99 -16 234 -36
300 -45 65 -8 146 -20 179 -25 77 -14 450 -38 537 -34 213 7 467 51 487 83 4
5 29 18 56 28 37 14 50 24 50 38 0 19 -11 20 -425 26 -303 4 -462 11 -555 23
-71 9 -152 19 -180 22 -27 3 -82 12 -122 20 -188 39 -533 54 -804 34z"/>
</g>
</svg>
