<?xml version="1.0" standalone="no"?>
<!DOCTYPE svg PUBLIC "-//W3C//DTD SVG 20010904//EN"
 "http://www.w3.org/TR/2001/REC-SVG-20010904/DTD/svg10.dtd">
<svg version="1.0" xmlns="http://www.w3.org/2000/svg"
 width="88.000000pt" height="61.000000pt" viewBox="0 0 88.000000 61.000000"
 preserveAspectRatio="xMidYMid meet">

<g transform="translate(0.000000,61.000000) scale(0.100000,-0.100000)"
fill="#000000" stroke="none">
<path d="M445 533 c-12 -88 -12 -88 -73 -107 -31 -9 -68 -25 -81 -35 -36 -27
-9 -35 39 -11 22 11 60 23 85 27 l45 6 0 83 c0 46 -2 84 -4 84 -2 0 -7 -21
-11 -47z"/>
<path d="M150 437 c0 -3 18 -26 40 -53 34 -41 38 -50 26 -64 -22 -24 -46 -76
-54 -117 -8 -36 -10 -38 -67 -49 l-60 -12 75 2 75 1 7 42 c8 48 31 98 61 131
12 13 17 26 11 30 -49 43 -114 93 -114 89z"/>
<path d="M595 404 c11 -8 19 -20 18 -25 -4 -13 31 -11 62 3 34 15 32 29 -5 22
-16 -4 -44 -1 -62 5 -31 10 -32 10 -13 -5z"/>
<path d="M465 313 c-11 -2 -43 -8 -71 -14 -40 -8 -54 -15 -63 -36 -6 -14 -10
-27 -9 -28 2 -2 44 5 93 16 50 10 105 19 123 19 40 0 41 15 2 35 -29 15 -39
16 -75 8z"/>
<path d="M605 263 c-61 -8 -202 -34 -267 -49 -50 -12 -71 -22 -83 -41 -23 -35
-11 -40 23 -11 25 20 53 28 183 46 85 12 189 25 233 29 l79 6 -18 -27 c-10
-15 -15 -29 -12 -33 6 -5 107 73 107 83 0 5 -203 3 -245 -3z"/>
<path d="M795 143 c-32 -13 -84 -17 -270 -18 -183 -1 -245 -5 -305 -19 -75
-18 -136 -43 -75 -31 17 3 41 8 55 11 14 2 105 5 202 7 98 1 178 5 178 8 0 3
36 7 81 8 44 1 91 6 105 11 28 11 31 3 7 -16 -15 -11 -16 -13 -2 -14 8 0 30
16 49 35 37 39 34 41 -25 18z"/>
<path d="M380 51 c58 -4 96 -9 85 -13 -23 -7 -21 -7 145 -12 90 -3 96 -3 40 4
-36 5 -94 13 -130 19 -36 6 -105 10 -155 9 l-90 -2 105 -5z"/>
</g>
</svg>
