<?xml version="1.0" encoding="UTF-8"?>
<svg version="1.1" xmlns="http://www.w3.org/2000/svg" width="88" height="61">
<path d="M0 0 C0.474375 0.53625 0.94875 1.0725 1.4375 1.625 C3.06196735 3.33229183 3.06196735 3.33229183 6.25 3.25 C9.91155149 3.0757643 9.91155149 3.0757643 13.125 2.4375 C18.80519465 1.7961877 24.32704799 2.44550093 30 3 C28.64664405 6.08859947 27.19113751 8.007964 24.625 10.1875 C24.03976563 10.69667969 23.45453125 11.20585938 22.8515625 11.73046875 C20.88975091 13.07559273 19.323911 13.57514402 17 14 C17.33 12.35 17.66 10.7 18 9 C10.90684355 8.81005613 4.1386876 9.34040564 -2.875 10.375 C-4.314198 10.58189453 -4.314198 10.58189453 -5.7824707 10.79296875 C-7.671076 11.06653608 -9.55920392 11.34342475 -11.44677734 11.62402344 C-13.62558137 11.94486473 -15.80549626 12.24695535 -17.98828125 12.5390625 C-19.04402344 12.69117188 -20.09976563 12.84328125 -21.1875 13 C-22.06792969 13.12375 -22.94835937 13.2475 -23.85546875 13.375 C-26.34486941 14.10050839 -27.25775234 15.1366202 -29 17 C-23.11420381 17.07490245 -17.2286932 17.12895322 -11.3425293 17.16479492 C-9.34573525 17.1797576 -7.34897336 17.20013511 -5.35229492 17.22631836 C5.88896986 17.36989575 16.16395319 17.30534522 27 14 C28.33153704 13.65956206 29.66420438 13.32332482 31 13 C29.15819067 17.05198054 27.4218175 20.11284149 24 23 C20.70265354 24.09911549 18.27041255 24.1139456 14.80078125 24.09765625 C13.59228516 24.09443359 12.38378906 24.09121094 11.13867188 24.08789062 C9.2447168 24.07532227 9.2447168 24.07532227 7.3125 24.0625 C5.40114258 24.05573242 5.40114258 24.05573242 3.45117188 24.04882812 C0.30073436 24.03702873 -2.84960949 24.02056597 -6 24 C0.00087244 24.82650905 5.95082054 25.2790899 12 25.5625 C13.30517578 25.62727539 13.30517578 25.62727539 14.63671875 25.69335938 C16.75768219 25.79824218 18.87882433 25.89950075 21 26 C17.27065823 29.8988573 17.27065823 29.8988573 14.17504883 30.14526367 C11.72060017 30.17038901 9.26710481 30.18930105 6.8125 30.1875 C5.46297241 30.1884668 5.46297241 30.1884668 4.08618164 30.18945312 C-2.63641699 30.13693749 -9.02148087 29.46455438 -15.66796875 28.44921875 C-23.52455522 27.39000721 -31.17421203 27.97366715 -39 29 C-36.42595029 25.13892543 -34.38979741 25.05680308 -30 24 C-36.30507268 24.3890364 -41.89966749 25.38704256 -47.87109375 27.4765625 C-50 28 -50 28 -53 27 C-47.32369527 23.07025057 -42.24198884 20.97361491 -35.5390625 19.28515625 C-32.69532673 18.19450403 -32.69532673 18.19450403 -31.7734375 14.98828125 C-31.39058594 13.50908203 -31.39058594 13.50908203 -31 12 C-27.8 9 -27.8 9 -25 9 C-25.061875 8.236875 -25.12375 7.47375 -25.1875 6.6875 C-25 4 -25 4 -23.9375 2.3125 C-17.44648762 -2.08463742 -7.09131982 -3.37681896 0 0 Z " fill="#3D94FA" transform="translate(56,30)"/>
<path d="M0 0 C0.474375 0.53625 0.94875 1.0725 1.4375 1.625 C3.06196735 3.33229183 3.06196735 3.33229183 6.25 3.25 C9.91155149 3.0757643 9.91155149 3.0757643 13.125 2.4375 C18.80519465 1.7961877 24.32704799 2.44550093 30 3 C28.64664405 6.08859947 27.19113751 8.007964 24.625 10.1875 C24.03976563 10.69667969 23.45453125 11.20585938 22.8515625 11.73046875 C20.88975091 13.07559273 19.323911 13.57514402 17 14 C17.33 12.35 17.66 10.7 18 9 C10.90669256 8.81005209 4.13887766 9.341175 -2.875 10.375 C-3.83591553 10.51220459 -4.79683105 10.64940918 -5.78686523 10.79077148 C-8.52589546 11.18543442 -11.26310066 11.59085692 -14 12 C-15.29292969 12.18949219 -16.58585937 12.37898438 -17.91796875 12.57421875 C-22.58646887 13.29914113 -26.64034931 14.12713758 -31 16 C-30.25 13.0625 -30.25 13.0625 -29 10 C-26.875 9.125 -26.875 9.125 -25 9 C-25.061875 8.236875 -25.12375 7.47375 -25.1875 6.6875 C-25 4 -25 4 -23.9375 2.3125 C-17.44648762 -2.08463742 -7.09131982 -3.37681896 0 0 Z " fill="#284660" transform="translate(56,30)"/>
<path d="M0 0 C4.99877567 -0.02483911 9.99751489 -0.04292563 14.99633789 -0.05493164 C16.69458645 -0.05994027 18.39283074 -0.06674906 20.09106445 -0.07543945 C22.54118915 -0.08765773 24.9912565 -0.09326314 27.44140625 -0.09765625 C28.19273331 -0.10281754 28.94406036 -0.10797882 29.71815491 -0.11329651 C34.24941493 -0.11377171 38.52883681 0.25523564 43 1 C43 1.33 43 1.66 43 2 C38.05 2 33.1 2 28 2 C34.00087244 2.82650905 39.95082054 3.2790899 46 3.5625 C46.87011719 3.60568359 47.74023438 3.64886719 48.63671875 3.69335938 C50.75768219 3.79824218 52.87882433 3.89950075 55 4 C51.27065823 7.8988573 51.27065823 7.8988573 48.17504883 8.14526367 C45.72060017 8.17038901 43.26710481 8.18930105 40.8125 8.1875 C39.46297241 8.1884668 39.46297241 8.1884668 38.08618164 8.18945312 C31.36358301 8.13693749 24.97851913 7.46455438 18.33203125 6.44921875 C10.47544478 5.39000721 2.82578797 5.97366715 -5 7 C-2.42595029 3.13892543 -0.38979741 3.05680308 4 2 C2.68 1.34 1.36 0.68 0 0 Z " fill="#55A2FB" transform="translate(22,52)"/>
<path d="M0 0 C0.99 0.33 1.98 0.66 3 1 C3 1.66 3 2.32 3 3 C3.56203125 3.25523438 4.1240625 3.51046875 4.703125 3.7734375 C7.29386482 5.15692781 9.45107845 6.79938583 11.75 8.625 C12.54921875 9.25664062 13.3484375 9.88828125 14.171875 10.5390625 C14.77515625 11.02117188 15.3784375 11.50328125 16 12 C14.84174837 14.42975452 13.72627152 16.35319804 12.0625 18.5 C8.89793571 23.07498808 8.18612163 28.66245267 7 34 C0.73 34 -5.54 34 -12 34 C-12 33.34 -12 32.68 -12 32 C-10.2508503 31.66223316 -8.50063855 31.32996329 -6.75 31 C-5.77546875 30.814375 -4.8009375 30.62875 -3.796875 30.4375 C-1 30 -1 30 3 30 C3.0825 28.824375 3.165 27.64875 3.25 26.4375 C3.62776381 23.19788916 4.37226132 21.05644262 6.125 18.3125 C8.24265032 15.27760007 8.24265032 15.27760007 7.83984375 12.5546875 C6.86295467 9.58312722 5.59094852 8.06165734 3.4375 5.8125 C0 2.19517103 0 2.19517103 0 0 Z " fill="#375C79" transform="translate(12,14)"/>
<path d="M0 0 C1 1 2 2 3 3 C5.60611077 3.72197162 5.60611077 3.72197162 8 4 C8 4.33 8 4.66 8 5 C7.40832031 4.98839844 6.81664062 4.97679687 6.20703125 4.96484375 C1.95441833 4.9162821 -1.82585898 5.14061803 -6 6 C-6.99 5.67 -7.98 5.34 -9 5 C-9 5.66 -9 6.32 -9 7 C-15.75 8.125 -15.75 8.125 -18 7 C-18 7.66 -18 8.32 -18 9 C-19.0828125 8.9071875 -19.0828125 8.9071875 -20.1875 8.8125 C-23.52859947 9.03523996 -25.19685279 10.25750308 -28 12 C-28.66 11.67 -29.32 11.34 -30 11 C-28.35 10.34 -26.7 9.68 -25 9 C-25.061875 8.236875 -25.12375 7.47375 -25.1875 6.6875 C-25 4 -25 4 -23.9375 2.3125 C-17.44648762 -2.08463742 -7.09131982 -3.37681896 0 0 Z " fill="#2E4E69" transform="translate(56,30)"/>
<path d="M0 0 C0.33 0 0.66 0 1 0 C1 6.6 1 13.2 1 20 C-0.546875 20.268125 -2.09375 20.53625 -3.6875 20.8125 C-7.74274449 21.60181416 -10.48219083 22.82723551 -14 25 C-16.25 24.875 -16.25 24.875 -18 24 C-18.33 23.01 -18.66 22.02 -19 21 C-17.44424022 20.15415002 -15.8800388 19.32381601 -14.3125 18.5 C-13.44238281 18.0359375 -12.57226562 17.571875 -11.67578125 17.09375 C-9 16 -9 16 -4 16 C-2.68 10.72 -1.36 5.44 0 0 Z " fill="#496984" transform="translate(45,1)"/>
<path d="M0 0 C1.07314453 0.00322266 2.14628906 0.00644531 3.25195312 0.00976562 C4.37150391 0.01814453 5.49105469 0.02652344 6.64453125 0.03515625 C8.34125977 0.04192383 8.34125977 0.04192383 10.07226562 0.04882812 C12.86724052 0.06062127 15.66210945 0.07707975 18.45703125 0.09765625 C18.45703125 1.08765625 18.45703125 2.07765625 18.45703125 3.09765625 C17.89830322 3.09241943 17.3395752 3.08718262 16.76391602 3.08178711 C14.18246631 3.06073906 11.60103476 3.04790891 9.01953125 3.03515625 C7.70178711 3.02258789 7.70178711 3.02258789 6.35742188 3.00976562 C0.63920048 2.98866518 -4.8709769 3.36485568 -10.54296875 4.09765625 C-7.59656532 -0.32194889 -4.97797173 -0.02633847 0 0 Z " fill="#348DFB" transform="translate(27.54296875,54.90234375)"/>
<path d="M0 0 C7.26 0 14.52 0 22 0 C19 3 19 3 16.9152832 3.34057617 C16.13499756 3.32486572 15.35471191 3.30915527 14.55078125 3.29296875 C13.70322266 3.28330078 12.85566406 3.27363281 11.98242188 3.26367188 C11.10134766 3.23853516 10.22027344 3.21339844 9.3125 3.1875 C8.41982422 3.17396484 7.52714844 3.16042969 6.60742188 3.14648438 C4.40433834 3.11114079 2.20247418 3.06180493 0 3 C0 2.01 0 1.02 0 0 Z " fill="#4198FD" transform="translate(55,56)"/>
<path d="M0 0 C2.0836309 0.14151828 4.16689938 0.28837936 6.25 0.4375 C7.99023438 0.55931641 7.99023438 0.55931641 9.765625 0.68359375 C12.30977376 0.93247787 14.55953248 1.28114942 17 2 C17 2.66 17 3.32 17 4 C15.5882217 4.53394179 14.17029756 5.05165104 12.75 5.5625 C11.96109375 5.85253906 11.1721875 6.14257812 10.359375 6.44140625 C7.75730931 7.05745823 6.47417823 6.95402635 4 6 C1.75 4.0625 1.75 4.0625 0 2 C0 1.34 0 0.68 0 0 Z " fill="#597C9A" transform="translate(56,18)"/>
<path d="M0 0 C4.99877567 -0.02483911 9.99751489 -0.04292563 14.99633789 -0.05493164 C16.69458645 -0.05994027 18.39283074 -0.06674906 20.09106445 -0.07543945 C22.54118915 -0.08765773 24.9912565 -0.09326314 27.44140625 -0.09765625 C28.19273331 -0.10281754 28.94406036 -0.10797882 29.71815491 -0.11329651 C34.24941493 -0.11377171 38.52883681 0.25523564 43 1 C43 1.33 43 1.66 43 2 C41.99098633 1.99476318 40.98197266 1.98952637 39.94238281 1.98413086 C36.19271738 1.96600738 32.44305582 1.95454112 28.69335938 1.94506836 C27.07160796 1.94004495 25.44986105 1.93322506 23.828125 1.92456055 C21.49478031 1.91240771 19.1614956 1.90675172 16.828125 1.90234375 C16.10506165 1.89718246 15.38199829 1.89202118 14.63702393 1.88670349 C11.23990786 1.88632638 8.27583457 2.15252277 5 3 C2.25 2.0625 2.25 2.0625 0 1 C0 0.67 0 0.34 0 0 Z " fill="#A5DCFF" transform="translate(22,52)"/>
<path d="M0 0 C0.33 0 0.66 0 1 0 C1 6.6 1 13.2 1 20 C-1.31 20 -3.62 20 -6 20 C-6 19.67 -6 19.34 -6 19 C-4.02 19 -2.04 19 0 19 C-0.33 18.01 -0.66 17.02 -1 16 C-1.99 16 -2.98 16 -4 16 C-2.68 10.72 -1.36 5.44 0 0 Z " fill="#44627B" transform="translate(45,1)"/>
<path d="M0 0 C1 3 1 3 0 7 C-6.27 7 -12.54 7 -19 7 C-19 6.34 -19 5.68 -19 5 C-13.555 4.505 -13.555 4.505 -8 4 C-8 4.66 -8 5.32 -8 6 C-5.69 6 -3.38 6 -1 6 C-1.020625 5.195625 -1.04125 4.39125 -1.0625 3.5625 C-1 1 -1 1 0 0 Z " fill="#456E8F" transform="translate(19,41)"/>
<path d="M0 0 C0.33 0.66 0.66 1.32 1 2 C0.67 2.99 0.34 3.98 0 5 C1.65 5 3.3 5 5 5 C5 5.66 5 6.32 5 7 C4.278125 6.938125 3.55625 6.87625 2.8125 6.8125 C-0.52859947 7.03523996 -2.19685279 8.25750308 -5 10 C-5.66 9.67 -6.32 9.34 -7 9 C-5.35 8.34 -3.7 7.68 -2 7 C-2.04125 6.21625 -2.0825 5.4325 -2.125 4.625 C-2 2 -2 2 0 0 Z " fill="#7C9FB6" transform="translate(33,32)"/>
<path d="M0 0 C2.97 0 5.94 0 9 0 C9.33 0.99 9.66 1.98 10 3 C7.23749964 4.38125018 5.05268901 4.19079306 2 4 C1.34 3.34 0.68 2.68 0 2 C0 1.34 0 0.68 0 0 Z " fill="#04203C" transform="translate(46,30)"/>
<path d="M0 0 C-2.88628401 1.57554035 -5.53342384 2.46276373 -8.75 3.125 C-9.54921875 3.29257812 -10.3484375 3.46015625 -11.171875 3.6328125 C-11.77515625 3.75398438 -12.3784375 3.87515625 -13 4 C-8.55325632 -0.76436823 -6.23131511 -3.11565756 0 0 Z " fill="#6AB2FD" transform="translate(16,54)"/>
<path d="M0 0 C1.10844919 3.32534757 0.84454356 5.62182575 0 9 C-2.31 9 -4.62 9 -7 9 C-7 8.34 -7 7.68 -7 7 C-5.35 7 -3.7 7 -2 7 C-2.04125 6.21625 -2.0825 5.4325 -2.125 4.625 C-2 2 -2 2 0 0 Z " fill="#011833" transform="translate(18,38)"/>
<path d="M0 0 C0 0.66 0 1.32 0 2 C-3.82989106 3.80230168 -6.78121808 4.19622241 -11 4 C-11 3.01 -11 2.02 -11 1 C-7.26513121 0.4254048 -3.78706732 0 0 0 Z " fill="#325171" transform="translate(73,20)"/>
<path d="M0 0 C0.99 0.33 1.98 0.66 3 1 C3 1.66 3 2.32 3 3 C3.598125 3.268125 4.19625 3.53625 4.8125 3.8125 C6.97224808 4.98493467 8.35790256 6.19369282 10 8 C8.68 8.33 7.36 8.66 6 9 C4.99406757 7.8803014 3.9954151 6.7540588 3 5.625 C2.443125 4.99851562 1.88625 4.37203125 1.3125 3.7265625 C0 2 0 2 0 0 Z " fill="#576A88" transform="translate(12,14)"/>
<path d="M0 0 C0.556875 0.474375 1.11375 0.94875 1.6875 1.4375 C4.18346074 3.12395996 6.0446237 3.58953107 9 4 C9 4.33 9 4.66 9 5 C8.40832031 4.98839844 7.81664062 4.97679687 7.20703125 4.96484375 C2.99768215 4.91677614 -0.8922333 4.93993117 -5 6 C-4.175 5.38125 -3.35 4.7625 -2.5 4.125 C-1.2625 3.073125 -1.2625 3.073125 0 2 C0 1.34 0 0.68 0 0 Z " fill="#6E8EA4" transform="translate(55,30)"/>
<path d="M0 0 C-0.99 0.33 -1.98 0.66 -3 1 C-1.68 1.66 -0.36 2.32 1 3 C-2.3 3 -5.6 3 -9 3 C-6.27596221 -1.08605669 -4.4643819 -1.38549783 0 0 Z " fill="#4CA0FD" transform="translate(21,51)"/>
<path d="M0 0 C1.9453125 -0.29296875 1.9453125 -0.29296875 4.125 -0.1875 C5.40375 -0.125625 6.6825 -0.06375 8 0 C8 0.66 8 1.32 8 2 C4.7 2.33 1.4 2.66 -2 3 C-1.34 2.01 -0.68 1.02 0 0 Z " fill="#04203C" transform="translate(38,38)"/>
<path d="M0 0 C1.32 0.33 2.64 0.66 4 1 C4 1.99 4 2.98 4 4 C4.99 4.33 5.98 4.66 7 5 C6.67 5.99 6.34 6.98 6 8 C1.3125 4.38671875 1.3125 4.38671875 0 3 C0 2.01 0 1.02 0 0 Z " fill="#0B2139" transform="translate(19,21)"/>
<path d="M0 0 C0.33 1.32 0.66 2.64 1 4 C-1.64 4.33 -4.28 4.66 -7 5 C-6.67 4.01 -6.34 3.02 -6 2 C-2.9375 0.8125 -2.9375 0.8125 0 0 Z " fill="#031C38" transform="translate(44,16)"/>
<path d="M0 0 C4.29 0 8.58 0 13 0 C9 3 9 3 6.5 2.8125 C4 2 4 2 0 0 Z " fill="#84BEFD" transform="translate(22,52)"/>
<path d="M0 0 C0 0.66 0 1.32 0 2 C-4.455 2.495 -4.455 2.495 -9 3 C-6.27596221 -1.08605669 -4.4643819 -1.38549783 0 0 Z " fill="#84C0FA" transform="translate(26,56)"/>
<path d="M0 0 C1.5625 1.25 1.5625 1.25 3 3 C2.6875 5.1875 2.6875 5.1875 2 7 C1.67 6.01 1.34 5.02 1 4 C0.34 4 -0.32 4 -1 4 C-1.33 4.99 -1.66 5.98 -2 7 C-2.33 6.34 -2.66 5.68 -3 5 C-1.5625 2.375 -1.5625 2.375 0 0 Z " fill="#325E78" transform="translate(20,29)"/>
<path d="M0 0 C0.66 1.32 1.32 2.64 2 4 C0.68 4.33 -0.64 4.66 -2 5 C-2.66 3.68 -3.32 2.36 -4 1 C-2 0 -2 0 0 0 Z " fill="#60819A" transform="translate(30,21)"/>
<path d="M0 0 C-0.33 0.66 -0.66 1.32 -1 2 C-1.66 2 -2.32 2 -3 2 C-3 2.66 -3 3.32 -3 4 C-3.99 3.67 -4.98 3.34 -6 3 C-6 2.01 -6 1.02 -6 0 C-3.50907189 -1.24546405 -2.58919267 -0.7767578 0 0 Z " fill="#133450" transform="translate(36,20)"/>
</svg>
