<?xml version="1.0" standalone="no"?>
<!DOCTYPE svg PUBLIC "-//W3C//DTD SVG 20010904//EN"
 "http://www.w3.org/TR/2001/REC-SVG-20010904/DTD/svg10.dtd">
<svg version="1.0" xmlns="http://www.w3.org/2000/svg"
 width="645.000000pt" height="1398.000000pt" viewBox="0 0 645.000000 1398.000000"
 preserveAspectRatio="xMidYMid meet">

<g transform="translate(0.000000,1398.000000) scale(0.100000,-0.100000)"
fill="#000000" stroke="none">
<path d="M0 9016 c0 -4780 1 -4964 18 -4968 13 -4 22 -22 31 -62 7 -32 10 -60
7 -63 -6 -6 23 -32 37 -33 4 0 7 7 7 15 0 8 5 15 11 15 5 0 7 -5 3 -11 -3 -6
5 -3 19 6 22 14 27 27 33 76 4 32 12 64 20 70 7 6 11 16 8 23 -3 7 2 13 10 13
8 0 18 -7 20 -14 3 -8 10 -11 16 -8 5 3 10 2 10 -4 0 -5 -4 -12 -9 -16 -6 -3
-9 -14 -8 -24 1 -17 3 -17 34 2 32 19 35 19 47 2 8 -11 21 -16 33 -13 13 4 25
-1 34 -13 14 -19 39 -26 39 -11 0 5 -9 17 -20 27 -11 10 -17 22 -14 26 8 13
44 -9 44 -28 0 -11 7 -14 26 -10 20 3 24 1 19 -12 -4 -9 -9 -28 -12 -42 -3
-15 -15 -32 -27 -37 -11 -6 -16 -11 -9 -11 7 -1 10 -8 6 -18 -5 -12 -3 -14 7
-8 9 5 11 4 6 -4 -4 -6 -12 -9 -17 -5 -18 11 -67 -7 -72 -27 -3 -10 -1 -22 4
-25 5 -3 7 -9 4 -14 -7 -11 19 -75 34 -84 7 -4 9 -1 5 8 -6 15 6 15 40 1 15
-6 23 -3 34 13 14 22 42 20 42 -4 0 -8 6 -11 15 -7 14 5 14 2 3 -23 -7 -16
-17 -32 -23 -36 -6 -5 -5 -8 3 -8 8 0 11 -10 7 -30 -3 -17 0 -40 6 -51 6 -11
8 -23 5 -26 -9 -9 -57 7 -51 17 10 15 0 12 -24 -9 -23 -20 -15 -36 14 -25 13
5 15 1 12 -28 -4 -44 -13 -58 -37 -53 -10 2 -24 -2 -30 -10 -9 -10 -6 -15 10
-20 12 -4 26 -2 33 3 8 7 20 6 37 -3 14 -8 33 -14 43 -15 19 0 20 -2 8 -51 -7
-33 -6 -37 21 -55 15 -10 34 -31 41 -47 13 -30 28 -34 47 -12 7 8 16 12 21 9
5 -3 15 1 23 8 12 11 11 18 -4 48 -10 20 -18 57 -18 83 0 43 2 47 24 47 32 0
40 22 19 53 -16 24 -15 26 4 37 12 6 21 18 21 28 0 13 2 14 9 4 7 -11 9 -11
14 2 4 9 2 16 -3 16 -6 0 -10 5 -10 10 0 6 7 10 15 10 8 0 15 7 15 15 0 8 4
15 10 15 16 0 21 62 10 120 -6 30 -11 64 -11 75 1 11 1 30 1 43 0 12 5 22 10
22 6 0 10 6 10 13 0 7 9 18 20 25 22 13 83 126 73 136 -3 3 15 26 41 51 40 40
49 44 67 35 11 -7 28 -9 37 -5 9 3 13 3 10 -1 -11 -11 15 -31 34 -26 21 5 26
-24 6 -31 -7 -2 -10 -7 -7 -11 3 -4 18 -2 32 3 28 11 41 1 42 -29 0 -15 23
-17 60 -5 15 4 35 -5 73 -36 41 -34 52 -49 53 -73 1 -35 8 -78 13 -84 3 -2 13
1 25 7 17 9 22 8 31 -9 6 -11 15 -20 21 -20 17 0 36 -24 31 -39 -3 -8 0 -11 5
-8 5 3 9 -2 10 -11 0 -9 4 -43 8 -75 6 -43 5 -57 -5 -57 -8 0 -10 8 -6 24 3
14 2 27 -2 30 -15 9 -12 -66 3 -97 14 -28 13 -29 -19 -42 -32 -14 -33 -16 -29
-62 3 -26 6 -57 6 -68 2 -21 37 -35 37 -15 0 6 8 9 18 6 13 -5 21 1 29 21 7
16 11 20 10 9 -1 -10 8 -25 21 -33 20 -14 22 -14 22 3 1 18 1 18 11 2 5 -10
19 -18 30 -18 11 0 17 5 14 10 -8 14 8 13 22 -1 7 -7 19 -8 30 -3 21 9 30 11
59 13 17 1 22 7 20 25 0 13 -4 22 -8 20 -4 -2 -8 6 -10 18 -2 13 -9 24 -15 24
-7 1 -20 2 -28 3 -8 0 -15 8 -15 16 0 16 15 21 23 8 2 -5 2 -2 0 6 -2 7 19 35
47 62 43 42 57 49 89 49 22 0 41 5 43 12 3 8 12 9 36 0 41 -14 65 -6 56 20 -3
10 0 25 6 33 6 8 8 20 4 26 -4 8 -3 9 4 5 7 -4 12 -1 12 6 0 8 9 32 20 53 11
22 18 45 16 51 -2 6 -1 15 4 20 5 5 3 31 -5 59 -7 28 -14 55 -16 60 -6 24 14
65 33 65 19 0 62 36 69 58 2 7 23 14 47 16 35 4 44 1 50 -14 7 -19 9 -20 40
-20 27 0 57 -62 43 -89 -10 -17 -8 -24 9 -38 20 -18 29 -50 10 -38 -6 4 -1
-10 11 -31 14 -26 19 -47 15 -68 -10 -55 -13 -71 -16 -81 -5 -21 1 -33 19 -38
14 -3 23 4 35 29 19 40 38 43 59 10 15 -22 15 -25 1 -30 -24 -9 -10 -31 17
-28 13 2 33 12 45 23 20 19 21 19 44 -6 17 -18 27 -22 36 -14 9 7 18 2 33 -17
12 -15 21 -31 21 -36 0 -14 22 -33 43 -36 10 -2 27 8 39 23 13 16 24 23 32 17
6 -4 22 -7 35 -6 25 1 70 -39 71 -63 0 -12 24 -17 62 -14 13 2 16 -3 12 -14
-4 -9 0 -21 9 -28 10 -8 15 -25 13 -47 -1 -19 1 -42 5 -50 4 -8 12 -27 19 -42
7 -15 21 -30 31 -33 10 -4 18 -9 18 -13 -5 -31 5 -49 32 -61 18 -8 28 -19 25
-26 -3 -8 3 -19 12 -27 13 -11 14 -11 7 1 -6 11 -4 13 11 7 34 -13 39 -11 37
11 -2 13 3 23 10 24 6 0 -1 5 -18 10 -19 5 -31 5 -36 -2 -3 -6 -9 -2 -12 10
-3 12 -1 21 4 21 5 0 9 8 9 19 0 12 9 20 25 23 27 6 34 -6 10 -16 -27 -10 -16
-34 25 -50 50 -20 51 -20 43 1 -4 10 -2 14 5 9 6 -4 8 -21 5 -44 -6 -37 -6
-37 14 -19 21 18 21 48 0 75 -6 8 -6 12 1 12 6 0 12 -6 15 -12 6 -15 30 13 68
81 20 34 32 46 50 46 13 0 34 6 46 13 12 6 33 12 47 12 19 0 27 7 32 24 8 35
52 38 113 8 53 -26 80 -24 88 8 3 11 13 20 23 20 23 0 44 26 36 45 -7 20 19
61 44 68 14 3 17 1 13 -11 -4 -10 -2 -13 5 -8 8 5 10 2 6 -9 -4 -9 -18 -21
-33 -27 -25 -10 -25 -11 -6 -18 23 -10 65 -13 65 -4 0 3 -5 15 -11 26 -9 16
-8 19 2 13 9 -6 11 -2 7 13 -4 12 -3 22 1 22 22 0 106 -101 94 -113 -3 -4 0
-14 7 -22 7 -9 14 -44 15 -79 1 -64 19 -106 54 -133 9 -6 13 -15 9 -19 -4 -4
2 -22 13 -41 l21 -34 -21 -15 c-13 -9 -21 -26 -21 -43 0 -15 -6 -33 -12 -40
-11 -10 -9 -16 9 -30 15 -13 23 -32 25 -62 2 -30 8 -44 18 -45 30 -2 35 -6 17
-12 -16 -7 -16 -9 -2 -27 12 -16 14 -17 9 -2 -3 9 -1 17 5 17 6 0 11 -8 12
-17 0 -15 2 -15 9 2 7 17 9 17 9 3 1 -11 6 -15 15 -12 8 3 16 -2 19 -13 4 -14
5 -14 6 5 1 20 11 27 34 23 4 0 7 6 7 14 0 8 -5 15 -11 15 -5 0 -7 5 -4 10 10
16 35 -15 35 -43 0 -14 -6 -28 -13 -30 -9 -4 -9 -8 3 -16 18 -12 33 -4 26 15
-9 23 8 16 19 -8 12 -27 44 -32 67 -11 14 12 15 20 6 37 -6 11 -17 25 -24 29
-20 12 -17 24 7 30 21 6 21 10 15 80 -3 40 -3 76 0 80 11 10 11 57 1 57 -4 0
-5 5 -2 10 4 6 1 18 -6 26 -6 8 -8 18 -4 22 4 4 10 1 12 -6 6 -16 33 3 33 24
0 7 6 11 14 8 8 -3 17 -1 20 5 4 6 20 8 37 4 28 -5 30 -4 24 20 -5 16 0 35 12
53 10 16 17 31 16 34 -2 3 2 6 7 6 6 1 12 3 15 4 15 7 65 4 65 -5 0 -5 5 -3
10 5 5 8 10 11 10 7 0 -4 9 -3 20 3 16 8 20 8 20 -4 0 -14 6 -15 102 -2 10 1
21 5 24 9 4 4 14 7 22 7 12 0 12 -4 -3 -20 -10 -11 -13 -20 -8 -20 6 0 14 -11
17 -25 5 -19 13 -25 33 -25 15 0 36 -9 48 -20 12 -11 36 -22 53 -23 34 -2 41
-11 16 -21 -8 -3 -13 -10 -9 -15 3 -6 12 -8 19 -5 7 3 19 -2 26 -11 7 -8 19
-15 27 -15 7 0 16 -7 19 -15 4 -8 12 -15 20 -15 8 0 14 -4 14 -10 0 -5 7 -7
15 -4 9 4 18 -1 22 -11 6 -17 7 -17 19 -1 7 10 18 16 26 15 7 -1 21 -1 32 0
15 1 16 4 6 16 -7 8 -9 15 -4 15 5 0 3 4 -5 9 -16 10 -6 31 15 31 8 0 14 9 14
19 0 11 4 23 10 26 6 3 10 1 10 -4 0 -6 7 -11 16 -11 11 0 14 6 8 23 -4 12
-10 24 -13 27 -4 3 -7 23 -7 45 1 32 6 42 24 50 15 6 21 16 18 27 -5 22 13 35
24 17 7 -10 17 -7 48 15 39 26 59 61 42 71 -4 3 -6 14 -3 25 4 14 1 20 -7 18
-7 -2 -15 3 -17 9 -7 19 27 29 38 12 8 -12 10 -12 8 1 -4 40 2 49 36 56 19 3
35 12 35 19 0 18 43 26 105 21 48 -4 57 -10 69 -48 3 -9 20 -19 44 -23 37 -6
92 -45 92 -65 0 -6 7 -10 15 -10 8 0 15 5 15 11 0 8 4 8 15 -1 8 -6 19 -9 25
-5 6 4 20 -1 31 -11 18 -16 19 -16 19 4 0 11 -6 22 -12 25 -7 2 7 4 32 4 62 1
90 -25 83 -76 -3 -27 -2 -32 6 -21 9 12 11 9 12 -15 3 -47 22 -105 34 -105 4
0 3 4 0 10 -3 5 -2 10 4 10 19 0 21 -19 2 -25 -12 -4 -17 -12 -14 -24 3 -13
-6 -26 -27 -41 -26 -18 -31 -28 -28 -52 4 -24 1 -29 -21 -34 -50 -12 -99 -94
-56 -94 8 0 14 -9 13 -22 -2 -48 2 -57 20 -52 16 5 16 5 -1 -6 -9 -6 -21 -9
-26 -5 -5 3 -12 1 -16 -5 -3 -6 3 -10 16 -10 18 0 19 -2 9 -15 -7 -8 -19 -15
-26 -15 -20 0 -6 -27 18 -33 13 -4 19 -11 15 -21 -7 -19 14 -26 82 -29 28 -1
51 -5 51 -9 0 -4 7 -5 15 -2 9 4 21 -6 33 -26 26 -42 58 -63 86 -56 16 4 29
-1 41 -14 13 -15 22 -17 36 -10 22 13 42 13 35 1 -10 -16 18 -18 50 -5 23 10
34 10 42 2 7 -7 12 -8 12 -2 0 5 5 2 10 -6 6 -10 10 1967 10 5588 l0 5602
-3225 0 -3225 0 0 -4964z m3570 -3920 c0 -11 -14 -45 -31 -75 -25 -44 -33 -51
-40 -38 -5 9 -16 14 -24 10 -22 -8 -70 26 -56 40 6 6 11 19 11 30 0 10 4 16 8
13 4 -2 26 12 47 33 37 34 42 36 63 23 12 -8 22 -24 22 -36z m-260 -45 c0 -5
-7 -14 -16 -22 -13 -10 -17 -10 -24 1 -5 8 -6 18 -4 22 7 11 44 10 44 -1z m90
-59 c20 3 23 -2 24 -39 1 -43 16 -74 16 -34 0 12 4 19 10 16 22 -14 7 -45 -49
-105 -46 -49 -64 -62 -80 -57 -15 4 -21 0 -22 -11 -1 -30 -18 19 -18 55 -1 21
13 52 43 97 33 50 40 66 29 70 -8 3 -11 11 -8 16 5 8 11 8 20 0 7 -5 23 -9 35
-8z m96 -49 c19 -25 17 -33 -6 -33 -11 0 -20 4 -20 9 0 5 -3 16 -6 25 -8 22
15 20 32 -1z m-2716 -1075 c0 -18 -2 -20 -9 -8 -6 8 -7 18 -5 22 9 14 14 9 14
-14z m-354 -38 c7 0 15 -6 17 -12 4 -10 8 -9 16 2 6 8 11 12 11 8 0 -3 3 -14
7 -24 4 -12 3 -15 -6 -10 -6 4 -17 4 -24 -1 -19 -15 -42 -9 -41 10 1 9 -1 17
-5 17 -3 0 -7 12 -7 28 -2 26 -1 26 9 5 5 -13 16 -23 23 -23z m349 -20 c3 -5
-1 -10 -9 -10 -9 0 -16 5 -16 10 0 6 4 10 9 10 6 0 13 -4 16 -10z m1185 -4 c0
-3 -4 -8 -10 -11 -5 -3 -10 -1 -10 4 0 6 5 11 10 11 6 0 10 -2 10 -4z m-1439
-23 c13 -15 12 -15 -8 -4 -24 12 -29 21 -14 21 5 0 15 -7 22 -17z m60 -21 c-7
-2 -18 1 -23 6 -8 8 -4 9 13 5 13 -4 18 -8 10 -11z m199 -32 c0 -5 -7 -10 -15
-10 -8 0 -15 5 -15 10 0 6 7 10 15 10 8 0 15 -4 15 -10z m-177 -51 c-7 -27
-23 -24 -23 6 0 17 4 23 14 19 8 -3 12 -13 9 -25z m147 -46 c0 -5 -7 -17 -15
-27 -15 -20 -15 -20 -15 0 0 12 3 24 7 27 9 9 23 9 23 0z m-56 -71 c0 -12 -4
-22 -9 -22 -6 0 -10 4 -10 9 0 5 -3 13 -7 17 -14 13 -8 26 9 22 10 -2 17 -12
17 -26z m-120 3 c3 -9 0 -15 -9 -15 -8 0 -15 7 -15 15 0 8 4 15 9 15 5 0 11
-7 15 -15z m966 11 c0 -3 -4 -8 -10 -11 -5 -3 -10 -1 -10 4 0 6 5 11 10 11 6
0 10 -2 10 -4z m-923 -28 c-3 -8 -6 -5 -6 6 -1 11 2 17 5 13 3 -3 4 -12 1 -19z
m4723 6 c0 -17 -22 -14 -28 4 -2 7 3 12 12 12 9 0 16 -7 16 -16z m-3810 -22
c0 -4 -5 -13 -11 -19 -12 -12 -49 -6 -49 7 0 7 10 11 53 19 4 0 7 -3 7 -7z
m14 -23 c-10 -12 -18 -24 -16 -27 2 -4 -1 -8 -7 -10 -6 -2 -11 -1 -11 3 0 13
42 66 48 61 3 -3 -3 -15 -14 -27z m3776 0 c0 -6 -4 -7 -10 -4 -5 3 -10 11 -10
16 0 6 5 7 10 4 6 -3 10 -11 10 -16z m-4622 -16 c0 -21 -2 -23 -10 -9 -5 9 -6
21 -3 26 10 16 13 12 13 -17z m4522 -13 c0 -5 -2 -10 -4 -10 -3 0 -8 5 -11 10
-3 6 -1 10 4 10 6 0 11 -4 11 -10z m-3744 -27 c-10 -10 -19 5 -10 18 6 11 8
11 12 0 2 -7 1 -15 -2 -18z m3304 -9 c0 -12 -6 -15 -24 -10 -12 3 -26 3 -30
-1 -4 -4 -18 -9 -32 -11 -34 -4 -27 20 6 25 13 2 25 5 26 6 2 1 14 3 28 5 18
1 26 -3 26 -14z m70 -34 c0 -5 -7 -10 -16 -10 -8 0 -12 5 -9 10 3 6 10 10 16
10 5 0 9 -4 9 -10z m335 -10 c3 -5 1 -10 -4 -10 -6 0 -11 5 -11 10 0 6 2 10 4
10 3 0 8 -4 11 -10z m-780 -60 c3 -5 1 -10 -4 -10 -6 0 -11 5 -11 10 0 6 2 10
4 10 3 0 8 -4 11 -10z m644 -73 c12 -15 12 -17 -3 -11 -9 3 -16 13 -16 22 0 8
1 13 3 11 1 -2 9 -12 16 -22z m-1889 -8 c0 -5 -4 -9 -10 -9 -5 0 -10 7 -10 16
0 8 5 12 10 9 6 -3 10 -10 10 -16z m1210 11 c0 -5 -2 -10 -4 -10 -3 0 -8 5
-11 10 -3 6 -1 10 4 10 6 0 11 -4 11 -10z m-160 -10 c0 -5 -5 -10 -11 -10 -5
0 -7 5 -4 10 3 6 8 10 11 10 2 0 4 -4 4 -10z m2080 -30 c0 -5 -2 -10 -4 -10
-3 0 -8 5 -11 10 -3 6 -1 10 4 10 6 0 11 -4 11 -10z m-1980 -85 c0 -8 -4 -15
-10 -15 -5 0 -10 7 -10 15 0 8 5 15 10 15 6 0 10 -7 10 -15z m1705 -16 c11
-17 -1 -21 -15 -4 -8 9 -8 15 -2 15 6 0 14 -5 17 -11z m-15 -24 c0 -1 -6 -8
-14 -14 -11 -9 -16 -9 -22 0 -5 8 -3 9 6 4 10 -6 12 -4 7 8 -4 11 -2 14 9 10
7 -3 14 -6 14 -8z m238 0 c20 -7 15 -45 -7 -45 -21 0 -45 23 -34 33 3 4 -3 7
-15 7 -11 0 -23 4 -26 9 -5 8 53 5 82 -4z m-214 -50 c3 -9 0 -15 -9 -15 -8 0
-15 7 -15 15 0 8 4 15 9 15 5 0 11 -7 15 -15z m-1845 -12 c-8 -2 -21 -19 -28
-38 -15 -43 -31 -46 -26 -5 6 43 12 50 43 49 15 -1 20 -3 11 -6z m11 -59 c0
-2 -7 -4 -15 -4 -8 0 -15 4 -15 10 0 5 7 7 15 4 8 -4 15 -8 15 -10z m1834 -53
c-7 -7 -44 31 -38 41 3 4 14 -2 24 -14 10 -13 16 -25 14 -27z m-1864 19 c0 -5
-2 -10 -4 -10 -3 0 -8 5 -11 10 -3 6 -1 10 4 10 6 0 11 -4 11 -10z m134 -26
c3 -8 2 -12 -4 -9 -6 3 -10 10 -10 16 0 14 7 11 14 -7z"/>
<path d="M351 4001 c-8 -6 -9 -11 -3 -15 6 -3 14 -1 17 5 9 14 2 20 -14 10z"/>
<path d="M3 3946 c2 -30 27 -50 27 -22 0 9 -4 16 -9 16 -5 0 -12 8 -15 18 -2
9 -4 4 -3 -12z"/>
<path d="M74 3702 c-19 -18 -54 -18 -54 -1 0 6 -4 7 -10 4 -16 -10 -13 -135 4
-135 7 0 25 -9 39 -20 27 -21 59 -18 50 6 -3 8 -1 14 4 14 19 0 34 50 22 73
-7 12 -8 19 -4 15 5 -4 13 -4 19 2 8 6 12 2 13 -12 4 -51 53 -42 53 10 0 23
-2 24 -45 20 -42 -5 -71 5 -43 14 14 5 2 28 -16 28 -7 0 -21 -8 -32 -18z"/>
<path d="M470 3615 c0 -9 6 -12 15 -9 8 4 12 10 9 15 -8 14 -24 10 -24 -6z"/>
<path d="M2683 3597 c3 -8 3 -18 -1 -21 -3 -4 -6 -15 -7 -26 -2 -27 17 -20 21
8 2 12 5 27 6 33 2 6 -3 14 -11 17 -10 3 -12 0 -8 -11z"/>
<path d="M153 3585 c-3 -9 -3 -18 -1 -21 3 -3 8 4 11 16 6 23 -1 27 -10 5z"/>
<path d="M2925 3530 c10 -11 20 -20 23 -20 3 0 -3 9 -13 20 -10 11 -20 20 -23
20 -3 0 3 -9 13 -20z"/>
<path d="M403 3526 c-7 -8 -17 -16 -23 -18 -6 -2 -8 -11 -5 -21 4 -9 11 -14
16 -11 5 3 6 10 3 16 -4 7 -2 8 5 4 6 -4 14 0 17 8 3 9 11 13 18 9 6 -4 5 1
-3 10 -16 20 -13 20 -28 3z"/>
<path d="M5970 3511 c0 -10 19 -25 25 -20 1 2 -3 10 -11 17 -8 7 -14 8 -14 3z"/>
<path d="M316 3488 c3 -4 -1 -8 -8 -8 -9 0 -9 -3 2 -10 10 -6 11 -10 3 -10 -7
0 -13 -4 -13 -10 0 -15 16 -12 34 6 22 21 20 40 -3 40 -11 0 -17 -4 -15 -8z"/>
<path d="M6006 3445 c4 -8 8 -15 10 -15 2 0 4 7 4 15 0 8 -4 15 -10 15 -5 0
-7 -7 -4 -15z"/>
<path d="M1556 3369 c3 -6 0 -15 -7 -20 -22 -13 5 -33 36 -25 l25 7 -26 24
c-29 27 -39 32 -28 14z"/>
<path d="M4880 3165 c0 -8 -4 -15 -9 -15 -6 0 -8 -10 -6 -21 5 -23 32 -48 53
-49 6 0 12 -4 12 -10 0 -5 8 -10 18 -10 27 0 53 -50 40 -75 -6 -11 -8 -17 -3
-13 9 8 35 -14 28 -25 -2 -4 3 -15 12 -24 15 -15 16 -15 13 3 -2 12 2 18 10
16 8 -1 11 1 8 6 -2 4 0 29 6 56 9 43 8 49 -11 62 -13 10 -21 26 -21 45 0 16
-5 29 -12 29 -7 0 -24 9 -38 20 -31 24 -100 28 -100 5z"/>
<path d="M5110 3018 c0 -8 7 -23 15 -34 14 -19 14 -19 15 2 0 12 -7 27 -15 34
-12 10 -15 10 -15 -2z"/>
<path d="M5851 2989 c-34 -34 -35 -37 -20 -59 9 -13 10 -12 5 3 -4 12 0 17 14
17 11 0 20 -4 20 -9 0 -5 7 -11 15 -14 11 -5 14 4 12 43 -1 28 -5 50 -9 50 -3
0 -20 -14 -37 -31z"/>
<path d="M4958 2903 c-19 -5 -25 -43 -8 -43 6 0 24 -13 39 -29 16 -16 32 -27
35 -24 3 3 11 1 18 -5 9 -7 22 -7 42 2 l30 12 -22 22 c-12 12 -19 22 -14 22 4
1 -4 9 -17 20 -12 11 -27 17 -32 14 -5 -3 -9 0 -9 5 0 11 -29 13 -62 4z"/>
<path d="M4100 2868 c0 -4 4 -8 9 -8 6 0 12 4 15 8 3 5 -1 9 -9 9 -8 0 -15 -4
-15 -9z"/>
<path d="M5130 2840 c0 -5 5 -10 11 -10 5 0 7 5 4 10 -3 6 -8 10 -11 10 -2 0
-4 -4 -4 -10z"/>
<path d="M6126 2815 c-3 -8 -13 -15 -23 -15 -13 0 -6 -11 25 -40 24 -22 47
-40 52 -40 13 0 13 17 -1 26 -6 3 -8 15 -6 26 11 39 -33 78 -47 43z"/>
<path d="M5011 2744 c0 -11 3 -14 6 -6 3 7 2 16 -1 19 -3 4 -6 -2 -5 -13z"/>
<path d="M6410 2720 c13 -69 40 -79 40 -15 0 28 -3 33 -17 28 -12 -5 -15 -2
-11 9 4 8 1 15 -6 15 -9 0 -11 -11 -6 -37z m30 -21 c0 -5 -4 -9 -10 -9 -5 0
-10 7 -10 16 0 8 5 12 10 9 6 -3 10 -10 10 -16z"/>
<path d="M4220 2725 c-15 -19 20 -30 38 -12 12 12 11 15 -7 20 -11 3 -25 -1
-31 -8z"/>
<path d="M6221 2711 c-8 -14 -7 -20 3 -24 8 -3 16 2 19 14 7 26 -10 34 -22 10z"/>
<path d="M4343 2699 c-27 -10 -48 -46 -30 -52 10 -3 31 6 65 29 2 1 0 9 -5 17
-5 10 -14 12 -30 6z"/>
<path d="M5147 2620 c3 -11 12 -20 21 -20 13 0 12 3 -3 20 -10 11 -19 20 -21
20 -1 0 0 -9 3 -20z"/>
<path d="M5084 2584 c5 -17 3 -23 -4 -19 -18 11 -47 -5 -76 -42 l-27 -36 24
-18 c31 -24 52 -24 74 1 15 17 19 17 32 4 9 -8 17 -14 18 -12 1 2 -1 26 -4 55
-4 29 -4 50 1 47 15 -10 8 6 -12 26 -27 27 -33 25 -26 -6z"/>
<path d="M5207 1724 c-3 -3 -3 -12 0 -20 3 -8 -1 -14 -8 -14 -11 0 -11 -3 1
-10 20 -13 27 -12 33 3 5 14 -17 50 -26 41z"/>
<path d="M5916 1653 c-6 -14 -5 -15 5 -6 7 7 10 15 7 18 -3 3 -9 -2 -12 -12z"/>
<path d="M5940 1646 c0 -8 4 -17 9 -20 5 -4 7 3 4 14 -6 23 -13 26 -13 6z"/>
<path d="M5275 1630 c3 -5 14 -10 23 -10 15 0 15 2 2 10 -20 13 -33 13 -25 0z"/>
<path d="M6335 1454 c-5 -28 -2 -39 12 -51 13 -10 15 -16 6 -19 -7 -3 -13 -10
-13 -16 0 -21 41 -67 63 -70 15 -2 21 -9 20 -23 -4 -29 6 -65 17 -65 13 0 13
52 -1 87 -7 19 -7 29 0 31 6 2 11 29 11 59 0 45 -3 54 -15 49 -8 -3 -22 -9
-30 -12 -8 -3 -15 -1 -15 5 0 6 5 10 11 9 24 -6 19 22 -5 28 -14 3 -26 10 -26
15 0 5 -6 9 -14 9 -8 0 -17 -15 -21 -36z m70 -64 c3 -5 1 -10 -4 -10 -6 0 -11
5 -11 10 0 6 2 10 4 10 3 0 8 -4 11 -10z"/>
<path d="M5102 1449 c2 -15 -3 -23 -15 -25 -27 -4 -34 -14 -17 -24 13 -8 13
-10 -1 -10 -9 0 -19 7 -23 15 -17 45 -47 -20 -40 -87 7 -73 -4 -82 -77 -69 -4
1 -9 10 -12 22 -6 22 -29 22 -33 1 -1 -7 0 -8 3 -2 2 5 9 8 14 4 13 -8 11 -21
-3 -22 -47 -3 -87 -10 -97 -16 -19 -12 -12 -24 18 -31 16 -3 37 -15 46 -25 17
-18 17 -19 -4 -15 -27 5 -28 -21 -1 -28 11 -3 20 0 20 6 0 8 4 7 9 -2 7 -11
10 -9 16 8 8 26 25 28 25 1 0 -12 5 -17 13 -14 17 6 41 -21 32 -35 -3 -6 1
-24 10 -41 9 -17 13 -36 9 -43 -4 -7 -4 -9 1 -5 4 4 16 -7 26 -25 9 -17 22
-31 28 -29 20 4 11 -8 -11 -18 -19 -7 -20 -9 -5 -11 26 -2 30 -4 54 -17 18
-10 24 -9 37 4 9 8 16 18 17 22 0 4 2 29 5 56 3 29 0 54 -7 62 -7 8 -12 33
-11 56 2 30 -4 48 -24 71 -15 17 -23 38 -21 49 3 10 1 21 -4 24 -5 3 -7 10 -4
15 4 5 -2 9 -12 9 -14 0 -15 2 -4 9 10 7 11 13 1 31 -11 20 -10 22 4 17 11 -4
16 -2 14 6 -2 6 2 13 7 15 6 1 11 -6 13 -18 2 -11 8 -20 14 -20 6 0 8 9 5 19
-5 19 -4 19 27 0 40 -24 43 -24 48 6 3 15 1 25 -6 25 -6 0 -12 11 -12 25 -3
40 -12 55 -34 55 -11 0 -20 5 -20 10 0 6 -5 10 -11 10 -5 0 -9 -10 -7 -21z m8
-59 c0 -5 -5 -10 -11 -10 -5 0 -7 5 -4 10 3 6 8 10 11 10 2 0 4 -4 4 -10z
m-105 -210 c3 -5 2 -10 -4 -10 -5 0 -13 5 -16 10 -3 6 -2 10 4 10 5 0 13 -4
16 -10z"/>
<path d="M5203 1443 c4 -6 1 -14 -5 -16 -10 -4 -10 -6 0 -6 6 -1 12 -10 12
-20 0 -11 4 -22 9 -26 16 -9 9 54 -7 68 -11 8 -14 8 -9 0z"/>
<path d="M5241 1414 c0 -11 3 -14 6 -6 3 7 2 16 -1 19 -3 4 -6 -2 -5 -13z"/>
<path d="M4815 1390 c3 -5 11 -10 16 -10 6 0 7 5 4 10 -3 6 -11 10 -16 10 -6
0 -7 -4 -4 -10z"/>
<path d="M4857 1383 c-4 -3 -7 -17 -7 -30 0 -14 -4 -21 -10 -18 -5 3 -10 1
-10 -4 0 -15 17 -14 26 1 6 10 13 58 8 58 0 0 -4 -3 -7 -7z"/>
<path d="M4917 1364 c-6 -32 18 -53 39 -33 13 13 11 18 -10 36 l-24 21 -5 -24z"/>
<path d="M4796 1365 c-3 -8 -1 -15 4 -15 6 0 10 7 10 15 0 8 -2 15 -4 15 -2 0
-6 -7 -10 -15z"/>
<path d="M274 1354 c3 -9 6 -18 6 -20 0 -2 4 -4 9 -4 5 0 7 9 4 20 -3 11 -10
20 -15 20 -6 0 -7 -7 -4 -16z"/>
<path d="M4699 1361 c-26 -8 -38 -33 -23 -49 16 -15 19 -46 4 -37 -5 3 -10 1
-10 -6 0 -8 -4 -9 -13 0 -10 8 -14 7 -14 -4 0 -8 5 -15 10 -15 5 0 4 -7 -3
-15 -11 -13 -10 -18 6 -29 10 -8 23 -11 29 -8 6 4 3 8 -6 10 -22 4 -13 42 10
42 14 0 14 -2 1 -10 -8 -5 -11 -12 -7 -16 3 -4 13 -1 21 5 10 8 16 9 21 1 3
-5 2 -10 -3 -10 -12 0 -24 -29 -17 -40 3 -4 14 -6 24 -3 15 4 19 13 17 36 -1
17 -8 33 -14 35 -23 7 -12 24 14 19 18 -3 28 1 32 12 4 9 15 16 25 16 9 0 16
5 15 10 -2 6 -13 9 -25 7 -18 -2 -23 2 -23 21 0 19 -6 26 -28 29 -16 2 -35 2
-43 -1z m51 -57 c0 -8 -5 -12 -10 -9 -6 4 -8 11 -5 16 9 14 15 11 15 -7z"/>
<path d="M2430 1346 c0 -2 7 -9 15 -16 13 -11 14 -10 9 4 -5 14 -24 23 -24 12z"/>
<path d="M330 1333 c0 -6 -3 -18 -6 -27 -3 -9 -2 -16 4 -16 15 0 24 32 12 44
-7 7 -10 7 -10 -1z"/>
<path d="M3767 1333 c-2 -4 -3 -18 -2 -30 1 -13 -2 -23 -7 -23 -4 0 -8 -6 -8
-14 0 -8 -7 -17 -16 -20 -14 -5 -14 -8 -1 -21 9 -8 13 -24 10 -35 -3 -11 0
-20 6 -20 6 0 11 -5 11 -12 0 -6 -8 -4 -19 6 -13 12 -21 14 -26 6 -4 -6 8 -16
27 -24 30 -13 34 -13 39 2 4 9 3 22 -2 28 -5 6 -6 14 -2 17 3 4 6 20 5 37 0
19 3 28 10 24 6 -4 9 -1 6 7 -3 8 1 20 9 27 15 15 18 42 4 42 -5 0 -16 3 -24
6 -8 3 -17 2 -20 -3z m3 -103 c0 -5 -2 -10 -4 -10 -3 0 -8 5 -11 10 -3 6 -1
10 4 10 6 0 11 -4 11 -10z"/>
<path d="M231 1321 c-8 -5 -11 -16 -8 -25 10 -25 27 -19 25 9 -1 14 -3 25 -3
25 0 0 -6 -4 -14 -9z"/>
<path d="M5139 1318 c-1 -7 -1 -19 0 -27 2 -8 -3 -10 -11 -6 -10 6 -10 5 -2
-4 8 -9 17 -8 38 2 l26 14 -25 17 c-18 12 -25 13 -26 4z"/>
<path d="M4965 1301 c-3 -5 -1 -12 5 -16 5 -3 10 1 10 9 0 18 -6 21 -15 7z"/>
<path d="M346 1283 c-6 -14 -5 -15 5 -6 7 7 10 15 7 18 -3 3 -9 -2 -12 -12z"/>
<path d="M6081 1251 c-1 -9 -9 -11 -28 -7 -16 4 -23 3 -17 -1 6 -4 14 -17 18
-28 5 -13 10 -15 13 -7 3 6 9 12 14 12 6 0 7 -6 3 -12 -5 -10 -4 -10 6 -1 10
9 11 18 2 35 -6 13 -11 17 -11 9z"/>
<path d="M279 1224 c-10 -12 -9 -13 3 -9 9 4 18 -1 22 -11 4 -11 2 -15 -6 -11
-9 3 -13 -8 -13 -39 0 -24 4 -40 9 -37 5 4 6 -1 2 -12 -5 -15 -4 -16 9 -5 12
10 15 10 15 -3 0 -8 -5 -17 -12 -19 -7 -3 -9 -11 -3 -24 6 -16 10 -10 22 30
11 35 17 45 24 35 7 -11 9 -10 9 4 0 10 4 15 10 12 6 -4 7 1 3 11 -4 12 -3 15
5 10 7 -4 12 -1 12 8 0 15 -16 16 -39 2 -9 -6 -12 -5 -7 2 3 6 -3 17 -14 25
-11 7 -18 16 -16 18 2 2 -2 9 -9 16 -10 10 -16 9 -26 -3z m46 -44 c3 -5 1 -10
-4 -10 -6 0 -11 5 -11 10 0 6 2 10 4 10 3 0 8 -4 11 -10z"/>
<path d="M660 1210 c-13 -8 -12 -10 3 -10 9 0 17 5 17 10 0 12 -1 12 -20 0z"/>
<path d="M6375 1190 c-3 -5 -1 -10 4 -10 6 0 11 5 11 10 0 6 -2 10 -4 10 -3 0
-8 -4 -11 -10z"/>
<path d="M6047 1179 c7 -7 15 -10 18 -7 3 3 -2 9 -12 12 -14 6 -15 5 -6 -5z"/>
<path d="M6423 1167 c26 -27 31 -26 22 2 -3 12 -15 21 -25 21 -18 0 -18 -2 3
-23z"/>
<path d="M504 1171 c4 -5 0 -11 -6 -14 -7 -2 -10 -8 -6 -12 4 -4 11 -4 17 0
14 8 14 35 0 35 -5 0 -8 -4 -5 -9z"/>
<path d="M6269 1171 c7 -5 10 -14 7 -20 -7 -11 6 -16 17 -5 10 10 -5 34 -22
34 -13 0 -13 -2 -2 -9z"/>
<path d="M4611 1153 c-9 -10 -10 -18 -2 -26 7 -7 12 -6 17 6 9 25 1 37 -15 20z"/>
<path d="M4153 1142 c0 -12 5 -22 9 -22 11 0 10 12 -2 30 -7 12 -9 10 -7 -8z"/>
<path d="M452 1125 c0 -16 2 -24 5 -17 2 6 11 12 19 12 8 0 14 5 14 11 0 6 -6
9 -14 6 -8 -3 -17 -1 -20 6 -2 7 -4 -1 -4 -18z"/>
<path d="M605 1142 c-15 -11 -15 -44 0 -38 7 2 16 -2 19 -10 3 -9 1 -12 -4 -9
-6 3 -10 -1 -10 -11 0 -13 3 -14 15 -4 8 7 14 25 12 43 -2 31 -14 42 -32 29z"/>
<path d="M670 1140 c0 -5 5 -10 11 -10 5 0 7 5 4 10 -3 6 -8 10 -11 10 -2 0
-4 -4 -4 -10z"/>
<path d="M3966 1129 c3 -5 0 -17 -7 -25 -11 -13 -8 -14 17 -10 16 2 32 5 37 5
15 2 -16 37 -34 38 -11 1 -17 -3 -13 -8z"/>
<path d="M731 1111 c-10 -7 -10 -10 -1 -13 10 -3 9 -10 -4 -30 -13 -20 -14
-27 -4 -31 7 -3 0 -6 -17 -7 -18 -2 -23 -4 -12 -7 9 -2 15 -9 11 -14 -7 -12
14 -39 29 -39 7 0 7 4 -1 12 -17 17 -15 38 3 38 8 0 15 -5 15 -11 0 -5 5 -7
12 -3 7 5 5 11 -7 21 -14 10 -15 13 -4 14 8 0 6 4 -6 9 -11 5 -15 9 -10 9 6 1
12 15 13 31 3 33 3 33 -17 21z"/>
<path d="M3827 1103 c3 -7 6 -13 8 -13 2 0 5 6 8 13 3 8 -1 14 -8 14 -7 0 -11
-6 -8 -14z"/>
<path d="M3930 1103 c0 -10 4 -14 8 -8 4 6 11 13 16 18 5 4 2 7 -7 7 -10 0
-17 -8 -17 -17z"/>
<path d="M4640 1103 c0 -5 4 -15 10 -23 11 -18 25 -7 17 15 -6 15 -27 21 -27
8z"/>
<path d="M4013 1093 c-7 -2 -13 -9 -13 -14 0 -6 6 -7 13 -3 9 5 9 4 1 -5 -9
-10 -17 -10 -32 -2 -11 6 -28 8 -36 5 -19 -7 -22 -44 -3 -44 6 -1 2 -9 -10
-19 -28 -23 -29 -31 -5 -32 13 0 12 -2 -5 -9 -13 -5 -23 -17 -22 -27 0 -11 3
-13 6 -5 2 6 9 10 13 7 5 -3 7 -12 4 -20 -4 -9 1 -12 13 -10 10 1 17 8 15 14
-1 6 5 14 13 17 8 3 12 11 8 18 -4 6 1 5 10 -3 11 -9 21 -10 30 -4 16 13 50
-20 35 -35 -7 -7 -3 -12 11 -17 12 -3 21 -12 21 -19 0 -14 31 -46 45 -46 5 0
0 6 -10 14 -17 12 -17 13 8 18 14 3 28 1 30 -5 1 -5 22 -11 46 -13 36 -3 42
-1 39 14 -2 11 -14 18 -36 20 -17 2 -33 7 -33 13 -1 5 -3 14 -4 19 -1 6 -3 17
-4 25 0 8 -10 15 -20 15 -28 0 -37 20 -9 21 13 1 26 1 31 0 11 -2 8 12 -7 32
-17 22 -28 22 -44 -4 -15 -23 -24 -19 -29 11 -2 11 3 20 10 20 6 0 4 5 -5 11
-12 7 -24 6 -39 -1 -18 -10 -20 -9 -17 7 2 10 10 17 16 16 7 -2 12 4 12 12 0
15 -22 19 -47 8z m87 -132 c0 -6 -4 -13 -10 -16 -5 -3 -10 1 -10 9 0 9 5 16
10 16 6 0 10 -4 10 -9z"/>
<path d="M4120 1086 c-15 -15 -12 -33 5 -40 9 -3 15 0 15 8 0 16 40 10 53 -8
5 -7 6 -4 3 7 -3 10 -6 25 -6 32 0 16 -55 16 -70 1z"/>
<path d="M3705 1081 c-3 -5 -1 -12 5 -16 5 -3 10 1 10 9 0 18 -6 21 -15 7z"/>
<path d="M3795 1080 c3 -5 11 -10 16 -10 6 0 7 5 4 10 -3 6 -11 10 -16 10 -6
0 -7 -4 -4 -10z"/>
<path d="M680 1070 c0 -6 7 -10 15 -10 8 0 15 2 15 4 0 2 -7 6 -15 10 -8 3
-15 1 -15 -4z"/>
<path d="M335 1051 c-3 -5 -1 -12 5 -16 5 -3 10 1 10 9 0 18 -6 21 -15 7z"/>
<path d="M3690 1046 c0 -9 5 -16 10 -16 6 0 10 4 10 9 0 6 -4 13 -10 16 -5 3
-10 -1 -10 -9z"/>
<path d="M4631 1034 c0 -11 3 -14 6 -6 3 7 2 16 -1 19 -3 4 -6 -2 -5 -13z"/>
<path d="M4170 959 c0 -5 5 -7 10 -4 6 3 10 8 10 11 0 2 -4 4 -10 4 -5 0 -10
-5 -10 -11z"/>
<path d="M5245 580 c3 -5 13 -10 21 -10 8 0 12 5 9 10 -3 6 -13 10 -21 10 -8
0 -12 -4 -9 -10z"/>
<path d="M5466 572 c-3 -5 1 -9 9 -9 8 0 15 4 15 9 0 4 -4 8 -9 8 -6 0 -12 -4
-15 -8z"/>
<path d="M5222 540 c-25 -14 -29 -19 -16 -24 34 -13 64 -7 64 13 0 29 -11 31
-48 11z"/>
<path d="M5497 553 c-4 -3 -27 -5 -52 -5 l-46 2 17 -25 c15 -23 15 -25 0 -25
-9 0 -16 -4 -16 -10 0 -5 7 -10 15 -10 8 0 15 -7 15 -16 0 -8 5 -12 10 -9 16
10 12 -12 -6 -29 -26 -27 -1 -18 29 10 16 14 26 32 23 40 -3 8 -2 13 2 12 9
-3 52 25 52 33 0 4 -10 9 -22 13 -19 5 -21 8 -8 16 8 5 10 10 4 10 -6 0 -14
-3 -17 -7z m9 -40 c-7 -7 -26 7 -26 19 0 6 6 6 15 -2 9 -7 13 -15 11 -17z"/>
<path d="M5704 535 c11 -8 25 -15 30 -15 6 0 2 7 -8 15 -11 8 -25 15 -30 15
-6 0 -2 -7 8 -15z"/>
<path d="M6275 530 c3 -5 11 -10 16 -10 6 0 7 5 4 10 -3 6 -11 10 -16 10 -6 0
-7 -4 -4 -10z"/>
<path d="M5091 511 c-8 -6 -9 -11 -3 -15 6 -3 14 -1 17 5 9 14 2 20 -14 10z"/>
<path d="M6275 500 c-3 -5 -1 -10 4 -10 6 0 11 5 11 10 0 6 -2 10 -4 10 -3 0
-8 -4 -11 -10z"/>
<path d="M5204 475 c11 -8 25 -15 30 -15 6 0 2 7 -8 15 -11 8 -25 15 -30 15
-6 0 -2 -7 8 -15z"/>
<path d="M5142 445 c-11 -13 -9 -15 8 -15 11 0 20 7 20 15 0 19 -11 19 -28 0z"/>
<path d="M5096 435 c4 -8 10 -12 15 -9 14 8 10 24 -6 24 -9 0 -12 -6 -9 -15z"/>
<path d="M5260 430 c0 -7 -9 -9 -22 -5 -16 4 -19 3 -10 -3 8 -5 13 -13 13 -18
-1 -8 4 -9 29 -5 6 0 10 7 10 15 0 8 -4 18 -10 21 -5 3 -10 1 -10 -5z"/>
<path d="M5660 401 c0 -10 19 -25 25 -20 1 2 -3 10 -11 17 -8 7 -14 8 -14 3z"/>
<path d="M6214 391 c1 -11 -6 -15 -21 -13 -13 2 -23 0 -24 -5 0 -4 -1 -30 -2
-58 -1 -27 -5 -54 -8 -60 -4 -5 -3 -19 2 -30 7 -19 8 -19 8 1 1 12 8 24 16 28
18 7 20 62 3 69 -9 3 -6 11 9 26 12 11 25 21 28 21 4 0 13 6 20 14 12 12 11
14 -9 18 -17 3 -23 0 -22 -11z"/>
<path d="M5412 391 c4 -13 18 -16 19 -4 0 4 -5 9 -11 12 -7 2 -11 -2 -8 -8z"/>
<path d="M5625 360 c-16 -7 -17 -9 -3 -9 9 -1 20 4 23 9 7 11 7 11 -20 0z"/>
<path d="M5669 355 c-1 -5 -1 -13 0 -17 0 -4 -6 -5 -14 -2 -21 9 -18 -13 5
-36 11 -11 20 -25 20 -31 0 -18 32 -38 62 -39 26 0 28 3 25 34 -1 26 -5 32
-14 24 -7 -6 -13 -7 -14 -2 -1 5 -2 17 -3 26 0 10 -5 17 -11 17 -5 0 -12 8
-16 18 -7 17 -8 17 -8 -1 -1 -20 -1 -20 -16 0 -8 10 -15 15 -16 9z"/>
<path d="M5796 295 c-2 -7 2 -16 10 -19 8 -3 13 -2 9 3 -3 5 0 11 7 13 8 3 6
7 -4 11 -9 3 -19 0 -22 -8z"/>
<path d="M6333 284 c15 -13 22 -26 17 -29 -6 -3 -10 -13 -10 -21 0 -16 26 -19
35 -3 11 16 -4 59 -20 59 -8 0 -15 4 -15 8 0 5 -7 9 -17 9 -12 0 -10 -6 10
-23z"/>
<path d="M3313 277 c24 -25 40 -26 31 -2 -4 8 -10 13 -14 10 -5 -3 -11 -1 -15
5 -3 5 -10 10 -15 10 -5 0 1 -10 13 -23z"/>
<path d="M5560 284 c0 -14 -3 -14 -15 -4 -12 10 -15 10 -15 -3 0 -20 34 -15
38 6 2 10 1 17 -2 17 -3 0 -6 -7 -6 -16z"/>
<path d="M1914 278 c-4 -7 -3 -8 4 -4 7 4 12 3 12 -3 0 -5 -6 -12 -12 -15 -7
-2 1 -5 17 -5 17 1 41 -3 55 -7 l25 -7 -24 27 c-25 27 -65 35 -77 14z"/>
<path d="M3857 284 c-3 -3 -3 -13 0 -21 5 -12 7 -12 14 -1 15 23 4 40 -14 22z"/>
<path d="M5024 266 c2 -19 -1 -22 -17 -18 -14 3 -18 1 -15 -9 5 -16 -14 -39
-33 -39 -9 0 -8 -4 1 -15 10 -12 10 -18 0 -30 -9 -10 -9 -15 -1 -15 6 0 11 6
11 13 0 6 12 -1 25 -16 26 -30 32 -47 15 -47 -11 0 -14 -49 -4 -74 4 -12 19
-16 53 -15 38 1 42 2 21 9 -17 5 -19 8 -7 9 15 1 23 23 18 53 0 4 6 5 13 2 11
-4 13 0 9 15 -3 11 -9 19 -13 16 -4 -3 -13 2 -20 10 -6 7 -19 11 -27 8 -10 -4
-14 -2 -9 5 3 6 2 13 -4 17 -5 3 -10 1 -10 -6 0 -7 -3 -9 -7 -5 -5 4 0 14 10
21 18 13 17 14 -2 20 -12 3 -21 13 -21 21 0 8 5 12 10 9 6 -3 10 -1 10 4 0 6
-6 11 -12 11 -10 0 -9 3 1 9 20 13 48 2 54 -20 6 -24 27 -25 27 -1 0 14 2 15
10 2 6 -9 10 -10 10 -3 0 6 -5 15 -10 18 -6 4 -8 10 -5 15 8 12 -21 20 -33 8
-17 -17 -44 -1 -37 22 3 11 2 20 -3 20 -6 0 -9 -11 -8 -24z"/>
<path d="M4236 262 c-8 -13 22 -45 39 -39 26 11 16 -9 -12 -22 -20 -9 -23 -15
-14 -20 11 -7 11 -10 0 -14 -11 -5 -10 -8 4 -17 20 -13 22 -41 5 -58 -8 -8 -9
-18 -1 -36 8 -16 8 -27 1 -34 -15 -15 27 -25 52 -12 18 10 24 22 21 42 0 5 6
8 14 8 16 0 21 35 5 45 -5 3 -7 12 -4 20 4 8 10 13 14 10 4 -3 11 2 14 11 9
24 8 27 -18 22 -23 -5 -24 -2 -19 29 5 32 -1 39 -30 34 -4 -1 -10 6 -14 15 -4
10 -8 12 -13 4 -3 -6 -14 -8 -24 -4 -14 5 -15 9 -4 15 9 6 9 9 1 9 -6 0 -14
-3 -17 -8z m98 -147 c-4 -8 -8 -15 -10 -15 -2 0 -4 7 -4 15 0 8 4 15 10 15 5
0 7 -7 4 -15z"/>
<path d="M5780 260 c0 -5 5 -10 10 -10 6 0 10 5 10 10 0 6 -4 10 -10 10 -5 0
-10 -4 -10 -10z"/>
<path d="M4010 243 c-21 -5 -52 -61 -39 -69 6 -3 16 -1 22 5 6 6 19 11 28 11
13 0 16 7 14 25 -3 30 -5 32 -25 28z"/>
<path d="M5890 240 c0 -5 -8 -10 -18 -10 -10 0 -19 -7 -19 -15 0 -8 5 -15 11
-15 6 0 5 -4 -3 -9 -9 -6 -10 -11 -2 -15 6 -4 14 0 17 8 3 9 10 13 16 10 5 -3
4 -12 -3 -20 -10 -12 -9 -13 5 -8 9 3 16 14 16 25 0 10 8 23 18 28 15 9 15 12
2 21 -19 13 -40 13 -40 0z"/>
<path d="M3114 191 c-4 -18 -16 -33 -31 -40 -14 -7 -23 -14 -20 -17 9 -9 72
13 70 25 -2 6 4 11 12 11 20 0 19 36 -1 44 -23 9 -24 8 -30 -23z"/>
<path d="M6063 203 c-19 -3 -34 -10 -34 -19 -1 -8 -3 -18 -4 -24 -1 -5 -3 -15
-4 -21 0 -5 -5 -8 -10 -4 -12 7 -8 -42 4 -53 4 -4 5 -1 0 7 -5 9 -3 12 6 9 19
-6 42 19 35 37 -8 21 7 19 38 -6 14 -11 27 -18 27 -15 1 3 2 10 3 15 2 16 16
25 16 11 0 -7 2 -11 5 -8 4 3 3 17 -1 32 -4 19 -13 26 -31 26 -13 0 -21 4 -18
10 3 6 5 9 3 8 -2 0 -18 -3 -35 -5z"/>
<path d="M6321 201 c-9 -6 -10 -11 -2 -15 13 -8 31 1 31 15 0 11 -11 11 -29 0z"/>
<path d="M6371 201 c-16 -11 -6 -31 16 -31 12 0 13 3 4 13 -6 8 -8 17 -4 20 9
10 1 8 -16 -2z"/>
<path d="M6433 182 c-1 -22 0 -24 9 -8 6 10 6 22 2 26 -5 5 -10 -3 -11 -18z"/>
<path d="M6250 180 c0 -5 5 -10 11 -10 5 0 7 5 4 10 -3 6 -8 10 -11 10 -2 0
-4 -4 -4 -10z"/>
<path d="M6270 150 c0 -6 -4 -9 -9 -6 -5 3 -20 -3 -32 -15 -23 -19 -23 -20 -2
-10 31 16 33 14 23 -19 -7 -24 -4 -38 12 -65 21 -37 38 -45 38 -19 0 8 4 13 8
10 4 -3 7 8 6 24 -1 19 6 36 22 51 28 26 31 44 8 53 -11 4 -15 2 -11 -8 5 -13
1 -13 -29 0 -22 9 -34 10 -34 4z"/>
<path d="M3213 142 c-30 -4 -50 -29 -35 -44 9 -9 12 -9 12 0 0 7 9 12 20 12
11 0 20 -7 20 -15 0 -18 16 -20 23 -2 8 22 -16 53 -40 49z"/>
<path d="M3095 109 c-10 -15 3 -25 16 -12 7 7 7 13 1 17 -6 3 -14 1 -17 -5z"/>
<path d="M5950 100 c0 -6 7 -10 15 -10 8 0 15 2 15 4 0 2 -7 6 -15 10 -8 3
-15 1 -15 -4z"/>
<path d="M3863 83 c-7 -2 -13 -9 -13 -14 0 -6 5 -7 10 -4 6 4 18 1 26 -6 12
-10 13 -9 8 6 -6 15 -3 16 26 10 23 -5 30 -4 26 4 -7 11 -60 14 -83 4z"/>
<path d="M5799 76 c9 -11 9 -15 -1 -19 -7 -2 -11 -7 -8 -10 3 -3 14 1 25 9 17
13 18 16 5 24 -22 14 -34 12 -21 -4z"/>
<path d="M3070 70 c0 -5 -9 -7 -20 -5 -12 2 -20 -2 -20 -9 0 -7 9 -21 20 -31
19 -17 26 -12 21 18 -1 4 7 4 17 -2 14 -7 18 -6 18 9 0 10 -8 21 -18 23 -10 3
-18 1 -18 -3z"/>
<path d="M5836 65 c-9 -25 1 -34 34 -33 33 1 35 5 16 31 -11 14 -15 15 -19 5
-5 -11 -7 -11 -15 0 -7 11 -10 10 -16 -3z"/>
<path d="M3890 36 c0 -9 30 -14 35 -6 4 6 -3 10 -14 10 -12 0 -21 -2 -21 -4z"/>
<path d="M5970 16 c0 -7 7 -13 15 -13 8 0 15 4 15 8 0 4 -7 9 -15 13 -9 3 -15
0 -15 -8z"/>
<path d="M4020 10 c0 -5 5 -10 11 -10 5 0 7 5 4 10 -3 6 -8 10 -11 10 -2 0 -4
-4 -4 -10z"/>
<path d="M5720 12 c0 -4 10 -9 22 -9 18 -2 20 0 8 7 -18 12 -30 13 -30 2z"/>
</g>
</svg>
