<svg width="15" height="14" viewBox="0 0 15 14" fill="none" xmlns="http://www.w3.org/2000/svg">
<g id="Icon">
<g id="Shape">
<path fill-rule="evenodd" clip-rule="evenodd" d="M13.7908 9.36595C13.9464 9.36595 14.0735 9.47773 14.0768 9.61761C14.0825 9.85466 14.1283 11.9461 14.0163 12.3636C13.8908 12.8328 13.3799 12.9999 12.9438 12.9999C12.9173 12.9999 12.8971 12.9994 12.8853 12.9988H5.52856C3.28048 12.9988 1.19497 9.88639 1.10729 9.75392C1.05475 9.67445 1.0537 9.57574 1.10457 9.49537C1.15545 9.415 1.25039 9.36536 1.35332 9.36536L13.7908 9.36595ZM12.9438 12.4857C13.0795 12.4857 13.4014 12.4622 13.4599 12.2434C13.5246 12.0017 13.5256 10.7579 13.5098 9.88019L1.88062 9.87961C2.49716 10.6899 4.03184 12.4846 5.52859 12.4846H12.8936C12.9005 12.4846 12.9074 12.4847 12.9144 12.4853C12.9148 12.4853 12.9157 12.4853 12.917 12.4853C12.9215 12.4855 12.9311 12.4857 12.9438 12.4857Z" fill="#05526F"/>
<path d="M14.0768 9.61761L14.1768 9.61525V9.61522L14.0768 9.61761ZM13.7908 9.36595L13.7908 9.46595H13.7908V9.36595ZM14.0163 12.3636L13.9198 12.3377L13.9197 12.3378L14.0163 12.3636ZM12.8853 12.9988L12.8901 12.8988H12.8853V12.9988ZM1.10729 9.75392L1.02388 9.80907L1.0239 9.80911L1.10729 9.75392ZM1.10457 9.49537L1.18906 9.54886H1.18906L1.10457 9.49537ZM1.35332 9.36536L1.35333 9.26536H1.35332V9.36536ZM13.4599 12.2434L13.5565 12.2692L13.5565 12.2692L13.4599 12.2434ZM13.5098 9.88019L13.6098 9.87839L13.608 9.7802L13.5098 9.78019L13.5098 9.88019ZM1.88062 9.87961L1.88063 9.77961L1.67886 9.7796L1.80104 9.94017L1.88062 9.87961ZM12.9144 12.4853L12.9061 12.5853H12.9144V12.4853ZM12.917 12.4853L12.9197 12.3854H12.9197L12.917 12.4853ZM14.1768 9.61522C14.1719 9.41163 13.9907 9.26595 13.7908 9.26595V9.46595C13.902 9.46595 13.9751 9.54382 13.9769 9.62001L14.1768 9.61522ZM14.1129 12.3895C14.1443 12.2727 14.1625 12.0524 14.1737 11.7961C14.1852 11.5357 14.1898 11.2261 14.1907 10.9232C14.1925 10.3172 14.1796 9.73408 14.1768 9.61525L13.9769 9.61998C13.9797 9.7382 13.9925 10.3193 13.9907 10.9226C13.9898 11.2244 13.9852 11.5308 13.9739 11.7874C13.9624 12.0481 13.9444 12.2458 13.9198 12.3377L14.1129 12.3895ZM12.9438 13.0999C13.1731 13.0999 13.4263 13.0562 13.6418 12.9469C13.8591 12.8367 14.0413 12.6574 14.1129 12.3895L13.9197 12.3378C13.8659 12.5391 13.7299 12.6779 13.5513 12.7686C13.3709 12.8601 13.1506 12.8999 12.9438 12.8999V13.0999ZM12.8806 13.0987C12.8943 13.0994 12.9161 13.0999 12.9438 13.0999V12.8999C12.9185 12.8999 12.9 12.8994 12.8901 12.899L12.8806 13.0987ZM5.52856 13.0988H12.8853V12.8988H5.52856V13.0988ZM1.0239 9.80911C1.06943 9.87789 1.61723 10.6958 2.43789 11.4976C3.25399 12.2949 4.3624 13.0988 5.52856 13.0988V12.8988C4.44663 12.8988 3.38825 12.1465 2.57766 11.3545C1.77162 10.567 1.23284 9.76242 1.19068 9.69872L1.0239 9.80911ZM1.02008 9.44188C0.948088 9.5556 0.94968 9.69685 1.02388 9.80907L1.19071 9.69876C1.15983 9.65206 1.15931 9.59587 1.18906 9.54886L1.02008 9.44188ZM1.35332 9.26536C1.21946 9.26536 1.091 9.32984 1.02008 9.44188L1.18906 9.54886C1.21989 9.50017 1.28132 9.46536 1.35332 9.46536V9.26536ZM13.7908 9.26595L1.35333 9.26536L1.35332 9.46536L13.7908 9.46595L13.7908 9.26595ZM13.3633 12.2175C13.3472 12.2777 13.293 12.322 13.2006 12.3513C13.1103 12.3799 13.0078 12.3857 12.9438 12.3857V12.5857C13.0155 12.5857 13.1418 12.5797 13.261 12.5419C13.3781 12.5048 13.5141 12.4278 13.5565 12.2692L13.3633 12.2175ZM13.4098 9.882C13.4177 10.3201 13.4214 10.8494 13.4151 11.2989C13.4119 11.5237 13.4062 11.7278 13.3974 11.8902C13.3883 12.0565 13.3764 12.1689 13.3633 12.2175L13.5565 12.2692C13.5759 12.197 13.5883 12.0633 13.5971 11.9011C13.6061 11.7348 13.6119 11.5278 13.615 11.3017C13.6214 10.8494 13.6177 10.3179 13.6098 9.87839L13.4098 9.882ZM1.88062 9.97961L13.5098 9.98019L13.5098 9.78019L1.88063 9.77961L1.88062 9.97961ZM5.52859 12.3846C4.81711 12.3846 4.08258 11.9558 3.43924 11.4097C2.79925 10.8664 2.26645 10.2215 1.9602 9.81906L1.80104 9.94017C2.11133 10.3479 2.65414 11.0056 3.30981 11.5622C3.96214 12.1159 4.74332 12.5846 5.52859 12.5846V12.3846ZM12.8936 12.3846H5.52859V12.5846H12.8936V12.3846ZM12.9226 12.3856C12.9117 12.3847 12.9018 12.3846 12.8936 12.3846V12.5846C12.8992 12.5846 12.903 12.5847 12.9062 12.5849L12.9226 12.3856ZM12.9197 12.3854C12.9194 12.3854 12.9165 12.3853 12.9144 12.3853V12.5853L12.9144 12.5853L12.9197 12.3854ZM12.9438 12.3857C12.9324 12.3857 12.9239 12.3855 12.9197 12.3854L12.9144 12.5853C12.9192 12.5854 12.9297 12.5857 12.9438 12.5857V12.3857Z" fill="#05526F"/>
</g>
<g id="Shape_2">
<path fill-rule="evenodd" clip-rule="evenodd" d="M1.40986 8.98272C1.37034 8.99966 1.32809 9.00797 1.28633 9.00797C1.2085 9.00797 1.13197 8.97943 1.07659 8.92576C0.991289 8.84342 0.975572 8.72072 1.03785 8.623C1.23628 8.31182 5.94045 1 9.62715 1C9.78516 1 9.91331 1.11507 9.91331 1.25713V8.74124C9.91331 8.83222 9.85986 8.91614 9.77285 8.96249C9.68581 9.00886 9.5781 9.01029 9.4893 8.9665C9.46941 8.95677 7.47509 7.98481 5.51346 7.98481C3.74962 7.98481 1.43303 8.97267 1.40986 8.98272ZM9.34095 8.32612V1.53117C6.63698 1.84496 3.21094 6.44076 1.9909 8.2006C2.86695 7.89181 4.2868 7.47054 5.51349 7.47054C7.08218 7.47054 8.61909 8.0241 9.34095 8.32612Z" fill="#05526F"/>
<path d="M1.40986 8.98272L1.44925 9.07464L1.44967 9.07446L1.40986 8.98272ZM1.07659 8.92576L1.14618 8.85394L1.14604 8.85381L1.07659 8.92576ZM1.03785 8.623L0.953532 8.56924L0.953519 8.56926L1.03785 8.623ZM9.77285 8.96249L9.72583 8.87423L9.72583 8.87424L9.77285 8.96249ZM9.4893 8.9665L9.53352 8.87681L9.53324 8.87667L9.4893 8.9665ZM9.34095 1.53117H9.44095V1.4189L9.32942 1.43184L9.34095 1.53117ZM9.34095 8.32612L9.30235 8.41837L9.44095 8.47636V8.32612H9.34095ZM1.9909 8.2006L1.90872 8.14362L1.7326 8.39767L2.02415 8.29491L1.9909 8.2006ZM1.28633 9.10798C1.34127 9.10798 1.39695 9.09705 1.44925 9.07464L1.37048 8.89081C1.34373 8.90227 1.31491 8.90797 1.28633 8.90797V9.10798ZM1.007 8.99757C1.08262 9.07086 1.18482 9.10798 1.28633 9.10798V8.90797C1.23218 8.90797 1.18132 8.888 1.14618 8.85394L1.007 8.99757ZM0.953519 8.56926C0.86481 8.70845 0.888803 8.88347 1.00713 8.9977L1.14604 8.85381C1.09377 8.80336 1.08633 8.73299 1.12218 8.67675L0.953519 8.56926ZM9.62715 0.9C8.67442 0.9 7.66822 1.37121 6.69937 2.06607C5.72845 2.76241 4.78305 3.69208 3.9497 4.62832C2.28278 6.50105 1.0538 8.412 0.953532 8.56924L1.12217 8.67677C1.22033 8.52282 2.44265 6.62226 4.09909 4.76129C4.92743 3.83068 5.86173 2.91294 6.81593 2.22859C7.77219 1.54276 8.73653 1.1 9.62715 1.1V0.9ZM10.0133 1.25713C10.0133 1.05003 9.83004 0.9 9.62715 0.9V1.1C9.74028 1.1 9.81331 1.18011 9.81331 1.25713H10.0133ZM10.0133 8.74124V1.25713H9.81331V8.74124H10.0133ZM9.81986 9.05075C9.93593 8.98893 10.0133 8.87304 10.0133 8.74124H9.81331C9.81331 8.79141 9.7838 8.84336 9.72583 8.87423L9.81986 9.05075ZM9.44507 9.05618C9.56251 9.1141 9.70418 9.11238 9.81986 9.05075L9.72583 8.87424C9.66744 8.90534 9.5937 8.90648 9.53352 8.87681L9.44507 9.05618ZM5.51346 8.08481C7.45005 8.08481 9.42616 9.04693 9.44535 9.05632L9.53324 8.87667C9.51266 8.8666 7.50013 7.88481 5.51346 7.88481V8.08481ZM1.44967 9.07446C1.44964 9.07447 1.44979 9.07441 1.45022 9.07423C1.45061 9.07406 1.45114 9.07383 1.45183 9.07354C1.45321 9.07295 1.45514 9.07213 1.45762 9.07108C1.46258 9.06898 1.4697 9.06599 1.47889 9.06215C1.49726 9.05449 1.52388 9.04349 1.55807 9.02963C1.62644 9.00192 1.72501 8.96278 1.84823 8.91606C2.09474 8.8226 2.4396 8.6989 2.83846 8.57553C3.63835 8.32812 4.64688 8.08481 5.51346 8.08481V7.88481C4.6162 7.88481 3.58451 8.13543 2.77936 8.38446C1.97244 8.63405 1.38398 8.88495 1.37006 8.89099L1.44967 9.07446ZM9.24095 1.53117V8.32612H9.44095V1.53117H9.24095ZM2.07309 8.25757C2.68187 7.37942 3.83996 5.79539 5.18171 4.39274C5.85261 3.69139 6.5674 3.03754 7.28054 2.5402C7.99495 2.04196 8.70005 1.70622 9.35247 1.63051L9.32942 1.43184C8.62986 1.51302 7.89272 1.86943 7.16613 2.37615C6.43827 2.88376 5.7133 3.54769 5.03719 4.25449C3.68492 5.66814 2.51997 7.26193 1.90872 8.14362L2.07309 8.25757ZM5.51349 7.37054C4.26884 7.37054 2.8355 7.79687 1.95766 8.10628L2.02415 8.29491C2.89841 7.98675 4.30476 7.57054 5.51349 7.57054V7.37054ZM9.37954 8.23387C8.65391 7.93027 7.10225 7.37054 5.51349 7.37054V7.57054C7.06211 7.57054 8.58428 8.11794 9.30235 8.41837L9.37954 8.23387Z" fill="#05526F"/>
</g>
<g id="Shape_3">
<path fill-rule="evenodd" clip-rule="evenodd" d="M10.3251 8.61312C10.3285 8.60767 10.7415 7.92295 10.7415 5.75333C10.7415 4.97494 10.4985 3.63094 10.2995 3.07649C10.2714 2.99831 10.2866 2.91264 10.3405 2.84622C10.3943 2.77978 10.4803 2.74047 10.5719 2.74047C12.045 2.74047 13.6135 7.2866 14.0591 8.67985C14.0929 8.786 14.0476 8.89996 13.9463 8.96262C13.8973 8.9929 13.8406 9.00797 13.7841 9.00797C13.7234 9.00797 13.663 8.99076 13.6122 8.95644C13.6023 8.94988 13.0082 8.55757 12.4047 8.55757C11.6834 8.55757 10.7044 8.97151 10.6946 8.97569C10.5811 9.02404 10.4458 9.00023 10.3609 8.91702C10.276 8.83378 10.2615 8.71052 10.3251 8.61312ZM12.4048 8.04335C12.7339 8.04335 13.0501 8.12485 13.31 8.2224C12.6192 6.21409 11.6926 4.21606 11.013 3.51628C11.1727 4.1967 11.314 5.12647 11.314 5.75335C11.314 7.0272 11.1771 7.82426 11.0466 8.29458C11.4345 8.17205 11.9501 8.04335 12.4048 8.04335Z" fill="#05526F"/>
<path d="M10.3251 8.61312L10.4089 8.66781L10.4103 8.66544L10.3251 8.61312ZM10.2995 3.07649L10.3936 3.0427L10.3936 3.04268L10.2995 3.07649ZM10.3405 2.84622L10.4182 2.90923L10.4182 2.90915L10.3405 2.84622ZM14.0591 8.67985L14.1544 8.64948L14.1543 8.64939L14.0591 8.67985ZM13.9463 8.96262L13.9989 9.0477L13.999 9.04765L13.9463 8.96262ZM13.6122 8.95644L13.6682 8.87358L13.6675 8.87314L13.6122 8.95644ZM10.6946 8.97569L10.6554 8.88368L10.6554 8.8837L10.6946 8.97569ZM10.3609 8.91702L10.4309 8.84562L10.4309 8.84562L10.3609 8.91702ZM13.31 8.2224L13.2748 8.31602L13.4736 8.39064L13.4045 8.18988L13.31 8.2224ZM11.013 3.51628L11.0847 3.44661L10.8331 3.18753L10.9156 3.53914L11.013 3.51628ZM11.0466 8.29458L10.9503 8.26785L10.901 8.44547L11.0768 8.38994L11.0466 8.29458ZM10.6415 5.75333C10.6415 7.91127 10.2306 8.57602 10.2399 8.5608L10.4103 8.66544C10.4264 8.63932 10.8415 7.93462 10.8415 5.75333H10.6415ZM10.2053 3.11028C10.3019 3.37919 10.4112 3.84698 10.4966 4.34773C10.5818 4.84795 10.6415 5.37226 10.6415 5.75333H10.8415C10.8415 5.35602 10.7798 4.81913 10.6937 4.31414C10.6078 3.80968 10.4961 3.32824 10.3936 3.0427L10.2053 3.11028ZM10.2629 2.7832C10.1877 2.87584 10.165 2.99805 10.2053 3.1103L10.3936 3.04268C10.3777 2.99857 10.3855 2.94943 10.4182 2.90923L10.2629 2.7832ZM10.5719 2.64047C10.4526 2.64047 10.3371 2.69156 10.2628 2.78328L10.4182 2.90915C10.4516 2.868 10.5081 2.84047 10.5719 2.84047V2.64047ZM14.1543 8.64939C13.9311 7.95147 13.4259 6.46133 12.7909 5.14426C12.4736 4.48623 12.1216 3.86651 11.7534 3.40981C11.3901 2.95912 10.9896 2.64047 10.5719 2.64047V2.84047C10.8907 2.84047 11.2387 3.09008 11.5977 3.53534C11.9519 3.97457 12.2961 4.57846 12.6107 5.23112C13.2396 6.53543 13.7415 8.01498 13.9638 8.71031L14.1543 8.64939ZM13.999 9.04765C14.1355 8.96313 14.2034 8.80332 14.1544 8.64948L13.9638 8.71022C13.9824 8.76867 13.9596 8.83678 13.8937 8.87758L13.999 9.04765ZM13.7841 9.10797C13.8581 9.10797 13.9332 9.08826 13.9989 9.0477L13.8938 8.87754C13.8614 8.89754 13.8231 8.90797 13.7841 8.90797V9.10797ZM13.5562 9.03929C13.6246 9.08551 13.7048 9.10797 13.7841 9.10797V8.90797C13.742 8.90797 13.7014 8.89601 13.6682 8.87359L13.5562 9.03929ZM12.4047 8.65757C12.6867 8.65757 12.9715 8.74975 13.1909 8.84611C13.4091 8.94192 13.5548 9.03838 13.5569 9.03974L13.6675 8.87314C13.6597 8.86794 13.5035 8.76496 13.2713 8.66299C13.0403 8.56155 12.7263 8.45757 12.4047 8.45757V8.65757ZM10.7337 9.06771C10.7337 9.06771 10.7338 9.06768 10.734 9.06761C10.7341 9.06755 10.7343 9.06746 10.7346 9.06734C10.7351 9.06711 10.7359 9.06678 10.7369 9.06636C10.739 9.06551 10.7419 9.06429 10.7457 9.06272C10.7533 9.05957 10.7644 9.05503 10.7786 9.04929C10.8071 9.03782 10.8483 9.02158 10.8998 9.00216C11.0028 8.96331 11.1467 8.91187 11.3124 8.86059C11.6462 8.75732 12.0596 8.65757 12.4047 8.65757V8.45757C12.0286 8.45757 11.5918 8.5648 11.2533 8.66953C10.9128 8.77489 10.6622 8.88079 10.6554 8.88368L10.7337 9.06771ZM10.2909 8.98843C10.406 9.10133 10.5849 9.13111 10.7338 9.06769L10.6554 8.8837C10.5773 8.91696 10.4855 8.89914 10.4309 8.84562L10.2909 8.98843ZM10.2414 8.55846C10.1509 8.69701 10.173 8.87284 10.2909 8.98843L10.4309 8.84562C10.379 8.79471 10.3721 8.72403 10.4089 8.66779L10.2414 8.55846ZM13.3451 8.12878C13.0782 8.02859 12.7497 7.94335 12.4048 7.94335V8.14335C12.7181 8.14335 13.022 8.2211 13.2748 8.31602L13.3451 8.12878ZM10.9413 3.58595C11.2688 3.92324 11.6646 4.58465 12.0672 5.42197C12.4682 6.2559 12.8711 7.25379 13.2154 8.25493L13.4045 8.18988C13.0581 7.18269 12.6524 6.17742 12.2475 5.33531C11.8442 4.49659 11.4368 3.8091 11.0847 3.44661L10.9413 3.58595ZM11.414 5.75335C11.414 5.11595 11.2711 4.17796 11.1104 3.49343L10.9156 3.53914C11.0744 4.21543 11.214 5.137 11.214 5.75335H11.414ZM11.143 8.32131C11.2764 7.84047 11.414 7.03413 11.414 5.75335H11.214C11.214 7.02026 11.0778 7.80805 10.9503 8.26785L11.143 8.32131ZM12.4048 7.94335C11.9346 7.94335 11.4071 8.07582 11.0165 8.19923L11.0768 8.38994C11.4618 8.26828 11.9657 8.14335 12.4048 8.14335V7.94335Z" fill="#05526F"/>
</g>
</g>
</svg>
