<svg width="25" height="24" viewBox="0 0 25 24" fill="none" xmlns="http://www.w3.org/2000/svg">
<path id="Vector" d="M12.5009 8.91748V10.7281H24.0874C24.2287 10.7284 24.368 10.7626 24.4944 10.8281C24.6208 10.8936 24.7309 10.9886 24.8159 11.1056C24.901 11.2227 24.9587 11.3585 24.9846 11.5026C25.0104 11.6466 25.0037 11.795 24.965 11.9359L22.7801 19.8743C22.4527 21.063 21.7607 22.1087 20.8089 22.8531C19.8571 23.5976 18.6974 24.0002 17.5052 24H7.49663C6.30447 24.0002 5.14473 23.5976 4.19295 22.8531C3.24117 22.1087 2.54918 21.063 2.22174 19.8743L0.0349869 11.9359C-0.00373181 11.795 -0.0104195 11.6466 0.0154491 11.5026C0.0413178 11.3585 0.0990383 11.2227 0.184078 11.1056C0.269118 10.9886 0.379162 10.8936 0.505569 10.8281C0.631975 10.7626 0.771303 10.7284 0.912611 10.7281H10.6725V0.948683C10.6724 0.784061 10.7136 0.622245 10.7922 0.479164C10.8707 0.336083 10.9838 0.216668 11.1203 0.132675C11.2568 0.0486822 11.4121 0.00300614 11.5708 0.000143382C11.7296 -0.00271937 11.8863 0.0373298 12.0255 0.116348L12.4223 0.34197L12.5009 0.300258V0.385577L19.1197 4.13014C19.2688 4.21443 19.3923 4.34012 19.4764 4.49313C19.5605 4.64613 19.6018 4.8204 19.5957 4.9964C19.5896 5.17239 19.5364 5.34315 19.442 5.48953C19.3476 5.63591 19.2157 5.75212 19.0612 5.82514L12.5009 8.91748ZM12.5009 6.8357L16.6367 4.88663L12.5009 2.54699V6.8357ZM12.5009 12.6241H2.12666L2.64775 14.5201H22.3559L22.877 12.6241H12.5009ZM3.17067 16.4161L3.98064 19.3549C4.19913 20.147 4.66046 20.8437 5.29484 21.3398C5.92921 21.8358 6.70212 22.1041 7.49663 22.104H17.5052C18.2997 22.1041 19.0726 21.8358 19.707 21.3398C20.3414 20.8437 20.8027 20.147 21.0212 19.3549L21.8312 16.4161H3.17067Z" fill="#C5C5C5"/>
</svg>
