<svg width="30" height="30" viewBox="0 0 30 30" fill="none" xmlns="http://www.w3.org/2000/svg">
<g id="Group 1000003209">
<g id="Group 1000003205">
<rect id="Rectangle 2791" width="30" height="30" rx="5" fill="#05526F" fill-opacity="0.08"/>
</g>
<g id="Group 1000003208">
<g id="Shape">
<path fill-rule="evenodd" clip-rule="evenodd" d="M24.4302 18.3624C24.6786 18.3624 24.8817 18.541 24.887 18.7644C24.896 19.143 24.9692 22.4835 24.7904 23.1504C24.5899 23.8998 23.7739 24.1668 23.0772 24.1668C23.0349 24.1668 23.0027 24.1659 22.9839 24.165H11.2334C7.64265 24.165 4.3116 19.1937 4.17156 18.9821C4.08764 18.8552 4.08595 18.6975 4.16721 18.5691C4.24847 18.4408 4.40012 18.3615 4.56452 18.3615L24.4302 18.3624ZM23.0768 23.3454C23.2936 23.3454 23.8076 23.3079 23.9012 22.9584C24.0045 22.5724 24.0061 20.5857 23.9808 19.1838L5.40625 19.1829C6.39101 20.477 8.84226 23.3436 11.2329 23.3436H22.9966C23.0077 23.3436 23.0186 23.3438 23.0298 23.3447C23.0304 23.3447 23.0318 23.3448 23.0341 23.3448C23.0412 23.345 23.0565 23.3454 23.0768 23.3454Z" fill="#05526F"/>
<path d="M24.887 18.7644L24.987 18.762V18.762L24.887 18.7644ZM24.4302 18.3624L24.4302 18.4624H24.4302V18.3624ZM24.7904 23.1504L24.6938 23.1245L24.6938 23.1246L24.7904 23.1504ZM22.9839 24.165L22.9886 24.065H22.9839V24.165ZM4.17156 18.9821L4.08814 19.0373L4.08817 19.0373L4.17156 18.9821ZM4.16721 18.5691L4.2517 18.6226L4.16721 18.5691ZM4.56452 18.3615L4.56453 18.2615H4.56452V18.3615ZM23.9012 22.9584L23.9978 22.9842V22.9842L23.9012 22.9584ZM23.9808 19.1838L24.0808 19.182L24.079 19.0838L23.9808 19.0838L23.9808 19.1838ZM5.40625 19.1829L5.40626 19.0829L5.20449 19.0829L5.32667 19.2434L5.40625 19.1829ZM23.0298 23.3447L23.0216 23.4447H23.0298V23.3447ZM23.0341 23.3448L23.0367 23.2449H23.0367L23.0341 23.3448ZM24.987 18.762C24.9801 18.4749 24.723 18.2624 24.4302 18.2624V18.4624C24.6343 18.4624 24.7832 18.6071 24.7871 18.7668L24.987 18.762ZM24.887 23.1763C24.935 22.9972 24.964 22.652 24.9821 22.2414C25.0003 21.8265 25.0076 21.3331 25.0091 20.8496C25.012 19.8825 24.9915 18.9516 24.987 18.762L24.7871 18.7668C24.7915 18.9558 24.812 19.8845 24.8091 20.849C24.8076 21.3313 24.8003 21.8217 24.7823 22.2326C24.764 22.6477 24.7352 22.9703 24.6938 23.1245L24.887 23.1763ZM23.0772 24.2668C23.4368 24.2668 23.8314 24.1981 24.1651 24.0288C24.5006 23.8586 24.7778 23.5843 24.887 23.1763L24.6938 23.1246C24.6025 23.466 24.3714 23.6999 24.0746 23.8505C23.776 24.002 23.4143 24.0668 23.0772 24.0668V24.2668ZM22.9791 24.2649C22.9999 24.2659 23.0337 24.2668 23.0772 24.2668V24.0668C23.0361 24.0668 23.0056 24.0659 22.9886 24.0651L22.9791 24.2649ZM11.2334 24.265H22.9839V24.065H11.2334V24.265ZM4.08817 19.0373C4.15987 19.1456 5.03216 20.448 6.33857 21.7244C7.64044 22.9964 9.39589 24.265 11.2334 24.265V24.065C9.48013 24.065 7.7747 22.848 6.47834 21.5814C5.18654 20.3192 4.32328 19.0302 4.25495 18.9269L4.08817 19.0373ZM4.08272 18.5157C3.98034 18.6774 3.98257 18.8776 4.08814 19.0373L4.25497 18.927C4.19271 18.8328 4.19156 18.7176 4.2517 18.6226L4.08272 18.5157ZM4.56452 18.2615C4.36919 18.2615 4.18403 18.3556 4.08272 18.5157L4.2517 18.6226C4.31291 18.5259 4.43105 18.4615 4.56452 18.4615V18.2615ZM24.4302 18.2624L4.56453 18.2615L4.56452 18.4615L24.4302 18.4624L24.4302 18.2624ZM23.8046 22.9325C23.771 23.0581 23.6599 23.1385 23.5049 23.1876C23.3521 23.2361 23.1813 23.2454 23.0768 23.2454V23.4454C23.189 23.4454 23.3837 23.4359 23.5654 23.3783C23.7451 23.3213 23.9378 23.2082 23.9978 22.9842L23.8046 22.9325ZM23.8808 19.1856C23.8934 19.8858 23.8993 20.7319 23.8892 21.4507C23.8842 21.8101 23.8751 22.137 23.8609 22.3975C23.8465 22.662 23.8273 22.8478 23.8046 22.9325L23.9978 22.9842C24.0268 22.8759 24.0465 22.6687 24.0606 22.4083C24.075 22.144 24.0841 21.8142 24.0892 21.4535C24.0994 20.7319 24.0934 19.8836 24.0808 19.182L23.8808 19.1856ZM5.40624 19.2829L23.9808 19.2838L23.9808 19.0838L5.40626 19.0829L5.40624 19.2829ZM11.2329 23.2436C10.0745 23.2436 8.88733 22.5469 7.85709 21.6723C6.83019 20.8006 5.97619 19.7667 5.48583 19.1223L5.32667 19.2434C5.82107 19.8932 6.68508 20.9397 7.72766 21.8248C8.76689 22.707 10.0007 23.4436 11.2329 23.4436V23.2436ZM22.9966 23.2436H11.2329V23.4436H22.9966V23.2436ZM23.038 23.2451C23.023 23.2438 23.0089 23.2436 22.9966 23.2436V23.4436C23.0064 23.4436 23.0143 23.4438 23.0216 23.4444L23.038 23.2451ZM23.0367 23.2449C23.0356 23.2448 23.0321 23.2447 23.0298 23.2447V23.4447C23.0287 23.4447 23.0281 23.4447 23.029 23.4447C23.0295 23.4448 23.0302 23.4448 23.0314 23.4448L23.0367 23.2449ZM23.0768 23.2454C23.0578 23.2454 23.0436 23.2451 23.0367 23.2449L23.0314 23.4448C23.0388 23.445 23.0551 23.4454 23.0768 23.4454V23.2454Z" fill="#05526F"/>
</g>
<g id="Shape_2">
<path fill-rule="evenodd" clip-rule="evenodd" d="M4.65465 17.7503C4.59152 17.7774 4.52404 17.7906 4.45734 17.7906C4.33302 17.7906 4.21079 17.745 4.12233 17.6593C3.98609 17.5278 3.96098 17.3318 4.06045 17.1758C4.3774 16.6787 11.8911 5 17.7796 5C18.032 5 18.2367 5.1838 18.2367 5.4107V17.3646C18.2367 17.5099 18.1513 17.644 18.0123 17.718C17.8733 17.7921 17.7013 17.7943 17.5594 17.7244C17.5277 17.7089 14.3423 16.1564 11.2091 16.1564C8.39179 16.1564 4.69165 17.7343 4.65465 17.7503ZM17.3228 16.7016V5.84842C13.0039 6.34962 7.53169 13.6902 5.58301 16.5011C6.98227 16.0079 9.2501 15.335 11.2094 15.335C13.715 15.335 16.1698 16.2192 17.3228 16.7016Z" fill="#05526F"/>
<path d="M4.65465 17.7503L4.69404 17.8422L4.69446 17.842L4.65465 17.7503ZM4.12233 17.6593L4.19192 17.5875L4.19178 17.5874L4.12233 17.6593ZM4.06045 17.1758L3.97614 17.122L3.97612 17.122L4.06045 17.1758ZM18.0123 17.718L17.9653 17.6297L17.9653 17.6297L18.0123 17.718ZM17.5594 17.7244L17.6037 17.6347L17.6034 17.6346L17.5594 17.7244ZM17.3228 5.84842H17.4228V5.73614L17.3113 5.74909L17.3228 5.84842ZM17.3228 16.7016L17.2842 16.7938L17.4228 16.8518V16.7016H17.3228ZM5.58301 16.5011L5.50083 16.4441L5.3247 16.6982L5.61625 16.5954L5.58301 16.5011ZM4.45734 17.8906C4.53722 17.8906 4.61813 17.8748 4.69404 17.8422L4.61527 17.6584C4.56491 17.68 4.51087 17.6906 4.45734 17.6906V17.8906ZM4.05274 17.7311C4.16144 17.8365 4.30934 17.8906 4.45734 17.8906V17.6906C4.3567 17.6906 4.26014 17.6536 4.19192 17.5875L4.05274 17.7311ZM3.97612 17.122C3.85022 17.3196 3.8836 17.5679 4.05287 17.7313L4.19178 17.5874C4.08857 17.4877 4.07174 17.3441 4.14478 17.2295L3.97612 17.122ZM17.7796 4.9C16.2764 4.9 14.6818 5.64414 13.1381 6.7513C11.5923 7.85995 10.0855 9.34128 8.75599 10.835C6.09665 13.8227 4.13566 16.8718 3.97614 17.122L4.14477 17.2295C4.30219 16.9826 6.25651 13.9439 8.90538 10.968C10.2299 9.47988 11.7255 8.01048 13.2546 6.91383C14.7858 5.81569 16.3385 5.1 17.7796 5.1V4.9ZM18.3367 5.4107C18.3367 5.11876 18.0769 4.9 17.7796 4.9V5.1C17.9871 5.1 18.1367 5.24884 18.1367 5.4107H18.3367ZM18.3367 17.3646V5.4107H18.1367V17.3646H18.3367ZM18.0593 17.8063C18.2274 17.7168 18.3367 17.5507 18.3367 17.3646H18.1367C18.1367 17.4691 18.0752 17.5712 17.9653 17.6297L18.0593 17.8063ZM17.5152 17.8141C17.6857 17.8982 17.8917 17.8956 18.0593 17.8063L17.9653 17.6297C17.8549 17.6885 17.7169 17.6905 17.6037 17.6347L17.5152 17.8141ZM11.2091 16.2564C14.3172 16.2564 17.4844 17.799 17.5155 17.8142L17.6034 17.6346C17.5709 17.6187 14.3673 16.0564 11.2091 16.0564V16.2564ZM4.69446 17.842C4.69448 17.842 4.69449 17.842 4.69455 17.842C4.69462 17.842 4.69468 17.842 4.69478 17.8419C4.69498 17.8418 4.69525 17.8417 4.69558 17.8416C4.69624 17.8413 4.69714 17.8409 4.69826 17.8404C4.70052 17.8395 4.70366 17.8381 4.70767 17.8364C4.71568 17.833 4.72714 17.8282 4.7419 17.8221C4.77142 17.8097 4.81414 17.7921 4.86893 17.7699C4.97851 17.7255 5.13638 17.6628 5.33366 17.588C5.72828 17.4384 6.2803 17.2404 6.91881 17.0429C8.198 16.6472 9.81577 16.2564 11.2091 16.2564V16.0564C9.78509 16.0564 8.14416 16.4545 6.85971 16.8518C5.57349 17.2496 4.63568 17.6495 4.61484 17.6586L4.69446 17.842ZM17.2228 5.84842V16.7016H17.4228V5.84842H17.2228ZM5.66519 16.5581C6.6383 15.1544 8.4901 12.6214 10.6363 10.3777C11.7095 9.25589 12.8542 8.20853 13.9977 7.41108C15.1424 6.61275 16.2782 6.07032 17.3343 5.94775L17.3113 5.74909C16.208 5.87712 15.0401 6.44021 13.8832 7.24704C12.7251 8.05475 11.5702 9.11219 10.4918 10.2395C8.33505 12.4941 6.4764 15.0369 5.50083 16.4441L5.66519 16.5581ZM11.2094 15.235C9.23214 15.235 6.95081 15.9129 5.54976 16.4068L5.61625 16.5954C7.01373 16.1028 9.26806 15.435 11.2094 15.435V15.235ZM17.3614 16.6093C16.2046 16.1253 13.7351 15.235 11.2094 15.235V15.435C13.6949 15.435 16.135 16.313 17.2842 16.7938L17.3614 16.6093Z" fill="#05526F"/>
</g>
<g id="Shape_3">
<path fill-rule="evenodd" clip-rule="evenodd" d="M18.8941 17.16C18.8995 17.1513 19.5592 16.0576 19.5592 12.5922C19.5592 11.3489 19.171 9.20223 18.8531 8.31664C18.8083 8.19177 18.8326 8.05493 18.9187 7.94884C19.0047 7.84272 19.142 7.77994 19.2882 7.77994C21.6412 7.77994 24.1464 15.0412 24.8581 17.2665C24.9122 17.4361 24.8398 17.6181 24.678 17.7182C24.5997 17.7666 24.5092 17.7906 24.4189 17.7906C24.322 17.7906 24.2255 17.7631 24.1444 17.7083C24.1286 17.6978 23.1797 17.0712 22.2157 17.0712C21.0636 17.0712 19.4999 17.7324 19.4842 17.7391C19.303 17.8163 19.0868 17.7783 18.9512 17.6454C18.8156 17.5124 18.7926 17.3155 18.8941 17.16ZM22.2161 16.2499C22.7418 16.2499 23.2469 16.3801 23.6619 16.5359C22.5587 13.3281 21.0787 10.1368 19.9932 9.01909C20.2483 10.1059 20.4739 11.5909 20.4739 12.5922C20.4739 14.6269 20.2553 15.9 20.0469 16.6512C20.6663 16.4555 21.49 16.2499 22.2161 16.2499Z" fill="#05526F"/>
<path d="M18.8941 17.16L18.9779 17.2146L18.9793 17.2123L18.8941 17.16ZM18.8531 8.31664L18.9472 8.28285L18.9472 8.28283L18.8531 8.31664ZM18.9187 7.94884L18.9964 8.01185L18.9964 8.01178L18.9187 7.94884ZM24.8581 17.2665L24.9534 17.2362L24.9534 17.2361L24.8581 17.2665ZM24.678 17.7182L24.7306 17.8033L24.7307 17.8032L24.678 17.7182ZM24.1444 17.7083L24.2004 17.6255L24.1997 17.625L24.1444 17.7083ZM19.4842 17.7391L19.4451 17.6471L19.445 17.6471L19.4842 17.7391ZM18.9512 17.6454L19.0213 17.574L19.0213 17.574L18.9512 17.6454ZM23.6619 16.5359L23.6268 16.6295L23.8255 16.7041L23.7565 16.5034L23.6619 16.5359ZM19.9932 9.01909L20.0649 8.94942L19.8133 8.69033L19.8958 9.04194L19.9932 9.01909ZM20.0469 16.6512L19.9505 16.6244L19.9013 16.8021L20.077 16.7465L20.0469 16.6512ZM19.4592 12.5922C19.4592 16.0459 18.8016 17.1196 18.8089 17.1076L18.9793 17.2123C18.9974 17.1829 19.6592 16.0693 19.6592 12.5922H19.4592ZM18.759 8.35042C18.915 8.78491 19.0903 9.53615 19.2268 10.3371C19.3632 11.1375 19.4592 11.9787 19.4592 12.5922H19.6592C19.6592 11.9624 19.5612 11.1087 19.424 10.3035C19.2869 9.49886 19.1092 8.73396 18.9472 8.28285L18.759 8.35042ZM18.8411 7.88583C18.7337 8.01813 18.7019 8.1915 18.759 8.35045L18.9472 8.28283C18.9146 8.19203 18.9315 8.09172 18.9964 8.01185L18.8411 7.88583ZM19.2882 7.67994C19.1143 7.67994 18.9474 7.7545 18.841 7.8859L18.9964 8.01178C19.0619 7.93094 19.1698 7.87994 19.2882 7.87994V7.67994ZM24.9534 17.2361C24.5971 16.1221 23.7912 13.7452 22.7787 11.6453C22.2728 10.5959 21.7129 9.61076 21.129 8.88651C20.5499 8.16829 19.9259 7.67994 19.2882 7.67994V7.87994C19.827 7.87994 20.3986 8.29925 20.9733 9.01204C21.5431 9.71882 22.0952 10.6881 22.5986 11.7322C23.6049 13.8193 24.4075 16.1856 24.7629 17.297L24.9534 17.2361ZM24.7307 17.8032C24.9277 17.6813 25.0227 17.4534 24.9534 17.2362L24.7629 17.2969C24.8017 17.4188 24.7518 17.5549 24.6254 17.6332L24.7307 17.8032ZM24.4189 17.8906C24.5267 17.8906 24.6356 17.8619 24.7306 17.8033L24.6255 17.6331C24.5638 17.6712 24.4917 17.6906 24.4189 17.6906V17.8906ZM24.0884 17.7912C24.1871 17.8579 24.3033 17.8906 24.4189 17.8906V17.6906C24.3406 17.6906 24.2639 17.6684 24.2004 17.6255L24.0884 17.7912ZM22.2157 17.1712C22.6779 17.1712 23.1415 17.322 23.4954 17.4774C23.8481 17.6323 24.0841 17.7883 24.0891 17.7916L24.1997 17.625C24.1889 17.6179 23.9425 17.4553 23.5758 17.2943C23.2103 17.1338 22.7175 16.9712 22.2157 16.9712V17.1712ZM19.5234 17.8311C19.5294 17.8285 19.9208 17.663 20.4534 17.4982C20.9879 17.3328 21.6552 17.1712 22.2157 17.1712V16.9712C21.6242 16.9712 20.9335 17.1403 20.3943 17.3071C19.853 17.4746 19.4548 17.6429 19.4451 17.6471L19.5234 17.8311ZM18.8812 17.7168C19.0471 17.8794 19.3068 17.9234 19.5234 17.8311L19.445 17.6471C19.2992 17.7092 19.1265 17.6772 19.0213 17.574L18.8812 17.7168ZM18.8104 17.1053C18.682 17.302 18.7126 17.5515 18.8812 17.7168L19.0213 17.574C18.9186 17.4733 18.9032 17.329 18.9779 17.2146L18.8104 17.1053ZM23.6971 16.4423C23.275 16.2838 22.7576 16.1499 22.2161 16.1499V16.3499C22.726 16.3499 23.2188 16.4763 23.6268 16.6295L23.6971 16.4423ZM19.9214 9.08876C20.452 9.63501 21.0875 10.6992 21.7308 12.0371C22.3724 13.3715 23.0168 14.9676 23.5674 16.5684L23.7565 16.5034C23.2039 14.8965 22.5566 13.293 21.911 11.9504C21.2671 10.6112 20.6199 9.52088 20.0649 8.94942L19.9214 9.08876ZM20.5739 12.5922C20.5739 11.5804 20.3466 10.0871 20.0905 8.99623L19.8958 9.04194C20.15 10.1246 20.3739 11.6015 20.3739 12.5922H20.5739ZM20.1432 16.6779C20.3545 15.9162 20.5739 14.6338 20.5739 12.5922H20.3739C20.3739 14.6199 20.156 15.8837 19.9505 16.6244L20.1432 16.6779ZM22.2161 16.1499C21.4744 16.1499 20.639 16.3592 20.0168 16.5558L20.077 16.7465C20.6937 16.5517 21.5056 16.3499 22.2161 16.3499V16.1499Z" fill="#05526F"/>
</g>
</g>
</g>
</svg>
