<svg width="190" height="153" viewBox="0 0 190 153" fill="none" xmlns="http://www.w3.org/2000/svg">
<path d="M24.0976 11.1572C23.4006 8.34374 21.5058 6.50064 18.1964 5.79877C18.1385 5.78716 18.0862 5.7575 18.0475 5.71435C18.0088 5.6712 17.9858 5.61695 17.9821 5.55995C17.9784 5.50294 17.9942 5.44634 18.027 5.39884C18.0598 5.35134 18.1079 5.31558 18.1638 5.29706C21.209 4.28313 23.146 2.57684 23.9749 0.178199C24.0638 -0.0794147 24.4411 -0.0497478 24.497 0.215753C25.0409 2.89554 27.0379 4.48892 30.0874 5.2933C30.1457 5.30957 30.1966 5.34417 30.2321 5.3916C30.2677 5.43904 30.2859 5.49659 30.2837 5.55513C30.2816 5.61367 30.2593 5.66985 30.2203 5.71473C30.1814 5.75962 30.1281 5.79065 30.0688 5.8029C27.1203 6.39361 25.3642 8.23935 24.6237 11.1531C24.5576 11.4201 24.1641 11.4257 24.0976 11.1572Z" fill="#96D7FF"/>
<path d="M4.6799 39.5758C4.11705 37.5141 2.67141 36.1507 0.188103 35.6074C-0.0508933 35.5549 -0.0636198 35.24 0.167245 35.1619C2.44478 34.3952 3.91365 33.1355 4.57383 31.3828C4.59214 31.3353 4.62626 31.2947 4.67108 31.267C4.7159 31.2394 4.769 31.2262 4.82242 31.2295C4.87583 31.2328 4.92668 31.2523 4.96734 31.2852C5.00801 31.3181 5.03628 31.3625 5.04794 31.4119C5.49942 33.365 7.00516 34.5468 9.28447 35.1626C9.52983 35.2293 9.52276 35.5586 9.27386 35.6117C7.07481 36.0815 5.74372 37.4433 5.15577 39.5688C5.09178 39.8002 4.74283 39.8075 4.6799 39.5758Z" fill="#095DFF"/>
<path d="M139.527 152.151C138.908 149.632 137.317 147.965 134.586 147.301C134.323 147.237 134.309 146.852 134.563 146.757C137.068 145.82 138.684 144.28 139.41 142.138C139.43 142.08 139.468 142.03 139.517 141.996C139.566 141.962 139.625 141.946 139.684 141.95C139.742 141.954 139.798 141.978 139.843 142.019C139.888 142.059 139.919 142.113 139.932 142.174C140.428 144.56 142.084 146.005 144.592 146.757C144.862 146.839 144.854 147.241 144.58 147.307C142.161 147.881 140.697 149.545 140.05 152.143C139.98 152.426 139.596 152.435 139.527 152.151Z" fill="#095DFF"/>
<path d="M6.09408 138.941C5.47495 136.88 3.88474 135.516 1.15311 134.972C0.890213 134.92 0.876212 134.605 1.13016 134.527C3.63546 133.76 5.25121 132.5 5.97741 130.748C5.99758 130.7 6.03515 130.659 6.08448 130.632C6.13381 130.604 6.19224 130.591 6.251 130.594C6.30976 130.598 6.36569 130.617 6.41039 130.65C6.45509 130.683 6.48616 130.728 6.49892 130.777C6.99555 132.73 8.65187 133.912 11.1591 134.528C11.429 134.594 11.4212 134.924 11.1474 134.977C8.72849 135.447 7.26428 136.808 6.61754 138.934C6.54715 139.165 6.16331 139.171 6.09408 138.941Z" fill="#FF99B1"/>
<path d="M184.147 99.3475C183.527 97.2857 181.937 95.9218 179.206 95.3785C178.943 95.3264 178.929 95.0112 179.183 94.933C181.688 94.1663 183.304 92.9065 184.03 91.1537C184.05 91.1062 184.088 91.0656 184.137 91.0379C184.186 91.0103 184.245 90.9972 184.303 91.0005C184.362 91.0038 184.418 91.0234 184.463 91.0563C184.508 91.0892 184.539 91.1337 184.551 91.1831C185.048 93.1364 186.704 94.3182 189.212 94.9337C189.481 95.0005 189.474 95.3297 189.2 95.3832C186.781 95.8527 185.317 97.2146 184.67 99.3405C184.6 99.5716 184.216 99.5776 184.147 99.3475Z" fill="#FF99B1"/>
<path d="M136.72 12.2082C136.438 11.0627 135.716 10.305 134.474 10.0032C134.354 9.97424 134.348 9.7991 134.463 9.75569C135.602 9.32971 136.337 8.62984 136.667 7.65606C136.676 7.62967 136.693 7.60711 136.715 7.59176C136.738 7.57642 136.764 7.56912 136.791 7.57096C136.818 7.5728 136.843 7.58368 136.864 7.60197C136.884 7.62025 136.898 7.64496 136.904 7.67239C137.13 8.75754 137.882 9.41413 139.022 9.75606C139.145 9.79316 139.141 9.97609 139.017 10.0058C137.917 10.2666 137.252 11.0232 136.958 12.2043C136.926 12.3327 136.751 12.336 136.72 12.2082Z" fill="#FF99B1"/>
<path d="M131.569 45.9148L98.4062 34.068L65.5767 45.7686C61.3837 47.7186 57.7392 48.918 57.7392 52.7986V72.1436C57.6672 85.7287 61.3988 99.0653 68.5158 110.658C75.6278 122.372 86.171 131.641 98.7295 137.218C112.151 132.879 122.173 121.305 128.297 111.418C135.431 99.8309 139.179 86.4939 139.122 72.9041V55.4995C139.122 49.9515 136.163 47.2506 131.569 45.9148Z" fill="#05526F"/>
<path d="M98.7533 137.218C101 136.485 103.178 135.555 105.26 134.439C110.369 131.553 115.01 127.914 119.028 123.646C122.679 119.731 125.891 115.432 128.607 110.824C135.827 99.1557 139.472 85.6415 139.096 71.9388V55.9578C139.096 48.0014 134.977 47.4164 131.533 45.9148L98.4304 34.068V43.1944L125.3 53.2277C128.998 54.9535 130.857 57.8299 130.857 60.911V74.4837C130.903 85.2349 127.942 95.7862 122.305 104.954C116.826 114.22 108.597 121.565 98.7533 125.976V137.218Z" fill="#006287"/>
<path d="M142.312 35.904C143.202 36.1182 144.073 36.4029 144.919 36.7557C145.952 37.1707 146.932 37.7098 147.837 38.3611C149.116 39.2401 150.175 40.4063 150.93 41.7676C151.839 43.497 152.326 45.4199 152.35 47.3766C152.35 49.5106 152.35 51.8208 152.35 54.317C152.35 59.2995 152.398 64.9967 152.35 71.3497C152.259 78.3313 151.364 85.2788 149.685 92.0532C147.712 99.9424 144.665 107.519 140.629 114.568C136.113 122.459 130.517 129.672 124.006 135.996C117.198 142.544 108.794 148.339 98.9795 151.413H98.8919H98.8044C95.367 149.935 92.0128 148.268 88.7567 146.421C85.4274 144.479 82.2212 142.331 79.1565 139.989C72.832 135.12 67.2027 129.399 62.4266 122.986C52.094 109.281 45.9465 92.8465 44.7338 75.6862C44.4226 71.6238 44.5101 67.6103 44.5004 63.6654V51.9872C44.5004 50.0294 44.5004 48.1891 44.5004 46.3194C44.4701 45.3753 44.5026 44.4302 44.5976 43.4904C44.7396 42.5347 45.1287 41.6334 45.7259 40.8768C46.9503 39.4854 48.4693 38.3882 50.171 37.666C51.7954 36.8927 53.4295 36.2173 55.0344 35.5027L98.4056 20.8193H98.4542H98.5126L130.688 31.8906L139.277 34.8273L141.485 35.6006L142.234 35.8845C142.234 35.8845 141.971 35.8159 141.475 35.6495L139.248 34.9154L130.63 31.9787L98.4834 21.1032H98.5904L55.2581 35.9138C53.6629 36.6284 52.0191 37.3039 50.3947 38.0772C48.7537 38.7735 47.2881 39.8304 46.1053 41.1705C45.5558 41.8671 45.2 42.6981 45.0743 43.5785C44.9857 44.4926 44.9565 45.4114 44.9867 46.3292V51.997C44.9867 55.8049 44.9867 59.6911 44.9867 63.6262C44.9867 67.5614 44.9186 71.5748 45.2299 75.6079C46.4411 92.673 52.558 109.015 62.8352 122.644C67.5873 129.019 73.1871 134.707 79.4775 139.549C82.5219 141.879 85.7088 144.014 89.0194 145.941C92.2707 147.8 95.6218 149.477 99.0573 150.963H98.8919C108.619 147.928 116.935 142.153 123.744 135.673C130.233 129.387 135.816 122.217 140.328 114.372C144.343 107.372 147.39 99.8535 149.383 92.0238C151.074 85.2802 151.984 78.3625 152.097 71.4084C152.097 65.0652 152.097 59.3583 152.155 54.3757C152.155 51.8795 152.155 49.5596 152.155 47.4452C152.152 45.5159 151.689 43.6157 150.803 41.9046C150.069 40.5611 149.041 39.403 147.798 38.5177C146.889 37.8669 145.91 37.3217 144.88 36.8927C144.244 36.6243 143.594 36.389 142.934 36.1879L142.312 35.904Z" fill="#05526F" fill-opacity="0.65"/>
<g clip-path="url(#clip0_260_80)">
<path d="M109.077 76.653H107.894V71.9213C107.894 66.7023 103.649 62.458 98.4304 62.458C93.2114 62.458 88.9671 66.7023 88.9671 71.9213V76.653H87.7842C85.8284 76.653 84.2355 78.2444 84.2355 80.2017V96.7626C84.2355 98.7199 85.8284 100.311 87.7842 100.311H109.077C111.032 100.311 112.625 98.7199 112.625 96.7626V80.2017C112.625 78.2444 111.032 76.653 109.077 76.653ZM92.1216 71.9213C92.1216 68.442 94.9511 65.6124 98.4304 65.6124C101.91 65.6124 104.739 68.442 104.739 71.9213V76.653H92.1216V71.9213ZM100.008 88.8323V92.4252C100.008 93.2958 99.3026 94.0024 98.4304 94.0024C97.5582 94.0024 96.8532 93.2958 96.8532 92.4252V88.8323C95.9148 88.285 95.276 87.2787 95.276 86.1163C95.276 84.3766 96.6908 82.9619 98.4304 82.9619C100.17 82.9619 101.585 84.3766 101.585 86.1163C101.585 87.2787 100.946 88.285 100.008 88.8323Z" fill="white"/>
</g>
<defs>
<clipPath id="clip0_260_80">
<rect width="37.8533" height="37.8533" fill="white" transform="translate(79.5038 62.458)"/>
</clipPath>
</defs>
</svg>
