<svg width="126" height="130" viewBox="0 0 126 130" fill="none" xmlns="http://www.w3.org/2000/svg">
<path d="M113.198 46.6863C118.452 51.6583 125.213 58.0567 125.937 66.6118C126.741 76.1197 119.701 83.7137 115.509 87.3548C114.126 88.5582 112.563 89.5774 110.864 90.3818C107.612 91.9192 103.714 94.3955 100.962 98.4012C97.59 103.31 98.631 106.596 96.7717 111.33C91.9635 123.574 74.5969 128.088 73.4744 128.365C60.5384 131.56 49.5526 127.312 43.7514 124.195C41.4378 122.953 39.4426 121.284 37.8226 119.337C36.4323 117.666 34.5116 115.804 31.9068 114.22C26.5937 110.988 22.8259 111.582 17.9949 109.961C9.52777 107.121 3.33247 99.3353 1.06606 92.0128C-1.80875 82.7252 1.76686 74.6002 4.29823 70.3949C5.76125 67.968 6.61517 65.2777 6.7989 62.5165C6.87581 61.3503 6.92709 60.0723 6.93279 58.7024C6.96254 51.7465 5.78881 50.1502 6.09459 46.8391C6.99356 37.1072 18.9863 30.782 20.0068 30.26C28.9392 25.6896 37.8565 26.8584 41.7458 27.7018C43.6792 28.1209 45.6683 28.2984 47.6524 28.1867C49.0094 28.1109 50.3579 27.9396 51.6857 27.6742C58.0368 26.4014 60.4665 23.6226 64.592 21.7423C72.3694 18.1971 83.1532 19.2211 90.7381 23.5675C96.2266 26.7117 99.304 31.1726 100.994 34.6055C102.358 37.3786 104.467 39.7909 107.098 41.6687C109.258 43.2102 111.296 44.8868 113.198 46.6863Z" fill="#05526F" fill-opacity="0.1"/>
<rect x="25.7114" y="39.9629" width="68.0255" height="68.0255" rx="34.0128" fill="#05526F"/>
<path fill-rule="evenodd" clip-rule="evenodd" d="M55.2064 64.2832H63.8042C67.1659 64.2832 69.417 66.6434 69.417 70.1539V78.2568C69.417 81.7564 67.1659 84.1166 63.8042 84.1166H55.2064C51.8447 84.1166 49.5837 81.7564 49.5837 78.2568V70.1539C49.5837 66.6434 51.8447 64.2832 55.2064 64.2832ZM58.9352 77.165L63.6456 72.4545C63.9828 72.1174 63.9828 71.572 63.6456 71.2249C63.3085 70.8877 62.7531 70.8877 62.416 71.2249L58.3204 75.3205L56.585 73.585C56.2478 73.2479 55.6925 73.2479 55.3553 73.585C55.0181 73.9222 55.0181 74.4676 55.3553 74.8147L57.7155 77.165C57.8841 77.3335 58.1022 77.4129 58.3204 77.4129C58.5485 77.4129 58.7666 77.3335 58.9352 77.165Z" fill="white"/>
<path d="M100.128 8.94072C100.683 6.68617 102.193 5.20922 104.829 4.64678C104.875 4.63748 104.917 4.61371 104.947 4.57913C104.978 4.54456 104.997 4.50108 105 4.4554C105.003 4.40972 104.99 4.36437 104.964 4.32631C104.938 4.28824 104.899 4.25959 104.855 4.24474C102.429 3.43224 100.886 2.06492 100.226 0.142798C100.155 -0.0636381 99.8544 -0.0398648 99.8098 0.172891C99.3765 2.32031 97.7857 3.59715 95.3565 4.24173C95.3101 4.25477 95.2695 4.28249 95.2412 4.3205C95.2129 4.35851 95.1984 4.40464 95.2001 4.45155C95.2018 4.49846 95.2196 4.54347 95.2506 4.57944C95.2817 4.61541 95.3241 4.64028 95.3713 4.65009C97.7201 5.12345 99.119 6.60251 99.7089 8.93741C99.7615 9.15137 100.075 9.15588 100.128 8.94072Z" fill="#0088F7"/>
<path d="M115.193 32.0601C115.651 30.3656 116.827 29.245 118.848 28.7985C119.042 28.7554 119.053 28.4966 118.865 28.4324C117.012 27.8022 115.817 26.7669 115.279 25.3264C115.265 25.2874 115.237 25.254 115.2 25.2313C115.164 25.2085 115.121 25.1977 115.077 25.2004C115.034 25.2031 114.992 25.2192 114.959 25.2462C114.926 25.2732 114.903 25.3097 114.894 25.3503C114.526 26.9556 113.301 27.9268 111.447 28.4329C111.247 28.4878 111.253 28.7584 111.455 28.8021C113.244 29.1882 114.328 30.3074 114.806 32.0543C114.858 32.2445 115.142 32.2506 115.193 32.0601Z" fill="#C9C1F5"/>
<path d="M7.74725 121.632C8.24684 119.599 9.53 118.254 11.7342 117.718C11.9464 117.667 11.9576 117.356 11.7524 117.279C9.73105 116.523 8.42738 115.28 7.84139 113.552C7.82511 113.505 7.79479 113.465 7.75499 113.437C7.71518 113.41 7.66804 113.397 7.62062 113.4C7.5732 113.404 7.52807 113.423 7.492 113.456C7.45593 113.488 7.43087 113.532 7.42057 113.581C7.01983 115.507 5.68331 116.672 3.65986 117.279C3.44207 117.345 3.44833 117.67 3.66957 117.723C5.62116 118.186 6.80266 119.529 7.32484 121.625C7.38164 121.853 7.69108 121.861 7.74725 121.632Z" fill="#C9C1F5"/>
<path d="M114.147 111.161C114.647 109.466 115.93 108.345 118.134 107.899C118.346 107.856 118.358 107.597 118.153 107.532C116.131 106.902 114.827 105.867 114.241 104.426C114.225 104.387 114.195 104.354 114.155 104.331C114.115 104.308 114.068 104.298 114.02 104.3C113.973 104.303 113.928 104.319 113.892 104.346C113.856 104.373 113.831 104.41 113.82 104.45C113.42 106.056 112.083 107.027 110.06 107.533C109.842 107.588 109.848 107.859 110.069 107.902C112.021 108.288 113.203 109.408 113.725 111.155C113.782 111.345 114.091 111.35 114.147 111.161Z" fill="#FF99B1"/>
<path d="M9.82355 9.73036C10.0734 8.88307 10.715 8.3226 11.8171 8.09932C11.9232 8.07791 11.9288 7.94836 11.8264 7.91625C10.8155 7.60116 10.1636 7.08346 9.87063 6.36316C9.86249 6.34364 9.84733 6.32695 9.82743 6.3156C9.80752 6.30425 9.78395 6.29885 9.76024 6.30021C9.73653 6.30157 9.71397 6.30962 9.69593 6.32315C9.6779 6.33667 9.66536 6.35495 9.66021 6.37524C9.45984 7.17792 8.79156 7.6636 7.77996 7.91652C7.67106 7.94397 7.6742 8.07928 7.78466 8.10124C8.76064 8.29419 9.35141 8.85384 9.61235 9.72748C9.64075 9.82244 9.79562 9.82491 9.82355 9.73036Z" fill="#FF99B1"/>
</svg>
