<svg width="65" height="19" viewBox="0 0 65 19" fill="none" xmlns="http://www.w3.org/2000/svg">
<g id="Group 1000003114">
<g id="Group">
<g id="Group_2">
<path id="Vector" d="M49.5481 18.5951C49.5481 18.5951 18.5366 8.63864 0 13.8804C0 13.8804 37.4247 15.2568 49.5481 18.5951Z" fill="white"/>
<path id="Vector_2" d="M46.5024 3.71894C45.6824 3.07469 43.5154 1.81549 39.24 0.995547C39.24 0.995547 40.5578 1.99119 40.6456 2.81114C38.5958 3.01613 36.5752 3.2504 34.5546 3.54323C34.701 2.92828 35.1403 2.37188 35.1403 2.37188C33.9397 2.54759 33.0026 3.30896 32.4462 3.86536C31.392 4.04106 30.3085 4.21676 29.2543 4.42175C30.0742 2.60615 33.149 1.61051 33.149 1.61051C28.1415 2.40117 26.1502 4.18748 25.3888 5.21241C24.1003 5.50525 22.8118 5.79809 21.5233 6.12021C23.7196 1.96191 29.1664 0.292736 36.8973 0.351304C30.8356 -0.52721 23.2804 0.234169 14.1731 2.72329L20.6155 3.48467C20.6155 3.48467 16.6037 4.97814 14.2317 8.22864C11.9183 8.96073 9.86839 9.83925 8.19922 10.952C9.66341 10.8349 11.2154 10.7763 12.7968 10.7763C15.0516 10.7763 17.365 10.8935 19.6199 11.0692C28.4929 8.69718 42.6955 7.32084 57.3667 6.09092C54.4383 9.195 43.2812 10.4249 31.187 11.4499L29.5764 12.2991C33.6175 12.9726 37.3366 13.7633 40.4992 14.4954C44.1011 14.0268 48.4058 13.4704 53.6184 12.8555C53.6184 12.8555 49.1672 14.2025 43.8376 15.3446C47.4395 16.2817 49.7236 17.0138 49.9872 17.1016C50.5143 17.2773 50.8657 17.6873 51.0121 18.1558C55.9025 16.4867 60.3829 11.0984 64.5998 3.66037C59.5044 3.01613 53.3548 3.13326 46.5024 3.71894Z" fill="white"/>
<path id="Vector_3" d="M44.3064 18.5951C44.3064 18.5951 11.6842 13.1776 0 16.3988C0 16.4281 38.9767 17.5702 44.3064 18.5951Z" fill="white"/>
</g>
</g>
</g>
</svg>
