<svg width="196" height="153" viewBox="0 0 196 153" fill="none" xmlns="http://www.w3.org/2000/svg">
<path d="M24.098 11.1572C23.401 8.34374 21.5062 6.50064 18.1968 5.79877C18.1389 5.78716 18.0866 5.7575 18.0479 5.71435C18.0092 5.6712 17.9862 5.61695 17.9825 5.55995C17.9788 5.50294 17.9945 5.44634 18.0273 5.39884C18.0602 5.35134 18.1082 5.31558 18.1641 5.29706C21.2093 4.28313 23.1464 2.57684 23.9752 0.178199C24.0642 -0.0794147 24.4414 -0.0497478 24.4974 0.215753C25.0413 2.89554 27.0383 4.48892 30.0878 5.2933C30.146 5.30957 30.197 5.34417 30.2325 5.3916C30.2681 5.43904 30.2862 5.49659 30.2841 5.55513C30.2819 5.61367 30.2596 5.66985 30.2207 5.71473C30.1818 5.75962 30.1284 5.79065 30.0692 5.8029C27.1207 6.39361 25.3646 8.23935 24.624 11.1531C24.558 11.4201 24.1644 11.4257 24.098 11.1572Z" fill="#96D7FF"/>
<path d="M4.68011 39.5758C4.11727 37.5141 2.67162 36.1507 0.188317 35.6074C-0.0506797 35.5549 -0.0634061 35.24 0.167459 35.1619C2.445 34.3952 3.91386 33.1355 4.57405 31.3828C4.59235 31.3353 4.62647 31.2947 4.67129 31.267C4.71611 31.2394 4.76921 31.2262 4.82263 31.2295C4.87604 31.2328 4.9269 31.2523 4.96756 31.2852C5.00822 31.3181 5.0365 31.3625 5.04815 31.4119C5.49963 33.365 7.00538 34.5468 9.28468 35.1626C9.53005 35.2293 9.52297 35.5586 9.27408 35.6117C7.07503 36.0815 5.74393 37.4433 5.15598 39.5688C5.09199 39.8002 4.74304 39.8075 4.68011 39.5758Z" fill="#095DFF"/>
<path d="M139.527 152.151C138.908 149.632 137.318 147.965 134.586 147.301C134.323 147.237 134.309 146.852 134.564 146.756C137.069 145.819 138.684 144.28 139.41 142.138C139.431 142.079 139.468 142.03 139.518 141.996C139.567 141.962 139.625 141.946 139.684 141.95C139.743 141.954 139.799 141.978 139.843 142.019C139.888 142.059 139.919 142.113 139.932 142.173C140.429 144.56 142.085 146.005 144.592 146.757C144.862 146.839 144.855 147.241 144.58 147.307C142.162 147.88 140.698 149.545 140.051 152.143C139.98 152.426 139.597 152.435 139.527 152.151Z" fill="#095DFF"/>
<path d="M6.09426 138.941C5.47514 136.879 3.88492 135.516 1.15329 134.972C0.890396 134.92 0.876395 134.605 1.13035 134.527C3.63564 133.76 5.25139 132.5 5.97759 130.747C5.99777 130.7 6.03533 130.659 6.08466 130.632C6.13399 130.604 6.19242 130.591 6.25118 130.594C6.30994 130.598 6.36587 130.617 6.41057 130.65C6.45527 130.683 6.48634 130.727 6.49911 130.777C6.99573 132.73 8.65206 133.912 11.1593 134.527C11.4292 134.594 11.4214 134.923 11.1476 134.977C8.72867 135.446 7.26446 136.808 6.61772 138.934C6.54733 139.165 6.16349 139.171 6.09426 138.941Z" fill="#FF99B1"/>
<path d="M136.72 12.2081C136.439 11.0626 135.716 10.3049 134.474 10.0031C134.355 9.97411 134.348 9.79898 134.464 9.75557C135.603 9.32959 136.337 8.62972 136.667 7.65594C136.676 7.62955 136.693 7.60698 136.716 7.59164C136.738 7.57629 136.765 7.569 136.792 7.57084C136.818 7.57268 136.844 7.58356 136.864 7.60184C136.884 7.62013 136.898 7.64484 136.904 7.67226C137.13 8.75742 137.883 9.41401 139.022 9.75594C139.145 9.79304 139.142 9.97597 139.017 10.0057C137.918 10.2665 137.252 11.0231 136.958 12.2042C136.926 12.3326 136.752 12.3359 136.72 12.2081Z" fill="#FF99B1"/>
<path d="M131.569 45.9147L98.4063 34.0679L65.5768 45.7684C61.3838 47.7185 57.7393 48.9178 57.7393 52.7985V72.1434C57.6673 85.7286 61.3989 99.0652 68.5159 110.658C75.6279 122.372 86.1711 131.641 98.7296 137.218C112.151 132.879 122.174 121.305 128.297 111.418C135.431 99.8307 139.18 86.4938 139.122 72.904V55.4994C139.122 49.9514 136.164 47.2505 131.569 45.9147Z" fill="#05526F"/>
<path d="M98.7536 137.218C101 136.485 103.178 135.555 105.261 134.439C110.369 131.553 115.01 127.914 119.028 123.645C122.679 119.731 125.891 115.432 128.607 110.824C135.827 99.1556 139.473 85.6414 139.097 71.9387V55.9577C139.097 48.0013 134.977 47.4163 131.533 45.9147L98.4307 34.0679V43.1943L125.3 53.2275C128.999 54.9534 130.858 57.8298 130.858 60.9109V74.4836C130.903 85.2348 127.942 95.7861 122.306 104.954C116.826 114.22 108.597 121.565 98.7536 125.976V137.218Z" fill="#006287"/>
<path d="M142.312 35.904C143.202 36.1182 144.074 36.4029 144.919 36.7557C145.952 37.1707 146.932 37.7098 147.837 38.3611C149.116 39.2401 150.175 40.4063 150.93 41.7676C151.84 43.497 152.327 45.4199 152.35 47.3766C152.35 49.5106 152.35 51.8208 152.35 54.317C152.35 59.2995 152.399 64.9967 152.35 71.3497C152.259 78.3313 151.365 85.2788 149.685 92.0532C147.712 99.9424 144.665 107.519 140.629 114.568C136.113 122.459 130.518 129.672 124.006 135.996C117.198 142.544 108.794 148.339 98.9798 151.413H98.8922H98.8047C95.3673 149.935 92.0131 148.268 88.757 146.421C85.4277 144.479 82.2215 142.331 79.1568 139.989C72.8323 135.12 67.203 129.399 62.4269 122.986C52.0943 109.281 45.9468 92.8465 44.7341 75.6862C44.4229 71.6238 44.5104 67.6103 44.5007 63.6654V51.9872C44.5007 50.0294 44.5007 48.1891 44.5007 46.3194C44.4704 45.3753 44.5029 44.4302 44.598 43.4904C44.7399 42.5347 45.129 41.6334 45.7262 40.8768C46.9506 39.4854 48.4696 38.3882 50.1713 37.666C51.7957 36.8927 53.4298 36.2173 55.0347 35.5027L98.4059 20.8193H98.4545H98.5129L130.689 31.8906L139.277 34.8273L141.485 35.6006L142.234 35.8845C142.234 35.8845 141.972 35.8159 141.476 35.6495L139.248 34.9154L130.63 31.9787L98.4837 21.1032H98.5907L55.2584 35.9138C53.6632 36.6284 52.0194 37.3039 50.3951 38.0772C48.754 38.7735 47.2884 39.8304 46.1056 41.1705C45.5561 41.8671 45.2003 42.6981 45.0746 43.5785C44.986 44.4926 44.9568 45.4114 44.987 46.3292V51.997C44.987 55.8049 44.987 59.6911 44.987 63.6262C44.987 67.5614 44.9189 71.5748 45.2302 75.6079C46.4414 92.673 52.5583 109.015 62.8355 122.644C67.5876 129.019 73.1874 134.707 79.4778 139.549C82.5222 141.879 85.7091 144.014 89.0197 145.941C92.271 147.8 95.6221 149.477 99.0576 150.963H98.8922C108.619 147.928 116.935 142.153 123.744 135.673C130.234 129.387 135.816 122.217 140.328 114.372C144.344 107.372 147.39 99.8535 149.383 92.0238C151.074 85.2802 151.984 78.3625 152.097 71.4084C152.097 65.0652 152.097 59.3583 152.155 54.3757C152.155 51.8795 152.155 49.5596 152.155 47.4452C152.153 45.5159 151.689 43.6157 150.803 41.9046C150.069 40.5611 149.042 39.403 147.798 38.5177C146.889 37.8669 145.91 37.3217 144.88 36.8927C144.244 36.6243 143.595 36.389 142.935 36.1879L142.312 35.904Z" fill="#05526F" fill-opacity="0.65"/>
<g clip-path="url(#clip0_474_217)">
<path d="M109.077 76.653H107.894V71.9213C107.894 66.7023 103.649 62.458 98.4303 62.458C93.2113 62.458 88.967 66.7023 88.967 71.9213V76.653H87.7841C85.8283 76.653 84.2354 78.2444 84.2354 80.2017V96.7625C84.2354 98.7199 85.8283 100.311 87.7841 100.311H109.077C111.032 100.311 112.625 98.7199 112.625 96.7625V80.2017C112.625 78.2444 111.032 76.653 109.077 76.653ZM92.1215 71.9213C92.1215 68.442 94.951 65.6124 98.4303 65.6124C101.91 65.6124 104.739 68.442 104.739 71.9213V76.653H92.1215V71.9213ZM100.008 88.8323V92.4252C100.008 93.2958 99.3025 94.0024 98.4303 94.0024C97.5581 94.0024 96.8531 93.2958 96.8531 92.4252V88.8323C95.9147 88.285 95.2759 87.2787 95.2759 86.1163C95.2759 84.3766 96.6907 82.9619 98.4303 82.9619C100.17 82.9619 101.585 84.3766 101.585 86.1163C101.585 87.2787 100.946 88.285 100.008 88.8323Z" fill="white"/>
</g>
<defs>
<clipPath id="clip0_474_217">
<rect width="37.8533" height="37.8533" fill="white" transform="translate(79.5039 62.458)"/>
</clipPath>
</defs>
</svg>
