<svg width="1024" height="1024" viewBox="0 0 1024 1024" fill="none" xmlns="http://www.w3.org/2000/svg">
<rect width="1024" height="1024" rx="50" fill="white"/>
<path d="M652.326 519.216C652.326 519.216 401.832 438.785 252.103 481.129C252.103 481.129 554.4 492.248 652.326 519.216Z" fill="#0088F7"/>
<path d="M627.726 399.042C621.103 393.838 603.6 383.666 569.065 377.042C569.065 377.042 579.709 385.085 580.419 391.709C563.861 393.365 547.54 395.257 531.219 397.623C532.401 392.655 535.95 388.161 535.95 388.161C526.251 389.58 518.682 395.731 514.188 400.225C505.673 401.645 496.921 403.064 488.405 404.72C495.028 390.053 519.865 382.01 519.865 382.01C479.417 388.397 463.332 402.827 457.182 411.107C446.774 413.473 436.367 415.838 425.959 418.44C443.699 384.849 487.696 371.365 550.142 371.838C501.178 364.741 440.151 370.892 366.588 390.999L418.626 397.15C418.626 397.15 386.221 409.215 367.061 435.473C348.374 441.387 331.817 448.484 318.334 457.473C330.161 456.527 342.698 456.054 355.471 456.054C373.684 456.054 392.371 457 410.584 458.419C482.255 439.258 596.976 428.139 715.482 418.204C691.828 443.279 601.707 453.215 504.017 461.495L491.007 468.355C523.65 473.796 553.69 480.183 579.236 486.097C608.33 482.312 643.101 477.817 685.205 472.85C685.205 472.85 649.251 483.731 606.201 492.957C635.296 500.527 653.746 506.441 655.875 507.151C660.132 508.57 662.971 511.882 664.153 515.667C703.655 502.183 739.846 458.656 773.907 398.569C732.75 393.365 683.076 394.311 627.726 399.042Z" fill="#071B54"/>
<path d="M609.986 519.216C609.986 519.216 346.482 475.452 252.103 501.474C252.103 501.71 566.936 510.936 609.986 519.216Z" fill="#0088F7"/>
<path d="M140 572.571H178.449C184.254 572.571 189.267 573.099 193.489 574.155C197.786 575.135 201.329 576.567 204.119 578.452C206.908 580.262 208.982 582.448 210.339 585.012C211.696 587.575 212.374 590.403 212.374 593.494C212.374 597.49 211.243 600.958 208.982 603.899C206.72 606.839 203.327 609.026 198.804 610.458C204.458 611.589 208.868 613.813 212.035 617.131C215.277 620.373 216.897 624.557 216.897 629.684C216.897 636.47 214.07 641.861 208.416 645.857C202.837 649.778 193.979 651.738 181.841 651.738H140V572.571ZM156.397 615.548V643.256H181.841C187.495 643.256 191.83 642.125 194.846 639.863C197.862 637.601 199.369 634.208 199.369 629.684C199.369 624.859 197.862 621.315 194.846 619.054C191.83 616.716 187.495 615.548 181.841 615.548H156.397ZM178.449 607.065C189.38 607.065 194.846 602.542 194.846 593.494C194.846 589.498 193.451 586.444 190.662 584.333C187.948 582.147 183.877 581.054 178.449 581.054H156.397V607.065H178.449Z" fill="#071B54"/>
<path d="M258.813 646.649C261.226 646.649 263.488 646.196 265.599 645.292C267.709 644.387 269.557 642.992 271.14 641.107C272.723 639.147 273.967 636.621 274.871 633.53C275.852 630.438 276.342 626.706 276.342 622.333C276.342 617.96 275.852 614.228 274.871 611.137C273.967 608.046 272.723 605.557 271.14 603.673C269.557 601.712 267.709 600.28 265.599 599.375C263.488 598.47 261.226 598.018 258.813 598.018C256.401 598.018 254.139 598.47 252.028 599.375C249.918 600.28 248.07 601.712 246.487 603.673C244.904 605.557 243.622 608.046 242.642 611.137C241.738 614.228 241.285 617.96 241.285 622.333C241.285 626.706 241.738 630.438 242.642 633.53C243.622 636.621 244.904 639.147 246.487 641.107C248.07 642.992 249.918 644.387 252.028 645.292C254.139 646.196 256.401 646.649 258.813 646.649ZM258.813 590.667C263.865 590.667 268.501 591.383 272.723 592.815C277.02 594.173 280.676 596.208 283.692 598.923C286.708 601.561 289.045 604.879 290.703 608.875C292.437 612.796 293.304 617.282 293.304 622.333C293.304 627.46 292.437 631.984 290.703 635.905C289.045 639.825 286.708 643.143 283.692 645.857C280.676 648.496 277.02 650.494 272.723 651.851C268.501 653.284 263.865 654 258.813 654C253.687 654 249.013 653.284 244.791 651.851C240.569 650.494 236.951 648.496 233.935 645.857C230.919 643.143 228.545 639.825 226.811 635.905C225.152 631.984 224.323 627.46 224.323 622.333C224.323 617.282 225.152 612.796 226.811 608.875C228.545 604.879 230.919 601.561 233.935 598.923C236.951 596.208 240.569 594.173 244.791 592.815C249.013 591.383 253.687 590.667 258.813 590.667Z" fill="#071B54"/>
<path d="M316.04 633.077C316.04 640.24 320.375 643.821 329.045 643.821H344.877V622.333H329.045C320.375 622.333 316.04 625.915 316.04 633.077ZM344.877 614.417C344.877 608.988 343.444 604.992 340.579 602.429C337.79 599.865 334.134 598.583 329.61 598.583C326.218 598.583 322.901 599.111 319.659 600.167C316.417 601.147 313.515 602.504 310.951 604.238L306.993 597.452C308.652 596.321 310.461 595.341 312.421 594.512C314.457 593.682 316.53 593.004 318.641 592.476C320.752 591.873 322.825 591.421 324.861 591.119C326.972 590.817 328.932 590.667 330.741 590.667C335.566 590.667 339.826 591.232 343.52 592.363C347.214 593.494 350.342 595.115 352.906 597.226C355.469 599.337 357.391 601.863 358.673 604.804C360.03 607.669 360.709 610.873 360.709 614.417V651.738H329.045C318.792 651.738 311.215 650.192 306.315 647.101C301.49 644.01 299.077 639.335 299.077 633.077C299.077 626.819 301.49 622.145 306.315 619.054C311.215 615.962 318.792 614.417 329.045 614.417H344.877Z" fill="#071B54"/>
<path d="M375.506 600.845H364.763V592.929H375.506V574.833H391.338V592.929H408.866V600.845H391.338V630.25C391.338 633.115 391.64 635.565 392.243 637.601C392.921 639.561 393.788 641.183 394.844 642.464C395.975 643.671 397.256 644.575 398.689 645.179C400.121 645.782 401.629 646.083 403.212 646.083C405.474 646.083 407.66 645.744 409.771 645.065C411.882 644.311 413.654 643.52 415.086 642.69L418.479 650.042C416.217 651.173 413.616 652.115 410.676 652.869C407.811 653.623 404.946 654 402.081 654C393.562 654 387.003 651.889 382.405 647.667C377.806 643.444 375.506 637.639 375.506 630.25V600.845Z" fill="#071B54"/>
<path d="M533.961 630.815C533.961 634.057 533.283 637.111 531.926 639.976C530.568 642.766 528.345 645.216 525.254 647.327C522.238 649.363 518.28 650.984 513.38 652.19C508.555 653.397 502.599 654 495.512 654C491.517 654 487.596 653.698 483.752 653.095C479.982 652.492 476.363 651.625 472.895 650.494C469.503 649.363 466.337 648.006 463.396 646.423C460.532 644.764 458.044 642.954 455.933 640.994L461.587 634.208C465.884 637.903 470.898 640.73 476.627 642.69C482.357 644.575 488.652 645.518 495.512 645.518C503.127 645.518 508.517 644.462 511.683 642.351C514.85 640.24 516.433 637.337 516.433 633.643C516.433 630.778 515.189 628.365 512.701 626.405C510.213 624.444 505.991 622.522 500.036 620.637L478.55 613.851C471.463 611.589 466.11 608.724 462.492 605.256C458.873 601.712 457.064 597.226 457.064 591.798C457.064 589.008 457.704 586.331 458.986 583.768C460.343 581.129 462.416 578.829 465.206 576.869C467.995 574.833 471.538 573.25 475.836 572.119C480.208 570.913 485.448 570.309 491.554 570.309C495.248 570.309 498.905 570.611 502.524 571.214C506.218 571.817 509.723 572.684 513.04 573.815C516.433 574.946 519.562 576.341 522.426 578C525.367 579.583 527.892 581.355 530.003 583.315L524.349 590.101C520.052 586.407 515.227 583.617 509.874 581.732C504.521 579.772 498.415 578.792 491.554 578.792C485.9 578.792 481.641 579.772 478.776 581.732C475.986 583.692 474.592 586.105 474.592 588.97C474.592 590.554 474.856 591.948 475.383 593.155C475.911 594.286 476.778 595.379 477.984 596.434C479.266 597.415 480.924 598.357 482.96 599.262C484.995 600.091 487.521 600.996 490.537 601.976L511.91 608.762C518.77 610.948 524.16 613.813 528.081 617.357C532.001 620.901 533.961 625.387 533.961 630.815Z" fill="#071B54"/>
<path d="M604.17 651.738H588.339V616.113C588.339 610.684 586.981 606.802 584.267 604.464C581.553 602.052 577.633 600.845 572.507 600.845H557.806V651.738H541.974V572.571H557.806V592.929H572.507C583.287 592.929 591.241 594.889 596.368 598.809C601.569 602.655 604.17 608.423 604.17 616.113V651.738Z" fill="#071B54"/>
<path d="M616.093 592.929H631.924V628.554C631.924 633.982 633.281 637.903 635.995 640.315C638.709 642.653 642.63 643.821 647.756 643.821H662.457V592.929H678.289V651.738H647.756C636.975 651.738 628.984 649.815 623.782 645.97C618.656 642.05 616.093 636.244 616.093 628.554V592.929Z" fill="#071B54"/>
<path d="M695.963 600.845H685.22V592.929H695.963V574.833H711.794V592.929H729.322V600.845H711.794V630.25C711.794 633.115 712.096 635.565 712.699 637.601C713.378 639.561 714.245 641.183 715.3 642.464C716.431 643.671 717.712 644.575 719.145 645.179C720.577 645.782 722.085 646.083 723.668 646.083C725.93 646.083 728.116 645.744 730.227 645.065C732.338 644.311 734.11 643.52 735.542 642.69L738.935 650.042C736.673 651.173 734.072 652.115 731.132 652.869C728.267 653.623 725.402 654 722.537 654C714.018 654 707.459 651.889 702.861 647.667C698.262 643.444 695.963 637.639 695.963 630.25V600.845Z" fill="#071B54"/>
<path d="M744.129 600.845H733.386V592.929H744.129V574.833H759.961V592.929H777.489V600.845H759.961V630.25C759.961 633.115 760.263 635.565 760.866 637.601C761.544 639.561 762.411 641.183 763.467 642.464C764.598 643.671 765.879 644.575 767.312 645.179C768.744 645.782 770.252 646.083 771.835 646.083C774.097 646.083 776.283 645.744 778.394 645.065C780.505 644.311 782.276 643.52 783.709 642.69L787.101 650.042C784.84 651.173 782.239 652.115 779.299 652.869C776.434 653.623 773.569 654 770.704 654C762.185 654 755.626 651.889 751.027 647.667C746.429 643.444 744.129 637.639 744.129 630.25V600.845Z" fill="#071B54"/>
<path d="M808.671 651.738H792.839V572.571H808.671V651.738Z" fill="#071B54"/>
<path d="M855.163 646.083C858.858 646.083 862.288 645.442 865.454 644.161C868.696 642.879 871.862 641.069 874.953 638.732L879.477 645.518C878.044 646.8 876.348 647.968 874.388 649.024C872.503 650.079 870.43 650.984 868.168 651.738C865.982 652.417 863.682 652.944 861.27 653.321C858.858 653.774 856.445 654 854.033 654C848.68 654 843.78 653.284 839.332 651.851C834.959 650.494 831.227 648.496 828.136 645.857C825.045 643.143 822.633 639.825 820.899 635.905C819.24 631.984 818.411 627.46 818.411 622.333C818.411 617.282 819.203 612.796 820.786 608.875C822.444 604.879 824.706 601.561 827.571 598.923C830.511 596.208 833.979 594.173 837.975 592.815C841.97 591.383 846.381 590.667 851.206 590.667C855.729 590.667 859.988 591.345 863.984 592.702C867.98 594.059 871.448 596.058 874.388 598.696C877.328 601.26 879.665 604.389 881.399 608.083C883.133 611.778 884 615.962 884 620.637V628.554H835.713C836.618 634.811 838.766 639.298 842.159 642.012C845.627 644.726 849.962 646.083 855.163 646.083ZM851.206 598.018C849.019 598.018 846.984 598.432 845.099 599.262C843.214 600.091 841.556 601.411 840.123 603.22C838.766 605.03 837.635 607.367 836.731 610.232C835.901 613.097 835.449 616.565 835.374 620.637H867.037C867.037 616.716 866.585 613.323 865.68 610.458C864.776 607.593 863.569 605.256 862.062 603.446C860.629 601.561 858.933 600.204 856.973 599.375C855.088 598.47 853.166 598.018 851.206 598.018Z" fill="#071B54"/>
</svg>
