<svg width="126" height="130" viewBox="0 0 126 130" fill="none" xmlns="http://www.w3.org/2000/svg">
<path d="M113.198 46.6863C118.452 51.6583 125.213 58.0567 125.937 66.6118C126.741 76.1197 119.701 83.7137 115.509 87.3548C114.126 88.5582 112.563 89.5774 110.864 90.3818C107.612 91.9192 103.714 94.3955 100.962 98.4012C97.59 103.31 98.631 106.596 96.7717 111.33C91.9635 123.574 74.5969 128.088 73.4744 128.365C60.5384 131.56 49.5526 127.312 43.7514 124.195C41.4378 122.953 39.4426 121.284 37.8226 119.337C36.4323 117.666 34.5116 115.804 31.9068 114.22C26.5937 110.988 22.8259 111.582 17.9949 109.961C9.52777 107.121 3.33247 99.3353 1.06606 92.0128C-1.80875 82.7252 1.76686 74.6002 4.29823 70.3949C5.76125 67.968 6.61517 65.2777 6.7989 62.5165C6.87581 61.3503 6.92709 60.0723 6.93279 58.7024C6.96254 51.7465 5.78881 50.1502 6.09459 46.8391C6.99356 37.1072 18.9863 30.782 20.0068 30.26C28.9392 25.6896 37.8565 26.8584 41.7458 27.7018C43.6792 28.1209 45.6683 28.2984 47.6524 28.1867C49.0094 28.1109 50.3579 27.9396 51.6857 27.6742C58.0368 26.4014 60.4665 23.6226 64.592 21.7423C72.3694 18.1971 83.1532 19.2211 90.7381 23.5675C96.2266 26.7117 99.304 31.1726 100.994 34.6055C102.358 37.3786 104.467 39.7909 107.098 41.6687C109.258 43.2102 111.296 44.8868 113.198 46.6863Z" fill="#05526F" fill-opacity="0.1"/>
<rect x="25.7114" y="39.9629" width="68.0255" height="68.0255" rx="34.0128" fill="#05526F"/>
<path fill-rule="evenodd" clip-rule="evenodd" d="M55.2062 64.2831H63.804C67.1657 64.2831 69.4168 66.6432 69.4168 70.1537V78.2567C69.4168 81.7562 67.1657 84.1164 63.804 84.1164H55.2062C51.8445 84.1164 49.5835 81.7562 49.5835 78.2567V70.1537C49.5835 66.6432 51.8445 64.2831 55.2062 64.2831ZM58.9353 77.1648L63.6457 72.4544C63.9829 72.1172 63.9829 71.5718 63.6457 71.2247C63.3085 70.8876 62.7532 70.8876 62.416 71.2247L58.3204 75.3203L56.585 73.5849C56.2479 73.2477 55.6925 73.2477 55.3554 73.5849C55.0182 73.9221 55.0182 74.4675 55.3554 74.8146L57.7155 77.1648C57.8841 77.3334 58.1023 77.4127 58.3204 77.4127C58.5485 77.4127 58.7667 77.3334 58.9353 77.1648Z" fill="white"/>
<path d="M100.128 8.94072C100.683 6.68617 102.193 5.20922 104.829 4.64678C104.875 4.63748 104.917 4.61371 104.947 4.57913C104.978 4.54456 104.997 4.50108 105 4.4554C105.003 4.40972 104.99 4.36437 104.964 4.32631C104.938 4.28824 104.899 4.25959 104.855 4.24474C102.429 3.43224 100.886 2.06492 100.226 0.142798C100.155 -0.0636381 99.8544 -0.0398648 99.8098 0.172891C99.3765 2.32031 97.7857 3.59715 95.3565 4.24173C95.3101 4.25477 95.2695 4.28249 95.2412 4.3205C95.2129 4.35851 95.1984 4.40464 95.2001 4.45155C95.2018 4.49846 95.2196 4.54347 95.2506 4.57944C95.2817 4.61541 95.3241 4.64028 95.3713 4.65009C97.7201 5.12345 99.119 6.60251 99.7089 8.93741C99.7615 9.15137 100.075 9.15588 100.128 8.94072Z" fill="#0088F7"/>
<path d="M115.193 32.0601C115.651 30.3656 116.827 29.2451 118.848 28.7985C119.042 28.7554 119.053 28.4966 118.865 28.4324C117.012 27.8023 115.817 26.7669 115.279 25.3264C115.265 25.2874 115.237 25.254 115.2 25.2313C115.164 25.2086 115.121 25.1977 115.077 25.2004C115.034 25.2031 114.992 25.2192 114.959 25.2462C114.926 25.2732 114.903 25.3097 114.894 25.3503C114.526 26.9556 113.301 27.9269 111.447 28.4329C111.247 28.4878 111.253 28.7585 111.455 28.8021C113.244 29.1882 114.328 30.3075 114.806 32.0543C114.858 32.2445 115.142 32.2506 115.193 32.0601Z" fill="#C9C1F5"/>
<path d="M7.74713 121.632C8.24671 119.599 9.52988 118.254 11.7341 117.718C11.9462 117.667 11.9575 117.356 11.7523 117.279C9.73093 116.523 8.42726 115.28 7.84127 113.552C7.82499 113.505 7.79467 113.465 7.75486 113.437C7.71506 113.41 7.66791 113.397 7.6205 113.401C7.57308 113.404 7.52795 113.423 7.49188 113.456C7.45581 113.488 7.43075 113.532 7.42044 113.581C7.01971 115.507 5.68319 116.672 3.65973 117.279C3.44195 117.345 3.44821 117.67 3.66945 117.723C5.62104 118.186 6.80254 119.529 7.32472 121.626C7.38152 121.853 7.69095 121.861 7.74713 121.632Z" fill="#C9C1F5"/>
<path d="M114.147 111.161C114.646 109.466 115.93 108.345 118.134 107.899C118.346 107.856 118.357 107.597 118.152 107.532C116.131 106.902 114.827 105.867 114.241 104.426C114.225 104.387 114.194 104.354 114.155 104.331C114.115 104.308 114.068 104.298 114.02 104.3C113.973 104.303 113.928 104.319 113.892 104.346C113.856 104.373 113.83 104.41 113.82 104.45C113.419 106.056 112.083 107.027 110.06 107.533C109.842 107.588 109.848 107.859 110.069 107.902C112.021 108.288 113.203 109.408 113.724 111.155C113.781 111.345 114.091 111.35 114.147 111.161Z" fill="#FF99B1"/>
<path d="M9.82343 9.73034C10.0732 8.88305 10.7148 8.32259 11.817 8.0993C11.923 8.07789 11.9287 7.94835 11.8262 7.91623C10.8154 7.60114 10.1635 7.08345 9.8705 6.36315C9.86237 6.34362 9.84721 6.32693 9.82731 6.31558C9.8074 6.30423 9.78383 6.29883 9.76012 6.30019C9.73641 6.30155 9.71385 6.3096 9.69581 6.32313C9.67777 6.33666 9.66524 6.35493 9.66009 6.37522C9.45971 7.17791 8.79143 7.66358 7.77984 7.91651C7.67094 7.94396 7.67408 8.07927 7.78454 8.10123C8.76052 8.29418 9.35129 8.85382 9.61223 9.72746C9.64063 9.82243 9.7955 9.8249 9.82343 9.73034Z" fill="#FF99B1"/>
</svg>
